<?xml version="1.0" encoding="UTF-8"?>
<svg version="1.1" xmlns="http://www.w3.org/2000/svg" width="154" height="128">
<path d="M0 0 C3.49509093 0.818 3.83467712 1.43905922 5.8125 4.3125 C6.87253582 6.09336017 7.91160656 7.88675528 8.9375 9.6875 C9.66509535 10.86896189 10.39573332 12.04855373 11.12890625 13.2265625 C11.87931225 14.46250621 12.62801717 15.69948438 13.375 16.9375 C13.74157715 17.52740723 14.1081543 18.11731445 14.48583984 18.72509766 C15.99664963 21.30931991 16.92598156 23.28253601 17.01171875 26.296875 C15.0263543 30.71521335 10.90697714 33.20832447 7.2109375 36.1875 C4.66245273 38.43163988 4.66245273 38.43163988 4.91796875 41.1796875 C11.21189564 56.66130078 23.7870008 67.59674399 37.9375 75.6875 C39.94451313 76.49363347 39.94451313 76.49363347 41.9375 76.6875 C44.41910876 74.54124378 46.46234429 72.23850216 48.6015625 69.7578125 C49.18679687 69.11585937 49.77203125 68.47390625 50.375 67.8125 C50.90996094 67.19632812 51.44492188 66.58015625 51.99609375 65.9453125 C53.9375 64.6875 53.9375 64.6875 56.65625 64.72265625 C60.81695483 65.9461016 64.26827835 67.82229129 68 70 C68.69416016 70.39123047 69.38832031 70.78246094 70.10351562 71.18554688 C77.81501116 75.6015315 77.81501116 75.6015315 80.9375 78.6875 C81.65744281 82.81217237 80.17028177 86.94550811 78.9375 90.875 C75.13319689 96.22480125 69.1232423 99.6441617 62.9375 101.6875 C47.8801928 103.75887559 31.32622994 97.5417658 19.36035156 88.49511719 C15.41479638 85.37801289 11.65540584 82.07075754 7.9375 78.6875 C7.12152344 77.9553125 6.30554688 77.223125 5.46484375 76.46875 C-8.70068154 63.07770669 -19.064313 44.672996 -21.5 25.1875 C-20.39466804 16.34484431 -17.05390874 8.43044289 -10.0625 2.6875 C-6.64833752 1.2499579 -3.58361774 0.80448561 0 0 Z " fill="#2E6953" transform="translate(46.0625,10.3125)"/>
<path d="M0 0 C3.90243902 3.90243902 3.90243902 3.90243902 4 8 C1.05755898 12.8614243 -3.69017194 16.37012054 -8 20 C-7.44395315 23.66223962 -6.51369902 26.1293949 -4.4375 29.1875 C-2 32.79886686 -2 32.79886686 -2 35 C-4.31 34.34 -6.62 33.68 -9 33 C-8.95875 32.2575 -8.9175 31.515 -8.875 30.75 C-8.8117379 28.03807548 -8.8117379 28.03807548 -10 26 C-11.22823725 23.54352551 -11.15056792 21.7102225 -11 19 C-10.34 19 -9.68 19 -9 19 C-9 18.01 -9 17.02 -9 16 C-7.6875 14.3125 -7.6875 14.3125 -6 13 C-5.01 13 -4.02 13 -3 13 C-2.67 12.01 -2.34 11.02 -2 10 C-1.01 10 -0.02 10 1 10 C0.67 6.7 0.34 3.4 0 0 Z " fill="#648B7B" transform="translate(59,29)"/>
<path d="M0 0 C3.23538582 1.23908393 5.38718479 2.79971261 7.9375 5.125 C6.2875 5.125 4.6375 5.125 2.9375 5.125 C2.6075 4.135 2.2775 3.145 1.9375 2.125 C1.2775 2.125 0.6175 2.125 -0.0625 2.125 C-0.3925 2.785 -0.7225 3.445 -1.0625 4.125 C-7.15272556 9.67387218 -7.15272556 9.67387218 -11.0625 10.125 C-9.13815372 5.12169966 -5.56364698 0.22708763 0 0 Z " fill="#77988B" transform="translate(103.0625,74.875)"/>
<path d="M0 0 C0.43828125 0.3403125 0.8765625 0.680625 1.328125 1.03125 C7.36261035 5.64297051 13.65330536 9.83233719 20 14 C19.01 14.66 18.02 15.32 17 16 C16.1028125 15.2884375 16.1028125 15.2884375 15.1875 14.5625 C12.99617076 12.83534256 12.99617076 12.83534256 10 12 C10 11.01 10 10.02 10 9 C7.69 8.34 5.38 7.68 3 7 C3 6.34 3 5.68 3 5 C2.34 5 1.68 5 1 5 C0.67 3.35 0.34 1.7 0 0 Z " fill="#749687" transform="translate(64,72)"/>
<path d="M0 0 C1 3 1 3 0 5.875 C-2.52551216 9.82111275 -5.07691103 11.48330142 -9 14 C-9.66 12.68 -10.32 11.36 -11 10 C-8.03 9.01 -5.06 8.02 -2 7 C-2 5.35 -2 3.7 -2 2 C-1.34 2 -0.68 2 0 2 C0 1.34 0 0.68 0 0 Z " fill="#65897B" transform="translate(125,95)"/>
<path d="M0 0 C4.46784311 1.24683994 7.73697958 2.64100839 11 6 C11.3125 8.75 11.3125 8.75 11 11 C8 9 8 9 7.0625 6.9375 C6.711875 6.298125 6.36125 5.65875 6 5 C5.34 4.835 4.68 4.67 4 4.5 C2 4 2 4 0.75 1.9375 C0.5025 1.298125 0.255 0.65875 0 0 Z " fill="#759688" transform="translate(116,83)"/>
<path d="M0 0 C3.82524236 1.450954 5.19090966 3.38181932 7 7 C7 7.66 7 8.32 7 9 C4.69 8.34 2.38 7.68 0 7 C0 4.69 0 2.38 0 0 Z " fill="#567F6F" transform="translate(50,55)"/>
<path d="M0 0 C0.33 0 0.66 0 1 0 C1.74507544 6.37305598 2.10349817 12.58311325 2 19 C-1.22778315 14.15832528 -1.20876845 9.7411325 -1 4 C-0.5 1.5625 -0.5 1.5625 0 0 Z " fill="#7E9D8F" transform="translate(26,28)"/>
<path d="M0 0 C0.66 1.32 1.32 2.64 2 4 C1.01 4.495 1.01 4.495 0 5 C0 4.34 0 3.68 0 3 C-2.97 2.67 -5.94 2.34 -9 2 C-9.33 2.66 -9.66 3.32 -10 4 C-11.32 3.67 -12.64 3.34 -14 3 C-9.07015675 0.96006486 -5.42039575 -0.40652968 0 0 Z " fill="#6D8F82" transform="translate(49,11)"/>
<path d="M0 0 C1.98 0 3.96 0 6 0 C6 0.66 6 1.32 6 2 C1.78103134 4.04898287 -1.65372146 4.21207997 -6.3125 4.125 C-7.56675781 4.10695313 -8.82101563 4.08890625 -10.11328125 4.0703125 C-11.06589844 4.04710938 -12.01851563 4.02390625 -13 4 C-13 3.67 -13 3.34 -13 3 C-12.14535156 2.95101562 -11.29070312 2.90203125 -10.41015625 2.8515625 C-9.30542969 2.77679688 -8.20070313 2.70203125 -7.0625 2.625 C-5.40927734 2.52058594 -5.40927734 2.52058594 -3.72265625 2.4140625 C-2.37494141 2.20910156 -2.37494141 2.20910156 -1 2 C-0.67 1.34 -0.34 0.68 0 0 Z " fill="#658A79" transform="translate(108,108)"/>
<path d="M0 0 C0.33 0.66 0.66 1.32 1 2 C3.52733235 2.65555119 3.52733235 2.65555119 6 3 C5.67 3.99 5.34 4.98 5 6 C3.02 6 1.04 6 -1 6 C-1.33 5.01 -1.66 4.02 -2 3 C-1.34 2.01 -0.68 1.02 0 0 Z " fill="#23674E" transform="translate(54,81)"/>
<path d="M0 0 C3 3 3 3 4 5.375 C4 8 4 8 1.5625 10.8125 C0.716875 11.534375 -0.12875 12.25625 -1 13 C-1.33 12.01 -1.66 11.02 -2 10 C-1.01 10 -0.02 10 1 10 C0.67 6.7 0.34 3.4 0 0 Z " fill="#82A093" transform="translate(59,29)"/>
<path d="M0 0 C5.37992836 0.33990833 9.53273547 0.68557793 14 4 C10.30962722 5.37095624 8.29116165 4.60010967 4.75 3.0625 C3.85796875 2.68222656 2.9659375 2.30195312 2.046875 1.91015625 C1.37140625 1.60980469 0.6959375 1.30945313 0 1 C0 0.67 0 0.34 0 0 Z " fill="#739286" transform="translate(81,106)"/>
<path d="M0 0 C1.33897583 0.95043374 2.67105427 1.91059147 4 2.875 C5.11375 3.67550781 5.11375 3.67550781 6.25 4.4921875 C6.8275 4.98976563 7.405 5.48734375 8 6 C8 6.66 8 7.32 8 8 C6.35 7.67 4.7 7.34 3 7 C3 6.34 3 5.68 3 5 C2.34 5 1.68 5 1 5 C0.67 3.35 0.34 1.7 0 0 Z " fill="#66897B" transform="translate(64,72)"/>
<path d="M0 0 C-1.8683015 3.73660299 -5.47007398 6.47660426 -9.375 7.8125 C-9.91125 7.874375 -10.4475 7.93625 -11 8 C-9.24437387 3.08424684 -5.22219793 0 0 0 Z " fill="#577F70" transform="translate(103,77)"/>
<path d="M0 0 C2.50357861 0.8345262 4.66785852 1.79371992 7 3 C7 4.98 7 6.96 7 9 C4.03595495 6.19195732 1.55500981 3.81684226 0 0 Z " fill="#678D7D" transform="translate(40,72)"/>
<path d="M0 0 C6.4 0.49230769 6.4 0.49230769 9.4375 3.0625 C10.2109375 4.0215625 10.2109375 4.0215625 11 5 C10.01 5.495 10.01 5.495 9 6 C6.8359375 5.00390625 6.8359375 5.00390625 4.375 3.5625 C3.55773437 3.08941406 2.74046875 2.61632812 1.8984375 2.12890625 C1.27195312 1.75636719 0.64546875 1.38382812 0 1 C0 0.67 0 0.34 0 0 Z " fill="#77988A" transform="translate(69,100)"/>
<path d="M0 0 C0.66 0.66 1.32 1.32 2 2 C1.34 3.32 0.68 4.64 0 6 C-1.32 6 -2.64 6 -4 6 C-4 4.68 -4 3.36 -4 2 C-2.68 2 -1.36 2 0 2 C0 1.34 0 0.68 0 0 Z " fill="#24664E" transform="translate(105,104)"/>
<path d="M0 0 C1.32 0.99 2.64 1.98 4 3 C3.67 5.31 3.34 7.62 3 10 C2.34 10 1.68 10 1 10 C0.67 6.7 0.34 3.4 0 0 Z " fill="#356250" transform="translate(122,87)"/>
<path d="M0 0 C2.31 0.33 4.62 0.66 7 1 C7 1.99 7 2.98 7 4 C6.01 3.34 5.02 2.68 4 2 C3.67 2.66 3.34 3.32 3 4 C2.01 2.68 1.02 1.36 0 0 Z " fill="#5D8575" transform="translate(53,87)"/>
</svg>
