<?xml version="1.0" encoding="UTF-8"?>
<svg version="1.1" xmlns="http://www.w3.org/2000/svg" width="2400" height="2400">
<path d="M0 0 C2.40485899 0.22826033 4.81066212 0.4398263 7.21746826 0.64648438 C96.95626422 8.38362601 185.28759345 27.89353742 387.39666748 105.78466797 C390.87178485 107.46965993 394.37110583 109.09726659 397.87615967 110.71875 C408.34112321 115.57399602 418.41272488 121.06007249 428.49969482 126.65087891 C431.35796319 128.21998109 434.2313628 129.75652402 437.11248779 131.28320312 C451.84024088 139.10536119 466.08337095 147.5752983 480.2711792 156.32373047 C482.90145943 157.93907689 485.54062624 159.53643858 488.19061279 161.11914062 C521.71944743 181.1871343 553.48765319 204.33207831 584.36639404 228.22460938 C584.9888501 228.70526855 585.61130615 229.18592773 586.25262451 229.68115234 C593.75319165 235.48332671 601.07756182 241.45316661 608.28826904 247.61132812 C611.09346724 250.00343207 613.94102562 252.33916789 616.80389404 254.66210938 C626.94904612 262.93725519 636.78553079 271.51047045 646.36248779 280.43554688 C648.93900218 282.83596563 651.55026141 285.19372068 654.17889404 287.53710938 C666.42039818 298.52921344 678.24659875 309.93856694 689.86077881 321.58862305 C691.95589496 323.68918042 694.05641714 325.78422812 696.15740967 327.87890625 C697.52036117 329.24251748 698.88300302 330.6064383 700.24530029 331.97070312 C700.85893936 332.58231796 701.47257843 333.1939328 702.10481262 333.82408142 C705.83200234 337.5712352 709.36031642 341.4438687 712.81700134 345.44163513 C714.57048509 347.45946854 716.3822138 349.40966292 718.23358154 351.33789062 C719.21367187 352.365354 719.21367187 352.365354 720.21356201 353.41357422 C720.88274658 354.11434082 721.55193115 354.81510742 722.24139404 355.53710938 C727.50847256 361.08869934 732.53498538 366.69344485 737.29608154 372.68554688 C739.55911824 375.46096924 741.94031555 378.09079328 744.36639404 380.72460938 C748.78387102 385.5350521 752.93578992 390.50431325 757.03387451 395.58740234 C758.54861008 397.44849005 760.0831119 399.29218144 761.62030029 401.13476562 C769.02771894 410.02737583 776.11416826 419.08922018 782.9977417 428.39160156 C785.06263042 431.15706438 787.18426972 433.87584093 789.30389404 436.59960938 C799.47538824 449.78669079 809.04444769 463.42726276 818.36639404 477.22460938 C818.89845459 478.01174316 819.43051514 478.79887695 819.97869873 479.60986328 C843.95261472 515.15572429 865.99036238 551.84535566 885.63983154 589.96289062 C887.28070268 593.1448579 888.94216406 596.31152607 890.65545654 599.45507812 C897.25555271 611.58007429 903.02064968 624.08804996 908.73748779 636.64746094 C909.77555383 638.92709876 910.81687535 641.20525896 911.86248779 643.48144531 C948.67969961 723.72600522 974.94352266 808.89934665 1006.05389404 1012.28710938 C1006.1149231 1013.04918701 1006.17595215 1013.81126465 1006.23883057 1014.59643555 C1007.72728656 1033.4228941 1008.52740635 1052.20255554 1008.56951904 1071.08789062 C1008.57649735 1073.03952048 1008.58353832 1074.99115012 1008.59063721 1076.94277954 C1008.60990607 1083.14089237 1008.61481222 1089.33896985 1008.61639404 1095.53710938 C1008.61698318 1096.59128681 1008.61757233 1097.64546425 1008.61817932 1098.73158646 C1008.63007213 1128.85746901 1008.49267775 1158.8455715 1005.59100342 1188.85821533 C1005.36274309 1191.26307432 1005.15117712 1193.66887745 1004.94451904 1196.07568359 C997.2073774 1285.81447955 977.697466 1374.14580879 899.80633545 1576.25488281 C898.12134348 1579.73000018 896.49373683 1583.22932116 894.87225342 1586.734375 C890.0170074 1597.19933855 884.53093093 1607.27094022 878.94012451 1617.35791016 C877.37102232 1620.21617852 875.8344794 1623.08957813 874.30780029 1625.97070312 C866.48564223 1640.69845621 858.01570512 1654.94158628 849.26727295 1669.12939453 C847.65192653 1671.75967476 846.05456484 1674.39884157 844.47186279 1677.04882812 C832.0975444 1697.723365 818.33429958 1717.60292866 804.36639404 1737.22460938 C803.82708252 1737.98531738 803.287771 1738.74602539 802.7321167 1739.52978516 C795.0915021 1750.2926671 787.15746394 1760.79129267 778.99041748 1771.15966797 C777.49742951 1773.05799813 776.01219277 1774.96202306 774.53045654 1776.86914062 C761.40731282 1793.73050762 747.72722537 1810.18720683 733.36639404 1826.00976562 C731.57035875 1827.99873439 729.80686101 1830.01024132 728.05389404 1832.03710938 C724.0603509 1836.61686069 719.93397351 1841.07281915 715.79925537 1845.5246582 C713.61212629 1847.88022321 711.42959283 1850.23988985 709.25091553 1852.60327148 C701.04816345 1861.47542137 692.63458057 1870.11298605 684.07781982 1878.64355469 C681.96839747 1880.74754675 679.86446966 1882.85692972 677.76092529 1884.96679688 C676.3927567 1886.33430559 675.02427843 1887.70150457 673.65545654 1889.06835938 C673.04070465 1889.6851355 672.42595276 1890.30191162 671.79257202 1890.93737793 C668.03642704 1894.67361952 664.15568187 1898.21156686 660.14813232 1901.67645264 C658.13064391 1903.42945324 656.1809234 1905.24082961 654.25311279 1907.09179688 C653.22564941 1908.07188721 653.22564941 1908.07188721 652.1774292 1909.07177734 C651.4766626 1909.74096191 650.775896 1910.41014648 650.05389404 1911.09960938 C644.50230408 1916.36668789 638.89755856 1921.39320071 632.90545654 1926.15429688 C630.13003418 1928.41733357 627.50021014 1930.79853089 624.86639404 1933.22460938 C620.05595132 1937.64208635 615.08669016 1941.79400525 610.00360107 1945.89208984 C608.14251336 1947.40682541 606.29882198 1948.94132723 604.45623779 1950.47851562 C595.56362759 1957.88593427 586.50178324 1964.97238359 577.19940186 1971.85595703 C574.43393904 1973.92084576 571.71516249 1976.04248506 568.99139404 1978.16210938 C555.80431263 1988.33360357 542.16374065 1997.90266302 528.36639404 2007.22460938 C527.57926025 2007.75666992 526.79212646 2008.28873047 525.98114014 2008.83691406 C490.43527912 2032.81083005 453.74564776 2054.84857772 415.62811279 2074.49804688 C412.44614552 2076.13891801 409.27947735 2077.8003794 406.13592529 2079.51367188 C394.01092913 2086.11376804 381.50295346 2091.87886501 368.94354248 2097.59570312 C366.66390465 2098.63376916 364.38574446 2099.67509068 362.10955811 2100.72070312 C281.8649982 2137.53791494 196.69165677 2163.80173799 -65.39923096 2197.42773438 C-67.35229006 2197.43471108 -69.30534894 2197.44175206 -71.25840759 2197.44885254 C-77.46680989 2197.46813915 -83.67517697 2197.47302801 -89.88360596 2197.47460938 C-90.93917316 2197.47519852 -91.99474037 2197.47578766 -93.08229446 2197.47639465 C-123.2276019 2197.48828269 -153.23521437 2197.35276423 -183.26721191 2194.44921875 C-185.6720709 2194.22095842 -188.07787403 2194.00939245 -190.48468018 2193.80273438 C-280.22347613 2186.06559274 -368.55480537 2166.55568133 -570.66387939 2088.66455078 C-574.13899677 2086.97955882 -577.63831774 2085.35195216 -581.14337158 2083.73046875 C-591.60833513 2078.87522273 -601.6799368 2073.38914626 -611.76690674 2067.79833984 C-614.6251751 2066.22923766 -617.49857471 2064.69269473 -620.37969971 2063.16601562 C-635.1074528 2055.34385756 -649.35058287 2046.87392045 -663.53839111 2038.12548828 C-666.16867135 2036.51014186 -668.80783816 2034.91278017 -671.45782471 2033.33007812 C-692.13236158 2020.95575973 -712.01192524 2007.19251491 -731.63360596 1993.22460938 C-732.39431396 1992.68529785 -733.15502197 1992.14598633 -733.93878174 1991.59033203 C-744.70166369 1983.94971743 -755.20028925 1976.01567928 -765.56866455 1967.84863281 C-767.46699471 1966.35564485 -769.37101964 1964.87040811 -771.27813721 1963.38867188 C-788.1395042 1950.26552815 -804.59620341 1936.5854407 -820.41876221 1922.22460938 C-822.40773097 1920.42857409 -824.4192379 1918.66507634 -826.44610596 1916.91210938 C-831.02585727 1912.91856623 -835.48181574 1908.79218884 -839.93365479 1904.6574707 C-842.28921979 1902.47034162 -844.64888644 1900.28780817 -847.01226807 1898.10913086 C-855.88441795 1889.90637878 -864.52198263 1881.49279591 -873.05255127 1872.93603516 C-875.15654333 1870.8266128 -877.2659263 1868.72268499 -879.37579346 1866.61914062 C-880.74330217 1865.25097203 -882.11050116 1863.88249376 -883.47735596 1862.51367188 C-884.09413208 1861.89891998 -884.7109082 1861.28416809 -885.34637451 1860.65078735 C-889.0826161 1856.89464238 -892.62056344 1853.01389721 -896.08544922 1849.00634766 C-897.83844983 1846.98885924 -899.6498262 1845.03913873 -901.50079346 1843.11132812 C-902.48088379 1842.08386475 -902.48088379 1842.08386475 -903.48077393 1841.03564453 C-904.1499585 1840.33487793 -904.81914307 1839.63411133 -905.50860596 1838.91210938 C-910.77568447 1833.36051941 -915.80219729 1827.7557739 -920.56329346 1821.76367188 C-922.82633015 1818.98824951 -925.20752747 1816.35842547 -927.63360596 1813.72460938 C-932.05108294 1808.91416665 -936.20300183 1803.9449055 -940.30108643 1798.86181641 C-941.81582199 1797.0007287 -943.35032381 1795.15703731 -944.88751221 1793.31445312 C-952.29493085 1784.42184292 -959.38138018 1775.35999857 -966.26495361 1766.05761719 C-968.32984234 1763.29215437 -970.45148164 1760.57337782 -972.57110596 1757.84960938 C-982.74260015 1744.66252796 -992.3116596 1731.02195599 -1001.63360596 1717.22460938 C-1002.1656665 1716.43747559 -1002.69772705 1715.6503418 -1003.24591064 1714.83935547 C-1027.21982663 1679.29349446 -1049.2575743 1642.60386309 -1068.90704346 1604.48632812 C-1070.54791459 1601.30436085 -1072.20937598 1598.13769268 -1073.92266846 1594.99414062 C-1080.52276462 1582.86914446 -1086.28786159 1570.36116879 -1092.00469971 1557.80175781 C-1093.04276574 1555.52211999 -1094.08408726 1553.24395979 -1095.12969971 1550.96777344 C-1131.94691153 1470.72321353 -1158.21073457 1385.5498721 -1189.32110596 1182.16210938 C-1189.38213501 1181.40003174 -1189.44316406 1180.6379541 -1189.50604248 1179.8527832 C-1190.99449848 1161.02632465 -1191.79461826 1142.24666321 -1191.83673096 1123.36132812 C-1191.84370926 1121.40969827 -1191.85075023 1119.45806863 -1191.85784912 1117.50643921 C-1191.87711799 1111.30832638 -1191.88202414 1105.1102489 -1191.88360596 1098.91210938 C-1191.8841951 1097.85793194 -1191.88478424 1096.8037545 -1191.88539124 1095.71763229 C-1191.89728404 1065.59174974 -1191.75988966 1035.60364725 -1188.85821533 1005.59100342 C-1188.62995501 1003.18614443 -1188.41838904 1000.7803413 -1188.21173096 998.37353516 C-1180.47458932 908.6347392 -1160.96467791 820.30340996 -1083.07354736 618.19433594 C-1081.3885554 614.71921857 -1079.76094874 611.21989759 -1078.13946533 607.71484375 C-1073.28421931 597.2498802 -1067.79814284 587.17827853 -1062.20733643 577.09130859 C-1060.63823424 574.23304023 -1059.10169131 571.35964062 -1057.57501221 568.47851562 C-1049.75285415 553.75076254 -1041.28291704 539.50763247 -1032.53448486 525.31982422 C-1030.91913845 522.68954399 -1029.32177675 520.05037718 -1027.73907471 517.40039062 C-1007.67108103 483.87155599 -984.52613702 452.10335023 -960.63360596 421.22460938 C-960.15294678 420.60215332 -959.6722876 419.97969727 -959.17706299 419.33837891 C-953.37488862 411.83781177 -947.40504872 404.5134416 -941.24688721 397.30273438 C-938.85478326 394.49753618 -936.51904744 391.6499778 -934.19610596 388.78710938 C-925.92096014 378.6419573 -917.34774488 368.80547263 -908.42266846 359.22851562 C-906.0222497 356.65200124 -903.66449465 354.04074201 -901.32110596 351.41210938 C-890.32900189 339.17060524 -878.91964839 327.34440467 -867.26959229 315.73022461 C-865.16903492 313.63510846 -863.07398722 311.53458628 -860.97930908 309.43359375 C-859.61569785 308.07064225 -858.25177703 306.7080004 -856.88751221 305.34570312 C-856.27589737 304.73206406 -855.66428253 304.11842499 -855.03413391 303.4861908 C-851.28698013 299.75900108 -847.41434663 296.23068699 -843.4165802 292.77400208 C-841.39874679 291.02051833 -839.44855241 289.20878961 -837.52032471 287.35742188 C-836.83534912 286.70402832 -836.15037354 286.05063477 -835.44464111 285.37744141 C-834.74387451 284.70825684 -834.04310791 284.03907227 -833.32110596 283.34960938 C-827.76951599 278.08253086 -822.16477048 273.05601804 -816.17266846 268.29492188 C-813.39724609 266.03188518 -810.76742205 263.65068786 -808.13360596 261.22460938 C-803.32316323 256.8071324 -798.35390208 252.6552135 -793.27081299 248.55712891 C-791.40972528 247.04239334 -789.56603389 245.50789152 -787.72344971 243.97070312 C-778.8308395 236.56328448 -769.76899515 229.47683516 -760.46661377 222.59326172 C-757.70115095 220.52837299 -754.98237441 218.40673369 -752.25860596 216.28710938 C-739.07152454 206.11561518 -725.43095257 196.54655573 -711.63360596 187.22460938 C-710.84647217 186.69254883 -710.05933838 186.16048828 -709.24835205 185.61230469 C-671.42194722 160.10027527 -632.27932021 136.95964211 -591.63360596 116.22460938 C-590.92574951 115.86238281 -590.21789307 115.50015625 -589.48858643 115.12695312 C-585.72053793 113.203506 -581.93567867 111.31684826 -578.13751221 109.45361328 C-576.23249964 108.51856714 -574.32915201 107.58012809 -572.42657471 106.64013672 C-495.53560093 68.6740714 -413.72338511 40.32297253 -188.09362793 0.44464111 C-185.68704073 0.22938874 -183.28218491 0.00009633 -180.8772583 -0.23291016 C-121.56052258 -5.88599833 -59.30236482 -5.73345523 0 0 Z M-182.19439697 81 C-184.64535612 81.22569136 -187.09715083 81.43790862 -189.54962158 81.64648438 C-229.510345 85.07367713 -269.341575 90.9700173 -308.66497803 98.83190918 C-310.50620902 99.19919634 -312.34867465 99.56027887 -314.19122314 99.92089844 C-399.57025895 116.82539328 -482.7497196 151.57438014 -590.63360596 207.22460938 C-591.64213623 207.79598633 -592.6506665 208.36736328 -593.6897583 208.95605469 C-601.37215554 213.32050001 -609.01499393 217.74982932 -616.63360596 222.22460938 C-618.04947998 223.05484619 -618.04947998 223.05484619 -619.49395752 223.90185547 C-635.74047387 233.47786591 -651.39691577 243.9187149 -667.02891541 254.45593262 C-670.99449301 257.12886442 -674.97914901 259.77045761 -678.97344971 262.40039062 C-684.4851518 266.07207148 -689.76701841 269.99180307 -695.00860596 274.03710938 C-695.91634766 274.73360596 -696.82408936 275.43010254 -697.75933838 276.14770508 C-700.38817965 278.16811541 -703.01213571 280.19464769 -705.63360596 282.22460938 C-706.31278076 282.75022461 -706.99195557 283.27583984 -707.69171143 283.81738281 C-721.04718865 294.17786686 -734.15639788 304.85229656 -747.00518799 315.83447266 C-748.71014592 317.28994949 -750.41972926 318.7398699 -752.12969971 320.18945312 C-758.78705758 325.84729535 -765.31972311 331.60868079 -771.71954346 337.55664062 C-773.89760634 339.55076522 -776.0934036 341.50084988 -778.32403564 343.43432617 C-782.46349881 347.05213626 -786.50029741 350.766674 -790.50079346 354.53710938 C-791.22870087 355.22297119 -791.95660828 355.90883301 -792.70657349 356.61547852 C-800.42997346 363.92790025 -807.97540315 371.41492238 -815.48516846 378.94580078 C-817.78869722 381.25477173 -820.09763732 383.55823715 -822.40704346 385.86132812 C-823.90215643 387.35710078 -825.39695977 388.85318301 -826.89141846 390.34960938 C-827.90560349 391.36075806 -827.90560349 391.36075806 -828.9402771 392.39233398 C-832.82443215 396.29546156 -836.52074067 400.30923614 -840.11947632 404.47689819 C-841.79145428 406.40680862 -843.51652411 408.27458009 -845.28204346 410.11914062 C-845.89023926 410.75891846 -846.49843506 411.39869629 -847.12506104 412.05786133 C-847.74663086 412.71101318 -848.36820068 413.36416504 -849.00860596 414.03710938 C-854.09096133 419.41362438 -858.9175475 424.86336527 -863.52813721 430.65039062 C-865.80561442 433.43491286 -868.19672604 436.07874741 -870.63360596 438.72460938 C-875.52728855 444.05428827 -880.0956844 449.59157425 -884.63360596 455.22460938 C-885.66654829 456.48967736 -886.70046254 457.75395218 -887.73516846 459.01757812 C-893.56599619 466.14567877 -899.33642217 473.30639614 -904.89923096 480.64648438 C-906.8739391 483.24910863 -908.89275699 485.81168975 -910.93048096 488.36523438 C-929.72910421 512.17298158 -946.05412076 538.22018984 -961.63360596 564.22460938 C-962.16840576 565.1145459 -962.70320557 566.00448242 -963.25421143 566.92138672 C-970.14104754 578.40608738 -976.8630684 589.97272161 -983.27325439 601.73046875 C-984.22931826 603.48336689 -985.1885906 605.23451703 -986.15020752 606.984375 C-1002.83341813 637.36697125 -1018.00166028 668.35667858 -1031.63360596 700.22460938 C-1031.96253845 700.99184326 -1032.29147095 701.75907715 -1032.63037109 702.54956055 C-1068.09024223 785.38243276 -1092.00225256 871.05075478 -1110.83673096 1072.17773438 C-1110.84371218 1074.0367383 -1110.85075312 1075.895742 -1110.85784912 1077.75474548 C-1110.87711705 1083.66136983 -1110.88202492 1089.56795702 -1110.88360596 1095.47460938 C-1110.8841951 1096.48042179 -1110.88478424 1097.48623421 -1110.88539124 1098.52252579 C-1110.89773046 1128.36349454 -1110.62923307 1158.05274329 -1107.85821533 1187.78863525 C-1107.63281731 1190.23316256 -1107.42051855 1192.67851381 -1107.21173096 1195.12451172 C-1099.41055624 1285.71824952 -1079.5740265 1373.63545675 -981.63360596 1596.22460938 C-980.77218994 1597.74610596 -980.77218994 1597.74610596 -979.89337158 1599.29833984 C-975.5319299 1606.97489435 -971.10506067 1614.61165896 -966.63360596 1622.22460938 C-966.08011475 1623.16852539 -965.52662354 1624.11244141 -964.95635986 1625.08496094 C-955.38034942 1641.33147729 -944.93950043 1656.98791919 -934.40228271 1672.61991882 C-931.72935091 1676.58549643 -929.08775772 1680.57015243 -926.45782471 1684.56445312 C-922.78614385 1690.07615522 -918.86641227 1695.35802183 -914.82110596 1700.59960938 C-914.12460937 1701.50735107 -913.42811279 1702.41509277 -912.71051025 1703.3503418 C-910.69009992 1705.97918307 -908.66356764 1708.60313913 -906.63360596 1711.22460938 C-906.10799072 1711.90378418 -905.58237549 1712.58295898 -905.04083252 1713.28271484 C-894.68034847 1726.63819206 -884.00591877 1739.7474013 -873.02374268 1752.59619141 C-871.56826585 1754.30114934 -870.11834543 1756.01073268 -868.66876221 1757.72070312 C-863.01091998 1764.37806099 -857.24953454 1770.91072653 -851.30157471 1777.31054688 C-849.30745011 1779.48860976 -847.35736545 1781.68440702 -845.42388916 1783.91503906 C-841.80607908 1788.05450223 -838.09154133 1792.09130083 -834.32110596 1796.09179688 C-833.63524414 1796.81970428 -832.94938232 1797.54761169 -832.24273682 1798.2975769 C-824.93031508 1806.02097687 -817.44329295 1813.56640657 -809.91241455 1821.07617188 C-807.6034436 1823.37970064 -805.29997818 1825.68864074 -802.99688721 1827.99804688 C-801.50111455 1829.49315984 -800.00503232 1830.98796319 -798.50860596 1832.48242188 C-797.49745728 1833.4966069 -797.49745728 1833.4966069 -796.46588135 1834.53128052 C-792.56275377 1838.41543557 -788.54897919 1842.11174408 -784.38131714 1845.71047974 C-782.45140671 1847.3824577 -780.58363524 1849.10752753 -778.73907471 1850.87304688 C-778.09929687 1851.48124268 -777.45951904 1852.08943848 -776.800354 1852.71606445 C-775.82062622 1853.64841919 -775.82062622 1853.64841919 -774.82110596 1854.59960938 C-769.44459096 1859.68196475 -763.99485006 1864.50855092 -758.20782471 1869.11914062 C-755.42330247 1871.39661784 -752.77946792 1873.78772945 -750.13360596 1876.22460938 C-744.80392706 1881.11829197 -739.26664108 1885.68668781 -733.63360596 1890.22460938 C-732.36853797 1891.25755171 -731.10426315 1892.29146595 -729.84063721 1893.32617188 C-722.71253656 1899.1569996 -715.5518192 1904.92742559 -708.21173096 1910.49023438 C-705.60910671 1912.46494252 -703.04652559 1914.48376041 -700.49298096 1916.52148438 C-676.68523375 1935.32010763 -650.63802549 1951.64512417 -624.63360596 1967.22460938 C-623.74366943 1967.75940918 -622.85373291 1968.29420898 -621.93682861 1968.84521484 C-610.45212795 1975.73205096 -598.88549372 1982.45407182 -587.12774658 1988.86425781 C-585.37484844 1989.82032168 -583.6236983 1990.77959401 -581.87384033 1991.74121094 C-551.49276965 2008.42358386 -520.50495413 2023.6037331 -488.63360596 2037.22460938 C-487.85930237 2037.55589844 -487.08499878 2037.8871875 -486.28723145 2038.22851562 C-403.42121274 2073.61302779 -317.82157747 2097.59150805 -116.68048096 2116.42773438 C-114.82147703 2116.4347156 -112.96247334 2116.44175654 -111.10346985 2116.44885254 C-105.19684551 2116.46812047 -99.29025831 2116.47302834 -93.38360596 2116.47460938 C-92.37779354 2116.47519852 -91.37198112 2116.47578766 -90.33568954 2116.47639465 C-60.49472079 2116.48873388 -30.80547205 2116.22023648 -1.06958008 2113.44921875 C1.37494723 2113.22382073 3.82029848 2113.01152197 6.26629639 2112.80273438 C96.86003418 2105.00155966 184.77724142 2085.16502992 407.36639404 1987.22460938 C408.3807251 1986.65033203 409.39505615 1986.07605469 410.44012451 1985.484375 C418.11667902 1981.12293331 425.75344363 1976.69606409 433.36639404 1972.22460938 C434.31031006 1971.67111816 435.25422607 1971.11762695 436.22674561 1970.54736328 C452.47326196 1960.97135284 468.12970385 1950.53050385 483.76170349 1939.99328613 C487.7272811 1937.32035433 491.7119371 1934.67876114 495.70623779 1932.04882812 C501.21793989 1928.37714727 506.4998065 1924.45741568 511.74139404 1920.41210938 C512.64913574 1919.71561279 513.55687744 1919.01911621 514.49212646 1918.30151367 C517.12096774 1916.28110334 519.7449238 1914.25457106 522.36639404 1912.22460938 C523.04556885 1911.69899414 523.72474365 1911.17337891 524.42449951 1910.63183594 C537.77997673 1900.27135189 550.88918596 1889.59692219 563.73797607 1878.61474609 C565.442934 1877.15926926 567.15251734 1875.70934885 568.86248779 1874.25976562 C575.51984566 1868.6019234 582.0525112 1862.84053796 588.45233154 1856.89257812 C590.63039443 1854.89845353 592.82619169 1852.94836887 595.05682373 1851.01489258 C599.1962869 1847.39708249 603.2330855 1843.68254475 607.23358154 1839.91210938 C607.96148895 1839.22624756 608.68939636 1838.54038574 609.43936157 1837.83374023 C617.16276154 1830.5213185 624.70819124 1823.03429637 632.21795654 1815.50341797 C634.52148531 1813.19444702 636.8304254 1810.8909816 639.13983154 1808.58789062 C640.63494451 1807.09211797 642.12974785 1805.59603574 643.62420654 1804.09960938 C644.3003299 1803.42551025 644.97645325 1802.75141113 645.67306519 1802.05688477 C649.55722024 1798.15375719 653.25352875 1794.13998261 656.8522644 1789.97232056 C658.52424237 1788.04241013 660.2493122 1786.17463866 662.01483154 1784.33007812 C662.62302734 1783.69030029 663.23122314 1783.05052246 663.85784912 1782.39135742 C664.47941895 1781.73820557 665.10098877 1781.08505371 665.74139404 1780.41210938 C670.82374942 1775.03559437 675.65033559 1769.58585348 680.26092529 1763.79882812 C682.53840251 1761.01430589 684.92951412 1758.37047134 687.36639404 1755.72460938 C692.26007664 1750.39493048 696.82847248 1744.8576445 701.36639404 1739.22460938 C702.39933637 1737.95954139 703.43325062 1736.69526657 704.46795654 1735.43164062 C710.29878427 1728.30353998 716.06921026 1721.14282261 721.63201904 1713.80273438 C723.60672718 1711.20011012 725.62554508 1708.637529 727.66326904 1706.08398438 C746.46189229 1682.27623717 762.78690884 1656.22902891 778.36639404 1630.22460938 C778.90119385 1629.33467285 779.43599365 1628.44473633 779.98699951 1627.52783203 C786.87383562 1616.04313137 793.59585649 1604.47649714 800.00604248 1592.71875 C800.96210635 1590.96585186 801.92137868 1589.21470172 802.88299561 1587.46484375 C819.56536853 1557.08377307 834.74551777 1526.09595755 848.36639404 1494.22460938 C848.69768311 1493.45030579 849.02897217 1492.6760022 849.37030029 1491.87823486 C884.75481246 1409.01221616 908.73329272 1323.41258088 927.56951904 1122.27148438 C927.57650026 1120.41248045 927.5835412 1118.55347675 927.59063721 1116.69447327 C927.60990513 1110.78784892 927.614813 1104.88126173 927.61639404 1098.97460938 C927.61698318 1097.96879696 927.61757233 1096.96298454 927.61817932 1095.92669296 C927.63051855 1066.08572421 927.36202115 1036.39647546 924.59100342 1006.6605835 C924.3656054 1004.21605619 924.15330664 1001.77070494 923.94451904 999.32470703 C916.14334433 908.73096923 896.30681459 820.813762 798.36639404 598.22460938 C797.50497803 596.70311279 797.50497803 596.70311279 796.62615967 595.15087891 C792.26471798 587.4743244 787.83784875 579.83755979 783.36639404 572.22460938 C782.81290283 571.28069336 782.25941162 570.33677734 781.68914795 569.36425781 C772.11313751 553.11774146 761.67228852 537.46129956 751.1350708 521.82929993 C748.462139 517.86372232 745.82054581 513.87906632 743.19061279 509.88476562 C739.51893194 504.37306353 735.59920035 499.09119692 731.55389404 493.84960938 C730.85739746 492.94186768 730.16090088 492.03412598 729.44329834 491.09887695 C727.42288801 488.47003568 725.39635572 485.84607962 723.36639404 483.22460938 C722.57797119 482.20584717 722.57797119 482.20584717 721.77362061 481.16650391 C711.41313656 467.81102669 700.73870686 454.70181745 689.75653076 441.85302734 C688.30105393 440.14806941 686.85113352 438.43848607 685.40155029 436.72851562 C679.74370807 430.07115776 673.98232262 423.53849222 668.03436279 417.13867188 C666.04023819 414.96060899 664.09015353 412.76481173 662.15667725 410.53417969 C658.53886716 406.39471652 654.82432942 402.35791792 651.05389404 398.35742188 C650.36803223 397.62951447 649.68217041 396.90160706 648.9755249 396.15164185 C641.66310317 388.42824188 634.17608104 380.88281218 626.64520264 373.37304688 C624.33623169 371.06951811 622.03276627 368.76057801 619.72967529 366.45117188 C618.23390264 364.95605891 616.73782041 363.46125556 615.24139404 361.96679688 C614.56729492 361.29067352 613.8931958 360.61455017 613.19866943 359.91793823 C609.29554185 356.03378318 605.28176728 352.33747467 601.11410522 348.73873901 C599.1841948 347.06676105 597.31642333 345.34169122 595.47186279 343.57617188 C594.83208496 342.96797607 594.19230713 342.35978027 593.53314209 341.7331543 C592.87999023 341.11158447 592.22683838 340.49001465 591.55389404 339.84960938 C586.17737904 334.767254 580.72763815 329.94066783 574.94061279 325.33007812 C572.15609056 323.05260091 569.51225601 320.6614893 566.86639404 318.22460938 C561.53671515 313.33092678 555.99942917 308.76253094 550.36639404 304.22460938 C549.10132605 303.19166704 547.83705124 302.1577528 546.57342529 301.12304688 C539.44532465 295.29221915 532.28460728 289.52179316 524.94451904 283.95898438 C522.34189479 281.98427623 519.77931367 279.96545834 517.22576904 277.92773438 C493.41802184 259.12911112 467.37081358 242.80409458 441.36639404 227.22460938 C440.47645752 226.68980957 439.586521 226.15500977 438.6696167 225.60400391 C427.18491604 218.71716779 415.61828181 211.99514693 403.86053467 205.58496094 C402.10763652 204.62889707 400.35648639 203.66962474 398.60662842 202.70800781 C368.22403217 186.0247972 337.23432484 170.85655505 305.36639404 157.22460938 C304.21554321 156.73121063 304.21554321 156.73121063 303.04144287 156.22784424 C220.20857066 120.7679731 134.54024864 96.85596277 -66.58673096 78.02148438 C-68.44573488 78.01450315 -70.30473858 78.00746221 -72.16374207 78.00036621 C-78.07036641 77.98109828 -83.9769536 77.97619041 -89.88360596 77.97460938 C-90.88941837 77.97402023 -91.89523079 77.97343109 -92.93152237 77.9728241 C-122.77163134 77.96048523 -152.45930817 78.23036689 -182.19439697 81 Z " fill="#3664A2" transform="translate(1291.6336059570313,102.775390625)"/>
<path d="M0 0 C0.66350716 0.00011959 1.32701431 0.00023918 2.01062775 0.0003624 C39.11730301 0.00879475 76.15133366 1.33277339 113.1875 3.625 C114.10013611 3.68039948 115.01277222 3.73579895 115.95306396 3.7928772 C131.71011049 4.76688577 147.27779084 6.50297759 163 8.1875 C163 74.1875 163 140.1875 163 208.1875 C96.375 208.5 96.375 208.5 75.46630859 208.57543945 C69.1917147 208.61207425 69.1917147 208.61207425 62.91714478 208.6525116 C60.15809472 208.67019227 57.3991474 208.67999755 54.64004517 208.68461609 C21.81998303 208.7480217 -14.99268251 209.79310696 -40 234.1875 C-61.19480431 256.32179032 -63.08800839 288.92736729 -63.20532227 317.8918457 C-63.21506344 319.44533886 -63.2252102 320.99882951 -63.23572445 322.55231762 C-63.26251098 326.67247388 -63.28382432 330.79264054 -63.30391693 334.91283417 C-63.32369952 338.79424654 -63.3485342 342.67562058 -63.3729248 346.55700684 C-63.44113344 357.87130876 -63.50133892 369.18565779 -63.5625 380.5 C-63.706875 405.806875 -63.85125 431.11375 -64 457.1875 C8.27 457.1875 80.54 457.1875 155 457.1875 C153.85130993 474.41785106 153.85130993 474.41785106 152.89941406 481.5816803 C152.73993223 482.8257458 152.73993223 482.8257458 152.57722855 484.09494394 C152.22771976 486.81265874 151.87171974 489.52947888 151.515625 492.24633789 C151.26055177 494.21903481 151.00588403 496.19178419 150.75158691 498.1645813 C150.06569535 503.47645785 149.37411162 508.78757882 148.68138123 514.09856725 C147.95527542 519.67267166 147.23429652 525.24743929 146.51269531 530.8221283 C145.30189443 540.17047445 144.08769136 549.51837335 142.87109375 558.8659668 C141.31003668 570.86026553 139.75425662 582.85524236 138.20025635 594.85045719 C136.86180887 605.18182254 135.52137788 615.51293037 134.18040466 625.84396815 C133.89307915 628.05775795 133.60581736 630.27155602 133.31861877 632.48536229 C132.50079386 638.7892656 131.68191253 645.09302968 130.86125183 651.39656448 C130.61296377 653.30488881 130.3650401 655.2132606 130.11750793 657.12168312 C129.77955317 659.72664675 129.44024826 662.33143104 129.10058594 664.93617249 C128.9542314 666.06773013 128.9542314 666.06773013 128.8049202 667.22214752 C128.28059894 671.23033762 127.66501831 675.19739015 127 679.1875 C63.97 679.1875 0.94 679.1875 -64 679.1875 C-64 867.2875 -64 1055.3875 -64 1249.1875 C-140.23 1249.1875 -216.46 1249.1875 -295 1249.1875 C-295 1061.0875 -295 872.9875 -295 679.1875 C-358.36 679.1875 -421.72 679.1875 -487 679.1875 C-487 605.9275 -487 532.6675 -487 457.1875 C-423.64 457.1875 -360.28 457.1875 -295 457.1875 C-295.07889564 401.78440386 -295.07889564 401.78440386 -295.18017578 346.38134766 C-295.18920898 335.5534668 -295.18920898 335.5534668 -295.19088745 330.45028687 C-295.19271638 326.96092064 -295.20006908 323.47161815 -295.21115112 319.98226929 C-295.26622558 301.79963265 -295.17467511 283.66887881 -294.09716797 265.51318359 C-294.05715676 264.83000793 -294.01714554 264.14683226 -293.97592187 263.4429543 C-293.13906851 249.56528876 -291.4133804 235.87518161 -289 222.1875 C-288.8045459 221.06778809 -288.6090918 219.94807617 -288.40771484 218.79443359 C-283.57464304 192.00332308 -275.17537746 165.56601455 -263 141.1875 C-262.48735596 140.13199951 -262.48735596 140.13199951 -261.96435547 139.05517578 C-248.21314194 110.85574265 -227.98841077 84.46053402 -204 64.1875 C-203.41774658 63.6937085 -202.83549316 63.19991699 -202.2355957 62.69116211 C-157.51940059 25.20403171 -100.67449029 6.01865988 -43 1.1875 C-42.04867188 1.09992432 -41.09734375 1.01234863 -40.1171875 0.92211914 C-26.76726431 -0.15297166 -13.38396266 -0.01025091 0 0 Z " fill="#3664A2" transform="translate(1356,625.8125)"/>
</svg>
