<?xml version="1.0" encoding="UTF-8"?>
<svg version="1.1" xmlns="http://www.w3.org/2000/svg" width="154" height="144">
<path d="M0 0 C3.65289011 1.5357496 6.32730754 3.96370871 9.2265625 6.59375 C10.47437663 7.69501262 11.72308396 8.79526396 12.97265625 9.89453125 C13.89473877 10.71171631 13.89473877 10.71171631 14.83544922 11.54541016 C17.27317032 13.68254414 19.77370245 15.73638895 22.2890625 17.78125 C23.15917969 18.48894531 24.02929688 19.19664063 24.92578125 19.92578125 C26.25029297 20.99892578 26.25029297 20.99892578 27.6015625 22.09375 C29.60290813 23.71709244 31.60292531 25.34207413 33.6015625 26.96875 C34.931875 28.04769531 34.931875 28.04769531 36.2890625 29.1484375 C37.0521875 29.79039063 37.8153125 30.43234375 38.6015625 31.09375 C39.13604004 31.46781982 39.67051758 31.84188965 40.22119141 32.22729492 C42.40202636 35.17608927 42.02904458 38.37477651 42 41.90234375 C42.00287018 42.66547379 42.00574036 43.42860382 42.00869751 44.21485901 C42.01073773 45.82789858 42.00521074 47.44096292 41.99267578 49.05395508 C41.97664246 51.51895744 41.99251326 53.98231477 42.01171875 56.44726562 C42.00973588 58.01562861 42.00589129 59.58399058 42 61.15234375 C42.00607269 61.88786972 42.01214539 62.62339569 42.0184021 63.38121033 C41.97712962 66.39592552 41.7332727 68.79680817 40.50512695 71.56567383 C37.63623892 73.86865833 35.38023551 73.54571073 31.74609375 73.484375 C31.08445724 73.47871521 30.42282074 73.47305542 29.74113464 73.46722412 C27.63136918 73.44486247 25.52331298 73.39467371 23.4140625 73.34375 C21.98244644 73.3236844 20.5508037 73.30543372 19.11914062 73.2890625 C15.61209584 73.24840111 12.1087379 73.17013132 8.6015625 73.09375 C8.6015625 64.18375 8.6015625 55.27375 8.6015625 46.09375 C2.6615625 46.09375 -3.2784375 46.09375 -9.3984375 46.09375 C-9.3984375 55.00375 -9.3984375 63.91375 -9.3984375 73.09375 C-13.63434479 73.11668813 -17.87003715 73.13660661 -22.10595703 73.14868164 C-23.5473707 73.15371474 -24.98877926 73.16054173 -26.43017578 73.16918945 C-28.50033835 73.18129983 -30.57043351 73.18698847 -32.640625 73.19140625 C-33.8869873 73.19664307 -35.13334961 73.20187988 -36.41748047 73.20727539 C-39.3984375 73.09375 -39.3984375 73.09375 -41.3984375 72.09375 C-43.30968881 66.35999608 -42.94620326 59.99164115 -43.078125 53.98095703 C-43.12472038 52.31614296 -43.19283269 50.65178192 -43.28320312 48.98876953 C-44.0187952 35.1964181 -44.0187952 35.1964181 -40.08544922 30.09228516 C-37.29389537 27.80589202 -34.48552186 25.95357692 -31.3984375 24.09375 C-29.58583264 22.66152474 -27.79109545 21.20609358 -26.0234375 19.71875 C-25.12625 18.98527344 -24.2290625 18.25179687 -23.3046875 17.49609375 C-19.47495777 14.33038974 -15.68310861 11.1211624 -11.90087891 7.89892578 C-10.40420572 6.62565066 -8.90144315 5.35954388 -7.3984375 4.09375 C-6.55023438 3.30613281 -5.70203125 2.51851562 -4.828125 1.70703125 C-2.3984375 0.09375 -2.3984375 0.09375 0 0 Z " fill="#2F6954" transform="translate(74.3984375,42.90625)"/>
<path d="M0 0 C4.45514314 2.7104717 8.41287497 5.88463948 12.375 9.25 C12.92027344 9.70890625 13.46554688 10.1678125 14.02734375 10.640625 C15.35386136 11.75769246 16.67726419 12.87845702 18 14 C18.07347656 12.73542969 18.07347656 12.73542969 18.1484375 11.4453125 C18.22320312 10.34960938 18.29796875 9.25390625 18.375 8.125 C18.44460937 7.03445312 18.51421875 5.94390625 18.5859375 4.8203125 C19 2 19 2 21 0 C23.7122125 -0.22504349 26.28873185 -0.32434995 29 -0.3125 C29.73734375 -0.32861328 30.4746875 -0.34472656 31.234375 -0.36132812 C33.375 -0.36328125 33.375 -0.36328125 37 0 C39.45286296 3.67929445 39.23228878 5.47377907 39.1953125 9.85546875 C39.1924826 10.51710526 39.18965271 11.17874176 39.18673706 11.86042786 C39.17555918 13.96963737 39.15045981 16.07841925 39.125 18.1875 C39.11496707 19.61913448 39.10584176 21.05077564 39.09765625 22.48242188 C39.07562795 25.98841977 39.04111485 29.49416813 39 33 C39.59780273 33.28085449 40.19560547 33.56170898 40.81152344 33.85107422 C43.9701611 35.50932375 46.55169311 37.82046517 49.25 40.125 C49.80429688 40.59292969 50.35859375 41.06085938 50.9296875 41.54296875 C52.28947326 42.69175328 53.64515165 43.84539653 55 45 C54.29296777 49.83545033 52.64468616 51.7291278 49 55 C44.1680507 53.48888477 41.07472883 50.74062853 37.375 47.4375 C36.12457643 46.34274575 34.87326545 45.24900432 33.62109375 44.15625 C33.0060498 43.61742187 32.39100586 43.07859375 31.75732422 42.5234375 C29.35822362 40.44363926 26.90394264 38.43673104 24.4375 36.4375 C20.92423785 33.58750858 17.45273785 30.69722374 14.01171875 27.76098633 C11.35224749 25.49393992 8.67782218 23.24535736 6 21 C5.18789062 20.31808594 4.37578125 19.63617188 3.5390625 18.93359375 C2.84554687 18.37800781 2.15203125 17.82242188 1.4375 17.25 C0.85871094 16.78078125 0.27992187 16.3115625 -0.31640625 15.828125 C-1.97803227 14.81242496 -1.97803227 14.81242496 -3.89990234 15.28417969 C-6.21857343 16.07450097 -7.4689114 16.99579761 -9.28515625 18.625 C-9.89246582 19.16205566 -10.49977539 19.69911133 -11.12548828 20.25244141 C-11.76470215 20.82913574 -12.40391602 21.40583008 -13.0625 22 C-14.41431396 23.19650055 -15.76718451 24.39180839 -17.12109375 25.5859375 C-17.78351074 26.17213867 -18.44592773 26.75833984 -19.12841797 27.36230469 C-22.42671768 30.2484245 -25.83973649 32.98953341 -29.24609375 35.74609375 C-32.42966846 38.35165773 -35.55815268 41.01733329 -38.6875 43.6875 C-43.3325727 47.64507187 -48.05991411 51.41601612 -53 55 C-56.73745963 53.28470274 -58.7453688 51.50720409 -61 48 C-60.47563244 43.2696953 -57.10108393 41.15285337 -53.625 38.3125 C-52.99086182 37.78213135 -52.35672363 37.2517627 -51.70336914 36.70532227 C-49.81047178 35.12659874 -47.90732986 33.56123972 -46 32 C-45.03707031 31.20851563 -44.07414062 30.41703125 -43.08203125 29.6015625 C-41.31652601 28.15682114 -39.5482829 26.71541916 -37.77734375 25.27734375 C-34.65602836 22.71795293 -31.57577155 20.11375159 -28.5 17.5 C-24.34982013 13.9798845 -20.19174666 10.47058594 -16 7 C-15.154375 6.29875 -14.30875 5.5975 -13.4375 4.875 C-8.93847991 1.41421531 -5.81781675 -0.83111668 0 0 Z " fill="#2F6953" transform="translate(77,24)"/>
<path d="M0 0 C0 0.66 0 1.32 0 2 C1.98 2.66 3.96 3.32 6 4 C4.03617993 5.50559539 2.21736634 6.89131683 0 8 C0 8.66 0 9.32 0 10 C-0.99 10 -1.98 10 -3 10 C-3.04447266 11.05380859 -3.04447266 11.05380859 -3.08984375 12.12890625 C-4.4250307 16.34076209 -7.19435554 18.21910548 -10.5625 20.9375 C-11.51116943 21.72592285 -11.51116943 21.72592285 -12.47900391 22.53027344 C-16.88055468 26.16462276 -21.36722228 29.66440004 -26 33 C-29.73745963 31.28470274 -31.7453688 29.50720409 -34 26 C-33.65103394 22.70204779 -32.5613058 21.24015619 -30.05078125 19.16015625 C-29.44943359 18.65419922 -28.84808594 18.14824219 -28.22851562 17.62695312 C-27.59623047 17.11068359 -26.96394531 16.59441406 -26.3125 16.0625 C-25.69955078 15.55009766 -25.08660156 15.03769531 -24.45507812 14.50976562 C-23.23489212 13.49143435 -22.00998996 12.47872557 -20.78027344 11.47192383 C-19.60873131 10.50329691 -18.449953 9.51898627 -17.30566406 8.51831055 C-13.30054098 5.0326675 -13.30054098 5.0326675 -10.125 4.6875 C-9.42375 4.790625 -8.7225 4.89375 -8 5 C-7.7525 4.360625 -7.505 3.72125 -7.25 3.0625 C-6 1 -6 1 -4 0.25 C-2 0 -2 0 0 0 Z " fill="#376F59" transform="translate(50,46)"/>
<path d="M0 0 C0.33 0 0.66 0 1 0 C1 9.9 1 19.8 1 30 C2.32 30.66 3.64 31.32 5 32 C7.12284066 33.67737409 9.19465905 35.36960115 11.25 37.125 C11.80429688 37.59292969 12.35859375 38.06085938 12.9296875 38.54296875 C14.28947326 39.69175328 15.64515165 40.84539653 17 42 C16.29296777 46.83545033 14.64468616 48.7291278 11 52 C5.91809087 50.46473873 2.57522114 47.32630342 -1.3125 43.875 C-1.95767578 43.31167969 -2.60285156 42.74835938 -3.26757812 42.16796875 C-4.85026301 40.78458492 -6.42585141 39.39308955 -8 38 C-7.67 36.35 -7.34 34.7 -7 33 C-5.515 32.505 -5.515 32.505 -4 32 C-2.41727399 30.41727399 -2.65264253 28.61965997 -2.4375 26.4375 C-2.35371094 25.61121094 -2.26992187 24.78492187 -2.18359375 23.93359375 C-2.12300781 23.29550781 -2.06242187 22.65742187 -2 22 C-1.67 22 -1.34 22 -1 22 C-0.67 14.74 -0.34 7.48 0 0 Z " fill="#28654E" transform="translate(115,27)"/>
<path d="M0 0 C0.66 0.33 1.32 0.66 2 1 C0.68 2.65 -0.64 4.3 -2 6 C-0.68 6.66 0.64 7.32 2 8 C1.67 9.98 1.34 11.96 1 14 C1.66 14.33 2.32 14.66 3 15 C-0.3 17.64 -3.6 20.28 -7 23 C-11.03164412 20.98417794 -12.60857906 19.71998812 -15 16 C-14.65962895 12.58701051 -13.42840681 11.12985069 -10.83984375 8.984375 C-10.21142578 8.45585938 -9.58300781 7.92734375 -8.93554688 7.3828125 C-7.94651367 6.57457031 -7.94651367 6.57457031 -6.9375 5.75 C-6.27427734 5.19570313 -5.61105469 4.64140625 -4.92773438 4.0703125 C-3.2920292 2.70526358 -1.64690049 1.35152091 0 0 Z " fill="#3A715C" transform="translate(31,56)"/>
<path d="M0 0 C0.66 0.33 1.32 0.66 2 1 C0.68 2.65 -0.64 4.3 -2 6 C1.01031744 6.93423645 1.86650268 7.04449911 5 6 C7.6875 6.9375 7.6875 6.9375 10 8 C6.73561968 11.373193 3.33545702 14.5779144 -0.125 17.75 C-0.97320312 18.52859375 -1.82140625 19.3071875 -2.6953125 20.109375 C-5 22 -5 22 -8 23 C-8 22.01 -8 21.02 -8 20 C-7.01 20 -6.02 20 -5 20 C-5.33 19.01 -5.66 18.02 -6 17 C-4.68 16.34 -3.36 15.68 -2 15 C-2.495 14.54625 -2.99 14.0925 -3.5 13.625 C-5 12 -5 12 -5 10 C-9.39314793 11.01160848 -9.39314793 11.01160848 -12.375 14.125 C-12.58125 14.74375 -12.7875 15.3625 -13 16 C-13.99 15.34 -14.98 14.68 -16 14 C-10.74557475 9.23363401 -5.49783089 4.48507257 0 0 Z " fill="#3C715D" transform="translate(55,36)"/>
<path d="M0 0 C0.33 0 0.66 0 1 0 C1 9.9 1 19.8 1 30 C2.32 30.66 3.64 31.32 5 32 C3.515 32.495 3.515 32.495 2 33 C2 33.66 2 34.32 2 35 C0.68 35 -0.64 35 -2 35 C-2 35.66 -2 36.32 -2 37 C-2.66 37 -3.32 37 -4 37 C-4 37.66 -4 38.32 -4 39 C-3.01 39.33 -2.02 39.66 -1 40 C-1.33 40.66 -1.66 41.32 -2 42 C-5.16115776 40.63016497 -5.9927092 40.0109362 -8 37 C-7.8125 34.875 -7.8125 34.875 -7 33 C-5.515 32.505 -5.515 32.505 -4 32 C-2.41727399 30.41727399 -2.65264253 28.61965997 -2.4375 26.4375 C-2.35371094 25.61121094 -2.26992187 24.78492187 -2.18359375 23.93359375 C-2.12300781 23.29550781 -2.06242187 22.65742187 -2 22 C-1.67 22 -1.34 22 -1 22 C-0.67 14.74 -0.34 7.48 0 0 Z " fill="#729B87" transform="translate(115,27)"/>
<path d="M0 0 C0 0.66 0 1.32 0 2 C1.98 2.66 3.96 3.32 6 4 C1.97918458 7.15921211 -2.1545014 9.34232943 -7 11 C-7.66 10.67 -8.32 10.34 -9 10 C-9 9.34 -9 8.68 -9 8 C-10.98 8.99 -10.98 8.99 -13 10 C-13 9.01 -13 8.02 -13 7 C-12.38125 6.71125 -11.7625 6.4225 -11.125 6.125 C-8.58408581 4.77981013 -7.28874849 3.57749699 -6 1 C-3.911361 0.32624548 -2.19636905 0 0 0 Z " fill="#27654E" transform="translate(50,46)"/>
<path d="M0 0 C0.33 1.32 0.66 2.64 1 4 C2.98 3.34 4.96 2.68 7 2 C7.12375 3.134375 7.2475 4.26875 7.375 5.4375 C7.58125 6.613125 7.7875 7.78875 8 9 C8.66 9.33 9.32 9.66 10 10 C10 10.99 10 11.98 10 13 C5.49366043 11.03302961 2.18919648 7.80684882 -1.46484375 4.58203125 C-3.90402852 2.70433987 -3.90402852 2.70433987 -6.81640625 3.26171875 C-7.53699219 3.50535156 -8.25757812 3.74898437 -9 4 C-9 3.34 -9 2.68 -9 2 C-9.66 2 -10.32 2 -11 2 C-11 1.34 -11 0.68 -11 0 C-3.57142857 -1.28571429 -3.57142857 -1.28571429 0 0 Z " fill="#4E7B6B" transform="translate(79,36)"/>
<path d="M0 0 C4.51045941 2.46025059 8.18504423 5.60282037 12 9 C11.64950425 12.24208567 11.43778819 13.61527704 8.9375 15.8125 C8.298125 16.204375 7.65875 16.59625 7 17 C6.67 16.01 6.34 15.02 6 14 C6.66 14 7.32 14 8 14 C8 12.68 8 11.36 8 10 C6.35 9.67 4.7 9.34 3 9 C2.67 8.01 2.34 7.02 2 6 C2.33 5.34 2.66 4.68 3 4 C2.01 4 1.02 4 0 4 C0 2.68 0 1.36 0 0 Z " fill="#5D8575" transform="translate(120,60)"/>
<path d="M0 0 C1.32860925 0.35169068 2.66158328 0.68770276 4 1 C4 3.33333333 4 5.66666667 4 8 C4.99 8.33 5.98 8.66 7 9 C6.01 9.33 5.02 9.66 4 10 C1.5546875 8.41796875 1.5546875 8.41796875 -1.125 6.1875 C-2.01445313 5.45917969 -2.90390625 4.73085937 -3.8203125 3.98046875 C-6 2 -6 2 -7 0 C-2.25 -1.125 -2.25 -1.125 0 0 Z " fill="#3B7360" transform="translate(120,69)"/>
<path d="M0 0 C0.66 0.33 1.32 0.66 2 1 C1.01 2.1446875 1.01 2.1446875 0 3.3125 C-2.29850538 5.84277939 -2.29850538 5.84277939 -2 9 C-2.66 9 -3.32 9 -4 9 C-4.33 9.66 -4.66 10.32 -5 11 C-5.969375 11.12375 -6.93875 11.2475 -7.9375 11.375 C-11.11582828 11.6491645 -11.11582828 11.6491645 -12.375 14.0625 C-12.58125 14.701875 -12.7875 15.34125 -13 16 C-13.99 15.34 -14.98 14.68 -16 14 C-10.74557475 9.23363401 -5.49783089 4.48507257 0 0 Z " fill="#5F8475" transform="translate(55,36)"/>
<path d="M0 0 C1.47668858 0.0133035 2.95331108 0.03716415 4.4296875 0.0703125 C5.18378906 0.07933594 5.93789062 0.08835937 6.71484375 0.09765625 C8.57826004 0.1212438 10.44151343 0.15711531 12.3046875 0.1953125 C12.3046875 1.1853125 12.3046875 2.1753125 12.3046875 3.1953125 C7.0246875 3.1953125 1.7446875 3.1953125 -3.6953125 3.1953125 C-4.0253125 7.4853125 -4.3553125 11.7753125 -4.6953125 16.1953125 C-5.3553125 15.8653125 -6.0153125 15.5353125 -6.6953125 15.1953125 C-6.58154633 13.06968147 -6.45395619 10.9447864 -6.3203125 8.8203125 C-6.25070313 7.63695312 -6.18109375 6.45359375 -6.109375 5.234375 C-5.48587362 0.65811018 -4.59468916 0.24284826 0 0 Z " fill="#87A799" transform="translate(101.6953125,23.8046875)"/>
<path d="M0 0 C6.63709738 0.76581893 11.41425691 6.08292034 16.25 10.375 C14.27 11.365 14.27 11.365 12.25 12.375 C11.84007813 11.89289062 11.43015625 11.41078125 11.0078125 10.9140625 C10.46898438 10.28242187 9.93015625 9.65078125 9.375 9 C8.57449219 8.06027344 8.57449219 8.06027344 7.7578125 7.1015625 C4.9976616 3.9409752 3.79573992 3.10749199 -0.375 2.75 C-1.60089844 2.63785156 -1.60089844 2.63785156 -2.8515625 2.5234375 C-3.47804688 2.47445313 -4.10453125 2.42546875 -4.75 2.375 C-2.75 0.375 -2.75 0.375 0 0 Z " fill="#78988B" transform="translate(73.75,23.625)"/>
<path d="M0 0 C0.99 0 1.98 0 3 0 C3.391875 0.9075 3.78375 1.815 4.1875 2.75 C6.0787372 6.14118394 7.8554673 7.79032837 11 10 C10.34 11.32 9.68 12.64 9 14 C7 12 7 12 6 10 C5.34 9.67 4.68 9.34 4 9 C1.3125 6.125 1.3125 6.125 -1 3 C-0.67 2.01 -0.34 1.02 0 0 Z " fill="#22654D" transform="translate(99,50)"/>
<path d="M0 0 C1.32 1.32 2.64 2.64 4 4 C3.34 5.65 2.68 7.3 2 9 C2.66 9.33 3.32 9.66 4 10 C2.02 10.99 2.02 10.99 0 12 C-0.33 10.68 -0.66 9.36 -1 8 C-1.66 8 -2.32 8 -3 8 C-3.75 6.25 -3.75 6.25 -4 4 C-2.0625 1.75 -2.0625 1.75 0 0 Z " fill="#24664E" transform="translate(80,28)"/>
<path d="M0 0 C0.33 1.98 0.66 3.96 1 6 C0.01 6.495 0.01 6.495 -1 7 C-1.66 6.67 -2.32 6.34 -3 6 C-3.33 6.66 -3.66 7.32 -4 8 C-4.99 8.495 -4.99 8.495 -6 9 C-6 8.34 -6 7.68 -6 7 C-6.99 7.33 -7.98 7.66 -9 8 C-7.07834179 2.53066508 -6.10288444 0 0 0 Z " fill="#27654F" transform="translate(61,36)"/>
<path d="M0 0 C0.57878906 0.22945312 1.15757813 0.45890625 1.75390625 0.6953125 C-1.24609375 2.6953125 -1.24609375 2.6953125 -4.24609375 3.6953125 C-5.15447138 6.17270604 -5.24609375 8.03110734 -5.24609375 10.6953125 C-6.05046875 10.3859375 -6.05046875 10.3859375 -6.87109375 10.0703125 C-10.07876683 9.5638378 -12.25926441 10.54131025 -15.24609375 11.6953125 C-13.6021834 10.00002995 -11.93977778 8.34025742 -10.24609375 6.6953125 C-9.59511719 6.05980469 -8.94414063 5.42429687 -8.2734375 4.76953125 C-7.58378906 4.12628906 -6.89414063 3.48304687 -6.18359375 2.8203125 C-5.53261719 2.20414063 -4.88164063 1.58796875 -4.2109375 0.953125 C-2.24609375 -0.3046875 -2.24609375 -0.3046875 0 0 Z " fill="#698E7F" transform="translate(74.24609375,43.3046875)"/>
<path d="M0 0 C0 0.99 0 1.98 0 3 C8.25 3 16.5 3 25 3 C25 3.33 25 3.66 25 4 C21.04900072 4.0246985 17.09803126 4.04285923 13.14697266 4.05493164 C11.14093449 4.06244036 9.13491798 4.0751447 7.12890625 4.08789062 C5.24365234 4.09272461 5.24365234 4.09272461 3.3203125 4.09765625 C1.57645264 4.10551147 1.57645264 4.10551147 -0.20263672 4.11352539 C-3 4 -3 4 -5 3 C-5 2.34 -5 1.68 -5 1 C-3 0 -3 0 0 0 Z " fill="#3E6A59" transform="translate(38,112)"/>
<path d="M0 0 C1.65 0 3.3 0 5 0 C5.8125 1.6875 5.8125 1.6875 6 4 C3.5625 6.75 3.5625 6.75 1 9 C0.67 8.01 0.34 7.02 0 6 C0.66 6 1.32 6 2 6 C2 4.68 2 3.36 2 2 C1.34 1.34 0.68 0.68 0 0 Z " fill="#648A7C" transform="translate(126,68)"/>
<path d="M0 0 C4.27454425 2.7479213 8.14126153 5.69250989 12 9 C10.68 9.33 9.36 9.66 8 10 C7.67 9.01 7.34 8.02 7 7 C6.01 6.67 5.02 6.34 4 6 C3.67 5.34 3.34 4.68 3 4 C2.01 3.67 1.02 3.34 0 3 C0 2.01 0 1.02 0 0 Z " fill="#739485" transform="translate(101,65)"/>
<path d="M0 0 C0.99 0.33 1.98 0.66 3 1 C3.33 2.65 3.66 4.3 4 6 C2.02 6.99 2.02 6.99 0 8 C-1.125 6.25 -1.125 6.25 -2 4 C-1.125 1.75 -1.125 1.75 0 0 Z " fill="#36715C" transform="translate(20,69)"/>
<path d="M0 0 C1.31611677 0.95336021 2.62778961 1.91285774 3.9375 2.875 C4.66839844 3.40867188 5.39929688 3.94234375 6.15234375 4.4921875 C8 6 8 6 9 8 C8.34 8 7.68 8 7 8 C6.34 8.66 5.68 9.32 5 10 C4.16121545 8.71186658 3.32913217 7.41936744 2.5 6.125 C2.0359375 5.40570313 1.571875 4.68640625 1.09375 3.9453125 C0 2 0 2 0 0 Z " fill="#698D7F" transform="translate(87,53)"/>
<path d="M0 0 C3.79303725 1.00193437 6.71536341 1.81024227 10 4 C10 5.32 10 6.64 10 8 C6.05205855 6.32971708 3.18203882 3.8204435 0 1 C0 0.67 0 0.34 0 0 Z " fill="#688F80" transform="translate(97,56)"/>
<path d="M0 0 C-4.455 3.465 -4.455 3.465 -9 7 C-9.33 6.01 -9.66 5.02 -10 4 C-9.01 4 -8.02 4 -7 4 C-7.33 3.01 -7.66 2.02 -8 1 C-4.59449725 -1.06762667 -4.18836538 -1.04709135 0 0 Z " fill="#618A7A" transform="translate(57,52)"/>
<path d="M0 0 C2.31 0 4.62 0 7 0 C7.33 0.66 7.66 1.32 8 2 C6.02 2.99 4.04 3.98 2 5 C2 4.34 2 3.68 2 3 C1.01 2.67 0.02 2.34 -1 2 C-0.67 1.34 -0.34 0.68 0 0 Z " fill="#28644F" transform="translate(71,26)"/>
<path d="M0 0 C3.91402949 1.26941497 5.79072873 2.51167694 8 6 C6.68 6.33 5.36 6.66 4 7 C0 2.25 0 2.25 0 0 Z " fill="#5D8675" transform="translate(82,29)"/>
<path d="M0 0 C1.98 0 3.96 0 6 0 C6.103125 0.639375 6.20625 1.27875 6.3125 1.9375 C6.539375 2.618125 6.76625 3.29875 7 4 C7.99 4.33 8.98 4.66 10 5 C9.01 5.33 8.02 5.66 7 6 C5.17578125 5.0390625 5.17578125 5.0390625 3.3125 3.625 C2.68988281 3.16351563 2.06726563 2.70203125 1.42578125 2.2265625 C0.95527344 1.82179688 0.48476562 1.41703125 0 1 C0 0.67 0 0.34 0 0 Z " fill="#6C8D81" transform="translate(117,73)"/>
<path d="M0 0 C1.2065625 0.0309375 1.2065625 0.0309375 2.4375 0.0625 C2.4375 1.0525 2.4375 2.0425 2.4375 3.0625 C1.1175 3.0625 -0.2025 3.0625 -1.5625 3.0625 C-1.5625 4.3825 -1.5625 5.7025 -1.5625 7.0625 C-2.2225 7.0625 -2.8825 7.0625 -3.5625 7.0625 C-3.60504356 5.06295254 -3.60330783 3.06208364 -3.5625 1.0625 C-2.5625 0.0625 -2.5625 0.0625 0 0 Z " fill="#27674F" transform="translate(35.5625,62.9375)"/>
<path d="M0 0 C0.66 0.33 1.32 0.66 2 1 C0.02 3.31 -1.96 5.62 -4 8 C-5.32 7.67 -6.64 7.34 -8 7 C-5.36 4.69 -2.72 2.38 0 0 Z " fill="#739384" transform="translate(31,56)"/>
<path d="M0 0 C0.66 1.32 1.32 2.64 2 4 C0.824375 3.9690625 0.824375 3.9690625 -0.375 3.9375 C-2.98114961 3.81315937 -2.98114961 3.81315937 -5 5 C-5 4.34 -5 3.68 -5 3 C-5.66 3 -6.32 3 -7 3 C-7 2.34 -7 1.68 -7 1 C-3.535 0.505 -3.535 0.505 0 0 Z " fill="#5C8776" transform="translate(75,35)"/>
<path d="M0 0 C0.66 0.33 1.32 0.66 2 1 C0.515 4.465 0.515 4.465 -1 8 C-1.66 7.34 -2.32 6.68 -3 6 C-2.63318342 3.06546739 -2.13562754 2.13562754 0 0 Z " fill="#6B9082" transform="translate(19,66)"/>
<path d="M0 0 C1.67542976 0.28604898 3.34385343 0.61781233 5 1 C3.3545622 2.68762851 1.68711423 4.3540349 0 6 C-0.33 6 -0.66 6 -1 6 C-1.042721 4.33388095 -1.04063832 2.66617115 -1 1 C-0.67 0.67 -0.34 0.34 0 0 Z " fill="#5B8170" transform="translate(42,58)"/>
<path d="M0 0 C1.65 0.33 3.3 0.66 5 1 C5 1.99 5 2.98 5 4 C3.35 3.67 1.7 3.34 0 3 C0 2.01 0 1.02 0 0 Z " fill="#4B7866" transform="translate(73,44)"/>
<path d="M0 0 C0.66 0.33 1.32 0.66 2 1 C0.875 3.4375 0.875 3.4375 -1 6 C-4.1875 6.8125 -4.1875 6.8125 -7 7 C-4.66666667 4.66666667 -2.33333333 2.33333333 0 0 Z " fill="#709284" transform="translate(55,57)"/>
</svg>
