<?xml version="1.0" encoding="UTF-8"?>
<svg version="1.1" xmlns="http://www.w3.org/2000/svg" width="480" height="480">
<path d="M0 0 C1.74986259 -0.00533152 3.4997206 -0.01240067 5.24956995 -0.02104706 C10.03591629 -0.03962099 14.8219521 -0.03338753 19.60831106 -0.02289402 C24.77883853 -0.01588712 29.94930317 -0.03191124 35.11981201 -0.04489136 C45.24038328 -0.06651148 55.36084203 -0.06640956 65.48142879 -0.05826581 C73.70857305 -0.05196104 81.93568453 -0.05310724 90.16282845 -0.05953789 C91.33462655 -0.06043954 92.50642465 -0.0613412 93.71373178 -0.06227018 C96.09437414 -0.06412141 98.47501649 -0.06598397 100.85565884 -0.06785773 C123.16991706 -0.08442924 145.48411202 -0.07572246 167.79836643 -0.05887216 C188.20443975 -0.04417534 208.61036582 -0.05880455 229.01642018 -0.08764232 C249.98083249 -0.11704805 270.94517687 -0.12800518 291.9096089 -0.11846012 C294.28170461 -0.11743759 296.65380034 -0.11644298 299.02589607 -0.11547661 C300.19294542 -0.11500022 301.35999476 -0.11452383 302.56240923 -0.114033 C310.77685108 -0.11187046 318.99122849 -0.12166447 327.20565605 -0.13624763 C337.22046581 -0.15377937 347.23508785 -0.15364136 357.24989026 -0.13089598 C362.35726535 -0.11976167 367.46430982 -0.11657314 372.57167053 -0.13519669 C377.25179833 -0.15204249 381.93130819 -0.14559491 386.61139626 -0.1209799 C388.29969241 -0.11610968 389.98803881 -0.11957648 391.67629277 -0.13246734 C403.69608145 -0.21758513 414.98828599 1.10422885 424.13392639 9.7802887 C432.64796038 19.4483989 434.7826917 29.22608233 434.78990459 41.85582447 C434.79165763 42.5523045 434.79341067 43.24878453 434.79521683 43.96637002 C434.79984872 46.28756735 434.79741863 48.60870127 434.79498291 50.92990112 C434.7968523 52.61600981 434.79915351 54.30211807 434.80184823 55.98822564 C434.80795678 60.61216274 434.80783375 65.23608173 434.80665386 69.86002195 C434.80644961 74.8505979 434.81197085 79.84116808 434.81671143 84.83174133 C434.8250132 94.60544184 434.82776605 104.37913632 434.8283238 114.15284006 C434.82879916 122.09782714 434.83085488 130.04281224 434.83402443 137.98779869 C434.84282947 160.51786134 434.847444 183.04791922 434.84669396 205.5779836 C434.84663402 207.39938561 434.84663402 207.39938561 434.84657288 209.25758362 C434.846532 210.47333563 434.84649111 211.68908765 434.846449 212.94168063 C434.8460425 232.64695493 434.85561336 252.35221011 434.86971124 272.05747888 C434.88407571 292.29517871 434.8909814 312.53286922 434.89011747 332.77057427 C434.88978554 344.13073196 434.89253093 355.49086962 434.90329552 366.85102272 C434.9124014 376.52259029 434.914575 386.19412874 434.90778609 395.86569873 C434.90452144 400.79866154 434.9044623 405.73156849 434.91313934 410.66452599 C434.92100751 415.18416614 434.91956964 419.70370615 434.91085521 424.22334387 C434.90932094 425.85451488 434.91113363 427.48569336 434.91671529 429.11685554 C434.96354069 443.77702246 434.4483498 457.52731412 423.97377014 468.8271637 C417.06469996 475.31591022 409.09668621 478.63576708 399.69829464 478.64888477 C398.98195863 478.651237 398.26562262 478.65358923 397.52757946 478.65601274 C395.10874399 478.66271045 392.68996214 478.66224429 390.27111816 478.66183472 C388.52673974 478.66513287 386.78236207 478.66885834 385.03798538 478.6729762 C380.22980113 478.68300999 375.42162935 478.68671521 370.6134361 478.68936551 C365.43328467 478.69326452 360.25314316 478.70284319 355.07299805 478.71157837 C342.55499713 478.73135502 330.03699538 478.74141088 317.51898274 478.75030616 C311.6262722 478.75468742 305.73356256 478.76005468 299.84085274 478.76529503 C280.2555011 478.78230912 260.67015003 478.79680345 241.08479214 478.80404377 C236.0005029 478.80595372 230.91621366 478.80787404 225.83192444 478.80982971 C224.56822338 478.81031345 223.30452233 478.81079719 222.0025273 478.81129559 C201.52995642 478.81959643 181.05744396 478.84493347 160.58489858 478.87741039 C139.57330357 478.91047106 118.56173824 478.92849167 97.55011708 478.93168801 C85.75002329 478.93385411 73.95001467 478.94261735 62.14994621 478.96814919 C52.10052006 478.98984266 42.05119976 478.99791326 32.00175285 478.9881824 C26.87446072 478.9836337 21.74738706 478.98555716 16.62012482 479.00494385 C11.92383989 479.02254754 7.22793326 479.0216004 2.53164447 479.00604656 C0.83506219 479.00366624 -0.8615461 479.00801602 -2.55808861 479.01987521 C-15.93174497 479.10754941 -25.18212048 477.40546058 -35.13951111 467.88575745 C-43.37823226 459.00315756 -45.46056784 449.2144847 -45.46736431 437.28093338 C-45.46911735 436.58391882 -45.47087039 435.88690426 -45.47267655 435.16876805 C-45.47731805 432.83973088 -45.47487583 430.51075664 -45.47244263 428.18171692 C-45.47431153 426.49234649 -45.47661255 424.80297648 -45.47930795 423.11360717 C-45.48542254 418.47600916 -45.48529275 413.83842919 -45.48411357 409.20082808 C-45.48390948 404.19728283 -45.48942915 399.19374336 -45.49417114 394.19020081 C-45.50247643 384.38895761 -45.50522593 374.58772044 -45.50578352 364.78647402 C-45.50625875 356.81905646 -45.50831383 348.85164087 -45.51148415 340.88422394 C-45.52029046 318.29291562 -45.52490357 295.70161205 -45.52415367 273.110302 C-45.52411372 271.89248159 -45.52407376 270.67466119 -45.52403259 269.41993713 C-45.52399171 268.200629 -45.52395083 266.98132087 -45.52390871 265.72506401 C-45.52350227 245.96476069 -45.53307147 226.20447642 -45.54717096 206.44417861 C-45.56153547 186.15226985 -45.5684411 165.86037039 -45.56757718 145.56845641 C-45.56724524 134.17698471 -45.56999136 122.78553298 -45.58075523 111.39406586 C-45.58986121 101.69502572 -45.59203468 91.99601462 -45.58524581 82.29697207 C-45.58198109 77.3498394 -45.58192224 72.40276244 -45.59059906 67.45563507 C-45.59846703 62.92300216 -45.59702955 58.39046909 -45.58831493 53.8578386 C-45.5867806 52.22192711 -45.58859356 50.58600815 -45.594175 48.95010546 C-45.63745568 35.35985254 -45.56525269 21.81081626 -36.17466736 11.0302887 C-25.52635182 0.68621074 -14.13365439 -0.07545492 0 0 Z M30.59095764 81.94044495 C23.26029826 91.80156206 20.5003403 102.72988066 22.22377014 114.9521637 C24.40157779 125.04796075 29.30582196 134.28277626 37.66127014 140.5146637 C49.22057116 147.30463872 60.7020585 149.58949946 73.94252014 146.83106995 C84.23447602 143.34741634 92.91301277 136.32351364 98.17298889 126.76856995 C100.38042574 122.10701992 102.32962991 117.71036073 102.66127014 112.5146637 C102.71154358 111.79021057 102.76181702 111.06575745 102.81361389 110.3193512 C103.23310081 99.61404499 100.16439477 90.03941185 93.66127014 81.5146637 C86.08353567 73.3896484 77.31943416 68.24079612 66.11830139 67.1787262 C51.38670519 67.02083127 40.35029682 70.50544565 30.59095764 81.94044495 Z M221.66127014 197.5146637 C216.51497458 202.65668688 216.51497458 202.65668688 212.63002014 208.71388245 C211.66127014 210.5146637 211.66127014 210.5146637 208.66127014 211.5146637 C208.66127014 201.2846637 208.66127014 191.0546637 208.66127014 180.5146637 C186.88127014 180.5146637 165.10127014 180.5146637 142.66127014 180.5146637 C142.66127014 255.0946637 142.66127014 329.6746637 142.66127014 406.5146637 C165.43127014 406.5146637 188.20127014 406.5146637 211.66127014 406.5146637 C211.69865295 397.61626526 211.73603577 388.71786682 211.77455139 379.54981995 C211.80871602 373.16361673 211.84471613 366.77744432 211.88334751 360.39126873 C211.93303359 352.13757664 211.97851877 343.883935 212.00770569 335.63014221 C212.03084404 329.09078072 212.06441478 322.55156553 212.1099717 316.01232046 C212.1336931 312.55711272 212.15255854 309.10204795 212.15888405 305.64676094 C212.27267346 260.32311366 212.27267346 260.32311366 226.09877014 245.3896637 C236.13248201 236.51798527 248.79613492 235.62294008 261.6519928 236.32374573 C270.07037604 237.12364557 277.29440789 241.02970514 282.66127014 247.5146637 C293.74998599 264.02172934 292.13404875 284.59453195 292.16738105 303.58967781 C292.17687377 307.21850512 292.20308421 310.84721451 292.22738647 314.47596741 C292.27075955 321.32131719 292.29948449 328.16664372 292.32270986 335.0120883 C292.35502523 344.28084599 292.41044935 353.54946522 292.4644556 362.81811714 C292.54872638 377.383591 292.60253768 391.94901257 292.66127014 406.5146637 C315.76127014 406.5146637 338.86127014 406.5146637 362.66127014 406.5146637 C362.69138716 383.81527564 362.69138716 383.81527564 362.71152401 361.11588478 C362.71703159 352.98757456 362.72398534 344.85927477 362.73670959 336.73097229 C362.74679071 330.28795043 362.7531549 323.8449365 362.75535864 317.40190697 C362.75664337 314.00181977 362.75958256 310.60175523 362.7670002 307.20167542 C362.79207876 294.24331112 362.751939 281.30034683 362.23719788 268.3506012 C362.18284246 266.94357185 362.18284246 266.94357185 362.12738895 265.50811768 C361.05629046 241.8652334 356.97216003 215.8104767 340.66127014 197.5146637 C340.15337952 196.9268512 339.64548889 196.3390387 339.12220764 195.7334137 C324.91623095 180.38287964 303.63817848 175.58246913 283.49891663 174.58937073 C259.90815921 173.86025215 238.54862654 180.54230383 221.66127014 197.5146637 Z M27.66127014 180.5146637 C27.66127014 255.0946637 27.66127014 329.6746637 27.66127014 406.5146637 C50.43127014 406.5146637 73.20127014 406.5146637 96.66127014 406.5146637 C96.66127014 331.9346637 96.66127014 257.3546637 96.66127014 180.5146637 C73.89127014 180.5146637 51.12127014 180.5146637 27.66127014 180.5146637 Z " fill="#0575B3" transform="translate(45.33872985839844,0.4853363037109375)"/>
<path d="M0 0 C0.309375 0.639375 0.61875 1.27875 0.9375 1.9375 C1.8345163 3.93610821 1.8345163 3.93610821 3 5 C3.20839015 6.64107242 3.36751725 8.28856293 3.5 9.9375 C3.75214943 13.60557465 3.75214943 13.60557465 5 17 C5.09428174 19.10317872 5.12190185 21.20943752 5.12025452 23.31472778 C5.12110894 23.96980501 5.12196337 24.62488224 5.12284368 25.29981029 C5.12449671 27.50475121 5.11898001 29.70961681 5.11352539 31.91455078 C5.11324345 33.4911804 5.11340138 35.06781015 5.1139679 36.6444397 C5.11425562 40.93345211 5.10836291 45.22243673 5.10139394 49.51144266 C5.09515626 53.99044562 5.09455627 58.46944917 5.09336853 62.94845581 C5.09025644 71.43406114 5.08204469 79.91965363 5.07201904 88.40525329 C5.05876777 99.86904338 5.05335701 111.33283696 5.04751682 122.79663277 C5.03810473 140.86443146 5.01818499 158.93220307 5 177 C-18.76 177 -42.52 177 -67 177 C-67 133.44 -67 89.88 -67 45 C-66.67 45 -66.34 45 -66 45 C-66 88.23 -66 131.46 -66 176 C-42.9 176 -19.8 176 4 176 C3.8427392 153.3005792 3.8427392 153.3005792 3.67741489 130.60122108 C3.61683869 122.47293163 3.55743096 114.34463964 3.50268555 106.21630859 C3.45928675 99.77326178 3.41288484 93.33024417 3.36312145 86.88724327 C3.33695898 83.48717633 3.3121333 80.08711348 3.29092598 76.68701172 C3.2076234 63.74431719 3.07461307 50.80936977 2.57788086 37.875 C2.54456193 36.94221725 2.511243 36.00943451 2.47691441 35.04838562 C2.1157917 26.69111695 0.9652275 18.48796125 -0.37890625 10.23828125 C-0.86623812 7.12706265 -1.24291387 4.15788032 -1 1 C-0.67 0.67 -0.34 0.34 0 0 Z " fill="#87C1E2" transform="translate(404,231)"/>
<path d="M0 0 C0.33 0 0.66 0 1 0 C1.04254356 1.99954746 1.04080783 4.00041636 1 6 C0.67 6.33 0.34 6.66 0 7 C-0.10319144 9.23595678 -0.13402273 11.47524634 -0.1386652 13.71357822 C-0.14150742 14.42722576 -0.14434964 15.1408733 -0.14727798 15.87614653 C-0.15568359 18.29777782 -0.15689775 20.71936165 -0.15821838 23.14100647 C-0.16277975 24.88253645 -0.16777914 26.62406533 -0.17318195 28.3655929 C-0.18682093 33.17479529 -0.19419799 37.98399057 -0.20060861 42.79320729 C-0.20858738 47.97047904 -0.22229377 53.14773588 -0.23532104 58.32499695 C-0.25711974 67.3027964 -0.27525176 76.28059734 -0.29092598 85.2584095 C-0.3135938 98.23897957 -0.34174084 111.21953315 -0.37124526 124.20008927 C-0.41895913 145.25781592 -0.46221299 166.31554929 -0.50268555 187.37329102 C-0.54202119 207.83455936 -0.58344276 228.29582173 -0.62768555 248.75708008 C-0.63040982 250.01732949 -0.63313409 251.2775789 -0.63594092 252.57601769 C-0.64962008 258.89802519 -0.66334041 265.22003261 -0.67708123 271.54203999 C-0.7911056 324.02801419 -0.89790173 376.51400134 -1 429 C-1.33 429 -1.66 429 -2 429 C-2.04574766 375.07001922 -2.08100406 321.1400404 -2.10213066 267.21004405 C-2.10463216 260.84746748 -2.1072208 254.48489096 -2.10986328 248.12231445 C-2.1103879 246.85560534 -2.11091252 245.58889623 -2.11145304 244.283802 C-2.1201628 223.75595239 -2.13593591 203.22811396 -2.15430559 182.70027099 C-2.17298877 161.64698651 -2.18411337 140.59370789 -2.18817699 119.54041547 C-2.19092534 106.54263502 -2.19961516 93.54488614 -2.21583293 80.54711541 C-2.22638029 71.64191188 -2.22960574 62.73672474 -2.22700275 53.83151541 C-2.22571795 48.68872262 -2.22772905 43.5459851 -2.23841095 38.40320206 C-2.24811185 33.69851911 -2.24865554 28.99392883 -2.24179779 24.28924169 C-2.24094966 22.58391316 -2.24351345 20.87857896 -2.24976636 19.17326168 C-2.2577541 16.86106149 -2.25348969 14.54919894 -2.24609566 12.23700428 C-2.24723482 10.30783514 -2.24723482 10.30783514 -2.24839699 8.33969289 C-2.00883138 5.11873778 -1.39034698 2.8914694 0 0 Z " fill="#0F70A3" transform="translate(4,23)"/>
<path d="M0 0 C1.03624719 3.26001852 0.90875372 5.69427607 0.4375 9.0625 C-0.77043844 21.37041332 3.35023185 32.34074052 11 42 C8.03 42.495 8.03 42.495 5 43 C5.495 40.03 5.495 40.03 6 37 C4.68 36.67 3.36 36.34 2 36 C1.67 34.68 1.34 33.36 1 32 C-0.485 32.495 -0.485 32.495 -2 33 C-1.98839844 32.21753906 -1.97679688 31.43507813 -1.96484375 30.62890625 C-1.95582031 29.61699219 -1.94679688 28.60507813 -1.9375 27.5625 C-1.92589844 26.55316406 -1.91429688 25.54382813 -1.90234375 24.50390625 C-1.71387324 22.05978933 -1.71387324 22.05978933 -3 21 C-2.87498688 13.82617043 -2.4227889 6.78380893 0 0 Z " fill="#5DA3C6" transform="translate(68,95)"/>
<path d="M0 0 C1.03882324 -0.00700928 1.03882324 -0.00700928 2.09863281 -0.01416016 C6.87067187 0.00064569 11.46191725 0.45823245 16.1875 1.125 C16.1875 1.455 16.1875 1.785 16.1875 2.125 C15.15753906 2.10179687 14.12757813 2.07859375 13.06640625 2.0546875 C-2.1438244 1.81480126 -16.07211857 3.06319464 -30.51953125 8.00390625 C-32.95270365 8.83228167 -35.30957825 9.5638916 -37.8125 10.125 C-37.8125 9.135 -37.8125 8.145 -37.8125 7.125 C-35.8325 7.125 -33.8525 7.125 -31.8125 7.125 C-31.8125 6.465 -31.8125 5.805 -31.8125 5.125 C-30.1625 5.125 -28.5125 5.125 -26.8125 5.125 C-26.8125 4.465 -26.8125 3.805 -26.8125 3.125 C-18.50617611 -0.60375123 -8.96341535 0.04140601 0 0 Z " fill="#76B3D0" transform="translate(322.8125,173.875)"/>
<path d="M0 0 C0.309375 0.639375 0.61875 1.27875 0.9375 1.9375 C1.8345163 3.93610821 1.8345163 3.93610821 3 5 C3.20839015 6.64107242 3.36751725 8.28856293 3.5 9.9375 C3.75214943 13.60557465 3.75214943 13.60557465 5 17 C5.08342159 18.44848582 5.10732861 19.90070869 5.09765625 21.3515625 C5.09443359 22.20234375 5.09121094 23.053125 5.08789062 23.9296875 C5.07951172 24.81914062 5.07113281 25.70859375 5.0625 26.625 C5.05798828 27.5221875 5.05347656 28.419375 5.04882812 29.34375 C5.03702591 31.56256648 5.02056155 33.78125018 5 36 C4.67 36 4.34 36 4 36 C4 33.03 4 30.06 4 27 C3.34 27 2.68 27 2 27 C1.49418146 23.60500696 0.99637756 20.20888518 0.5 16.8125 C0.35691406 15.85279297 0.21382813 14.89308594 0.06640625 13.90429688 C-0.06894531 12.97294922 -0.20429688 12.04160156 -0.34375 11.08203125 C-0.46943359 10.22843018 -0.59511719 9.3748291 -0.72460938 8.49536133 C-1.00398309 5.96390853 -1.11732241 3.54429134 -1 1 C-0.67 0.67 -0.34 0.34 0 0 Z " fill="#4B96BD" transform="translate(404,231)"/>
<path d="M0 0 C0.33 0.66 0.66 1.32 1 2 C4.0399648 2.69337792 4.0399648 2.69337792 7.5625 3.125 C9.35880859 3.37636719 9.35880859 3.37636719 11.19140625 3.6328125 C12.11824219 3.75398437 13.04507813 3.87515625 14 4 C14 4.66 14 5.32 14 6 C14.66 6.33 15.32 6.66 16 7 C10.41868967 6.51907076 5.39410006 5.56919274 0 4 C-6.36524873 2.99199273 -12.56410905 2.87979891 -19 2.9375 C-19.96550781 2.94201172 -20.93101562 2.94652344 -21.92578125 2.95117188 C-24.28392089 2.96284583 -26.64192602 2.97921979 -29 3 C-29 2.34 -29 1.68 -29 1 C-24.54168888 0.83273548 -20.08334759 0.66628917 -15.625 0.5 C-14.35398437 0.45230469 -13.08296875 0.40460938 -11.7734375 0.35546875 C-9.95585937 0.28779297 -9.95585937 0.28779297 -8.1015625 0.21875 C-6.42054443 0.1559082 -6.42054443 0.1559082 -4.70556641 0.09179688 C-3.13764805 0.03859914 -1.56882057 0 0 0 Z " fill="#1572A6" transform="translate(339,172)"/>
<path d="M0 0 C8.12615955 -0.27087199 8.12615955 -0.27087199 12 2 C13.65740715 2.37668344 15.32345271 2.72057545 17 3 C17 3.99 17 4.98 17 6 C17.886875 6.226875 18.77375 6.45375 19.6875 6.6875 C23.43380532 8.17188513 25.33729434 10.02403485 28 13 C27.67 13.99 27.34 14.98 27 16 C26.40574219 15.48050781 25.81148438 14.96101562 25.19921875 14.42578125 C17.52060643 7.96523807 9.62211056 3.86062746 0 1 C0 0.67 0 0.34 0 0 Z " fill="#59A0C3" transform="translate(355,179)"/>
<path d="M0 0 C2.07884922 3.11827383 2.23999161 3.71979559 2.16015625 7.23828125 C2.14919922 8.05876953 2.13824219 8.87925781 2.12695312 9.72460938 C2.10568359 10.57861328 2.08441406 11.43261719 2.0625 12.3125 C1.95167715 17.67714662 1.88767438 22.71429762 3 28 C1.02 28.66 -0.96 29.32 -3 30 C-3 30.66 -3 31.32 -3 32 C-3.66 32 -4.32 32 -5 32 C-4.06264468 29.1209801 -3.12227222 26.28769934 -1.9375 23.5 C0.06734192 18.15375488 0.13363153 12.77174939 0.0625 7.125 C0.05798828 6.43664062 0.05347656 5.74828125 0.04882812 5.0390625 C0.03716336 3.35933665 0.01923271 1.67965625 0 0 Z " fill="#66ACD1" transform="translate(147,98)"/>
<path d="M0 0 C4.10403363 -0.08694042 8.20783129 -0.14037149 12.3125 -0.1875 C13.47974609 -0.21263672 14.64699219 -0.23777344 15.84960938 -0.26367188 C16.96787109 -0.27333984 18.08613281 -0.28300781 19.23828125 -0.29296875 C20.26993408 -0.3086792 21.30158691 -0.32438965 22.36450195 -0.34057617 C25 0 25 0 26.86010742 1.51831055 C27.23627197 2.00726807 27.61243652 2.49622559 28 3 C26.99324219 2.84144531 25.98648438 2.68289062 24.94921875 2.51953125 C13.8139986 1.05466055 4.40880061 1.76504681 -6 6 C-6.99 6.33 -7.98 6.66 -9 7 C-9 6.01 -9 5.02 -9 4 C-8.01 4 -7.02 4 -6 4 C-6 3.34 -6 2.68 -6 2 C-4.02 2 -2.04 2 0 2 C0 1.34 0 0.68 0 0 Z " fill="#70B2D2" transform="translate(94,67)"/>
<path d="M0 0 C8.25 0 16.5 0 25 0 C23.67663204 2.64673591 22.7695684 2.96422645 20 4 C16.50390625 4.3359375 16.50390625 4.3359375 12.5625 4.375 C11.26441406 4.40335938 9.96632813 4.43171875 8.62890625 4.4609375 C5 4 5 4 0 0 Z " fill="#5DA4C7" transform="translate(95,147)"/>
<path d="M0 0 C0.33 0 0.66 0 1 0 C1.33 8.25 1.66 16.5 2 25 C2.66 25 3.32 25 4 25 C4 23.68 4 22.36 4 21 C5.32 21.66 6.64 22.32 8 23 C7.24266726 24.3410477 6.46867264 25.67269781 5.6875 27 C5.25824219 27.7425 4.82898438 28.485 4.38671875 29.25 C3.92910156 29.8275 3.47148437 30.405 3 31 C2.01 31 1.02 31 0 31 C0 20.77 0 10.54 0 0 Z " fill="#2F759D" transform="translate(255,180)"/>
<path d="M0 0 C-1.98 0.99 -1.98 0.99 -4 2 C-4 1.34 -4 0.68 -4 0 C-5.27617187 0.01160156 -6.55234375 0.02320313 -7.8671875 0.03515625 C-9.53645687 0.04453417 -11.20572783 0.05363437 -12.875 0.0625 C-14.13763672 0.07506836 -14.13763672 0.07506836 -15.42578125 0.08789062 C-16.23144531 0.09111328 -17.03710938 0.09433594 -17.8671875 0.09765625 C-18.98262939 0.10551147 -18.98262939 0.10551147 -20.12060547 0.11352539 C-22 0 -22 0 -24 -1 C-26.3329866 -1.04022391 -28.66706666 -1.04320247 -31 -1 C-31 -1.33 -31 -1.66 -31 -2 C-20.98808573 -4.44385309 -9.44518656 -4.12153595 0 0 Z " fill="#70B0D2" transform="translate(318,239)"/>
<path d="M0 0 C3.81731623 0.54533089 5.55691189 2.06829427 8 5 C8.69313908 6.65583225 9.36474424 8.32110979 10 10 C10.66 10.33 11.32 10.66 12 11 C12 12.32 12 13.64 12 15 C13.32 15.66 14.64 16.32 16 17 C15.67 18.65 15.34 20.3 15 22 C12.52970706 18.87096228 10.57765074 15.59736082 8.625 12.125 C6.06230706 7.67429337 3.46526851 3.78029292 0 0 Z " fill="#71B0CF" transform="translate(383,195)"/>
<path d="M0 0 C2.64 0.33 5.28 0.66 8 1 C8.33 1.99 8.66 2.98 9 4 C11.31 4.33 13.62 4.66 16 5 C16.33 7.31 16.66 9.62 17 12 C16.50371094 11.61328125 16.00742188 11.2265625 15.49609375 10.828125 C12.13835382 8.2540701 8.82746717 5.80779228 5.125 3.75 C2 2 2 2 0 0 Z " fill="#4090BE" transform="translate(122,70)"/>
<path d="M0 0 C0.66 0.33 1.32 0.66 2 1 C1.401875 1.495 0.80375 1.99 0.1875 2.5 C-2.69651861 5.79602127 -3.61871542 8.85614626 -5 13 C-5.66 13 -6.32 13 -7 13 C-7 13.66 -7 14.32 -7 15 C-7.99 15.33 -8.98 15.66 -10 16 C-8.80004781 8.95028091 -4.90000527 5.02535424 0 0 Z " fill="#6FAED0" transform="translate(13,8)"/>
<path d="M0 0 C0 0.66 0 1.32 0 2 C0.66 2 1.32 2 2 2 C1.979375 2.78375 1.95875 3.5675 1.9375 4.375 C1.81315937 6.98114961 1.81315937 6.98114961 3 9 C-1.2742558 7.4169423 -3.26531794 4.49431596 -6 1 C-3 0 -3 0 0 0 Z " fill="#3890BE" transform="translate(14,464)"/>
<path d="M0 0 C0.625 1.8125 0.625 1.8125 1 4 C-1.14144306 7.21216459 -2.76447436 8.05868462 -6 10 C-6.99 11.485 -6.99 11.485 -8 13 C-9.32 12.67 -10.64 12.34 -12 12 C-11.30132812 11.38511719 -10.60265625 10.77023438 -9.8828125 10.13671875 C-8.51769531 8.92435547 -8.51769531 8.92435547 -7.125 7.6875 C-6.22007812 6.88699219 -5.31515625 6.08648437 -4.3828125 5.26171875 C-1.86787689 3.04188943 -1.86787689 3.04188943 0 0 Z " fill="#6DADCE" transform="translate(141,130)"/>
<path d="M0 0 C7.66742597 5.96583144 7.66742597 5.96583144 9 11 C8.01 11 7.02 11 6 11 C6 10.34 6 9.68 6 9 C5.01 9.33 4.02 9.66 3 10 C3 9.34 3 8.68 3 8 C3.66 8 4.32 8 5 8 C4.67 7.34 4.34 6.68 4 6 C1.47266765 5.34444881 1.47266765 5.34444881 -1 5 C-0.67 3.35 -0.34 1.7 0 0 Z " fill="#519AC4" transform="translate(322,242)"/>
<path d="M0 0 C1.39195915 4.17587745 -0.17676781 6.13474776 -2 10 C-2.66 9.67 -3.32 9.34 -4 9 C-4.40729228 6.67843403 -4.74438677 4.3431213 -5 2 C-3.33333333 2 -1.66666667 2 0 2 C0 1.34 0 0.68 0 0 Z " fill="#4495C1" transform="translate(477,452)"/>
<path d="M0 0 C1.32 0.66 2.64 1.32 4 2 C2.35 4.64 0.7 7.28 -1 10 C-1.66 9.01 -2.32 8.02 -3 7 C-2.67 6.01 -2.34 5.02 -2 4 C-1.34 4 -0.68 4 0 4 C0 2.68 0 1.36 0 0 Z " fill="#4B98C0" transform="translate(259,201)"/>
<path d="M0 0 C-4.42778844 2.74522883 -7.71862571 4.48474397 -13 5 C-9.25316241 0.83684713 -5.67827303 -2.10306409 0 0 Z " fill="#88BCD6" transform="translate(28,3)"/>
<path d="M0 0 C4.29 0 8.58 0 13 0 C13 0.66 13 1.32 13 2 C13.66 2.33 14.32 2.66 15 3 C9.9697924 2.47462276 4.98114761 1.89405214 0 1 C0 0.67 0 0.34 0 0 Z " fill="#7CB9D7" transform="translate(340,176)"/>
<path d="M0 0 C2.39763185 2.39763185 2.34280586 3.33273498 2.625 6.625 C2.69976562 7.44226563 2.77453125 8.25953125 2.8515625 9.1015625 C2.90054687 9.72804688 2.94953125 10.35453125 3 11 C0.17661571 7.8083482 -0.62384955 5.23169259 -1 1 C-0.67 0.67 -0.34 0.34 0 0 Z " fill="#62A2C4" transform="translate(3,451)"/>
<path d="M0 0 C3.14958831 3.42346555 3.56179109 6.44262737 4 11 C3.34 11 2.68 11 2 11 C-0.67927341 6.98108988 -0.15601248 4.75838077 0 0 Z " fill="#66A9CB" transform="translate(331,253)"/>
<path d="M0 0 C1.875 0.25 1.875 0.25 4 1 C6.11103658 3.95545121 6.19785783 6.43855901 6 10 C3.47650757 6.87567603 1.72743854 3.61939504 0 0 Z " fill="#65A9C9" transform="translate(139,82)"/>
<path d="M0 0 C0.33 0.66 0.66 1.32 1 2 C0.22265625 3.7265625 0.22265625 3.7265625 -0.9375 5.625 C-1.618125 6.73875 -2.29875 7.8525 -3 9 C-3.66 9 -4.32 9 -5 9 C-3.90931332 5.22454612 -3.0916909 2.52956528 0 0 Z " fill="#66A7C8" transform="translate(269,248)"/>
<path d="M0 0 C3.78043163 0.77832416 5.51409299 1.98139863 8 5 C8 5.99 8 6.98 8 8 C7.34 8 6.68 8 6 8 C4.4921875 6.25 4.4921875 6.25 2.875 4 C2.33617187 3.2575 1.79734375 2.515 1.2421875 1.75 C0.62730469 0.88375 0.62730469 0.88375 0 0 Z " fill="#65A6C8" transform="translate(383,195)"/>
<path d="M0 0 C5.37305699 0.2642487 5.37305699 0.2642487 8 1 C10 3.5625 10 3.5625 11 6 C7.2089881 4.55049545 3.6125362 2.84827434 0 1 C0 0.67 0 0.34 0 0 Z " fill="#76B3D2" transform="translate(122,70)"/>
<path d="M0 0 C4.875 4.75 4.875 4.75 6 7 C4.02 7.33 2.04 7.66 0 8 C0 5.36 0 2.72 0 0 Z " fill="#4C9EC5" transform="translate(73,130)"/>
<path d="M0 0 C0.95465783 2.16967689 1.14401212 3.56328793 0.3984375 5.82421875 C-0.35870385 7.5684743 -1.17609198 9.28627131 -2 11 C-2.95465783 8.83032311 -3.14401212 7.43671207 -2.3984375 5.17578125 C-1.64129615 3.4315257 -0.82390802 1.71372869 0 0 Z " fill="#86B7D4" transform="translate(263,257)"/>
<path d="M0 0 C-0.33 1.32 -0.66 2.64 -1 4 C-3.64 4 -6.28 4 -9 4 C-3 0 -3 0 0 0 Z " fill="#5BA5C8" transform="translate(129,143)"/>
<path d="M0 0 C-2.36292656 2.52588702 -3.66462511 3.88820837 -7 5 C-7 3.68 -7 2.36 -7 1 C-4.53721199 -0.231394 -2.7204945 -0.07159196 0 0 Z " fill="#559DC5" transform="translate(280,187)"/>
<path d="M0 0 C0.99 0.33 1.98 0.66 3 1 C3.33 3.64 3.66 6.28 4 9 C3.67 8.01 3.34 7.02 3 6 C2.34 6 1.68 6 1 6 C0.67 4.02 0.34 2.04 0 0 Z " fill="#589DC3" transform="translate(145,92)"/>
</svg>
