<?xml version="1.0" encoding="UTF-8"?>
<svg version="1.1" xmlns="http://www.w3.org/2000/svg" width="172" height="148">
<path d="M0 0 C1.44586132 0.96027509 2.89124511 1.92126922 4.33642578 2.88256836 C5.54384933 3.68518349 5.54384933 3.68518349 6.77566528 4.50401306 C9.19131326 6.12866865 11.54133253 7.82234311 13.875 9.5625 C19.7769287 13.88947582 25.81074088 18.01362184 31.86181641 22.12866211 C35.54930752 24.63666873 39.23051764 27.14914246 42.8671875 29.73046875 C43.44549316 30.13918213 44.02379883 30.54789551 44.61962891 30.96899414 C46.12989503 32.03984022 47.6354691 33.11729543 49.140625 34.1953125 C55.67517886 38.3195801 61.36454459 40.27808489 69 39 C78.35956772 35.88469863 86.14506164 29.45239623 93.98046875 23.66015625 C100.35693184 18.96635316 106.91897875 14.54941024 113.47607422 10.11352539 C114.35408691 9.51918701 115.23209961 8.92484863 116.13671875 8.3125 C116.90717529 7.79300781 117.67763184 7.27351563 118.47143555 6.73828125 C121.67823877 4.5337395 124.83809758 2.26847357 128 0 C128.06958973 7.86700599 128.12285667 15.73393952 128.15543652 23.60117626 C128.17107533 27.25449198 128.19228048 30.90759671 128.22631836 34.56079102 C128.25897625 38.08805216 128.27686644 41.61511068 128.28463173 45.14251137 C128.29285133 47.13944308 128.31626061 49.13629358 128.33988953 51.13310242 C128.34022942 52.96443474 128.34022942 52.96443474 128.34057617 54.83276367 C128.35056892 56.44159676 128.35056892 56.44159676 128.36076355 58.08293152 C127.94385456 61.45398186 127.01770275 63.28801844 125 66 C120.88854929 68.74096714 117.27753404 69.12311978 112.41493225 69.13371277 C111.07977821 69.14011024 111.07977821 69.14011024 109.71765137 69.14663696 C108.75387573 69.14618378 107.7901001 69.14573059 106.79711914 69.14526367 C105.25966286 69.15030159 105.25966286 69.15030159 103.69114685 69.15544128 C100.3058043 69.1649337 96.92051128 69.16689344 93.53515625 69.16796875 C91.1801298 69.17118216 88.82510355 69.17454629 86.47007751 69.17805481 C81.53481585 69.18404154 76.59957168 69.18589514 71.66430664 69.18530273 C65.34141779 69.18520106 59.0186411 69.1988613 52.69577885 69.21607494 C47.83246851 69.22719384 42.96918532 69.22922199 38.10586357 69.22869301 C35.77467906 69.22987298 33.44349385 69.23429571 31.11232185 69.24202538 C27.85222638 69.25182428 24.5923748 69.24894764 21.33227539 69.24291992 C20.37052399 69.24853943 19.40877258 69.25415894 18.4178772 69.25994873 C12.4641804 69.23198134 7.38779653 69.06512132 2.6875 65 C-0.16737952 61.61643909 -0.12251368 59.5416469 -0.11352539 55.17333984 C-0.11341209 53.34166763 -0.11341209 53.34166763 -0.11329651 51.47299194 C-0.10818952 50.13564005 -0.10297352 48.79828857 -0.09765625 47.4609375 C-0.0957914 46.09616141 -0.09436781 44.73138466 -0.09336853 43.36660767 C-0.08954863 39.77284907 -0.07972283 36.17913083 -0.06866455 32.58538818 C-0.05843911 28.91891018 -0.05386848 25.25242565 -0.04882812 21.5859375 C-0.0381001 14.39060659 -0.02102999 7.19530895 0 0 Z " fill="#2A6750" transform="translate(18,55)"/>
<path d="M0 0 C1.64008781 -0.01051392 1.64008781 -0.01051392 3.31330872 -0.02124023 C6.9207208 -0.03881801 10.52734582 -0.02719746 14.13476562 -0.01367188 C16.64530589 -0.01636683 19.15584514 -0.02024928 21.66638184 -0.02526855 C26.925293 -0.03116332 32.1840002 -0.02298365 37.44287109 -0.00390625 C43.51310626 0.01786094 49.58280395 0.01080883 55.6530261 -0.01121187 C61.50501848 -0.03158697 67.35680742 -0.02938476 73.20881653 -0.01768494 C75.69350764 -0.01501773 78.17821249 -0.01828716 80.66288757 -0.02760315 C84.1363044 -0.03776845 87.60869109 -0.02226613 91.08203125 0 C92.10766678 -0.00809692 93.13330231 -0.01619385 94.1900177 -0.02453613 C100.11458484 0.04577806 103.54375768 0.545439 108.04101562 4.51757812 C111.04367941 9.0215738 110.72228852 13.24133701 110.04101562 18.51757812 C106.17331048 29.18193019 94.07046997 36.14095526 85.16601562 42.20507812 C84.17166504 42.88844238 83.17731445 43.57180664 82.15283203 44.27587891 C80.11399887 45.67613536 78.07347594 47.07393471 76.03125 48.46923828 C73.17664239 50.42467246 70.33362225 52.39573327 67.49414062 54.37304688 C65.80159485 55.54645847 64.10889478 56.71964755 62.41601562 57.89257812 C61.6414502 58.43358154 60.86688477 58.97458496 60.06884766 59.53198242 C54.23460067 63.54863208 49.78238299 66.28558114 42.54492188 65.23632812 C37.4294857 63.76793459 33.32663204 60.58112423 29.04101562 57.51757812 C27.96851563 56.75832031 26.89601562 55.9990625 25.79101562 55.21679688 C23.45286654 53.55503852 21.12441659 51.88044766 18.79882812 50.20117188 C14.82175987 47.34219302 10.77621137 44.58765086 6.72851562 41.83007812 C-14.38094895 27.36418866 -14.38094895 27.36418866 -17.95898438 18.51757812 C-18.18945312 16.08007812 -18.18945312 16.08007812 -18.14648438 13.51757812 C-18.14003906 12.67195313 -18.13359375 11.82632813 -18.12695312 10.95507812 C-18.07152344 10.15070312 -18.01609375 9.34632812 -17.95898438 8.51757812 C-17.91386719 7.83695313 -17.86875 7.15632813 -17.82226562 6.45507812 C-14.6271107 -0.71594832 -6.62372614 -0.05229129 0 0 Z " fill="#2B6751" transform="translate(35.958984375,21.482421875)"/>
<path d="M0 0 C0.96633362 0.00960754 1.93266724 0.01921509 2.92828369 0.02911377 C6.11526938 0.0620361 9.30211509 0.10239427 12.48901367 0.14282227 C14.70146698 0.16712999 16.91392543 0.19097322 19.12638855 0.21437073 C24.94446688 0.27714671 30.76245386 0.34623178 36.58044434 0.41662598 C42.51932624 0.48736797 48.45827281 0.55214984 54.3972168 0.61743164 C66.04637642 0.7463604 77.69544824 0.88195366 89.34448242 1.02172852 C89.34448242 1.68172852 89.34448242 2.34172852 89.34448242 3.02172852 C91.98448242 3.02172852 94.62448242 3.02172852 97.34448242 3.02172852 C97.34448242 3.35172852 97.34448242 3.68172852 97.34448242 4.02172852 C83.62743754 4.06806811 69.91041128 4.10360605 56.19330406 4.12535286 C49.82390961 4.1357902 43.45456871 4.14994864 37.08520508 4.17260742 C30.93847756 4.19433735 24.79180157 4.20629752 18.6450386 4.211483 C16.29989435 4.21517847 13.95475291 4.22239473 11.60963058 4.23318863 C8.32505956 4.24770534 5.04070146 4.24970635 1.75610352 4.2487793 C0.78649689 4.25596985 -0.18310974 4.2631604 -1.18209839 4.27056885 C-6.08122614 4.25560541 -10.0594569 3.95034139 -14.65551758 2.02172852 C-14.65551758 1.69172852 -14.65551758 1.36172852 -14.65551758 1.02172852 C-9.77708277 -0.26092567 -5.00060277 -0.07131711 0 0 Z " fill="#799E8D" transform="translate(37.655517578125,119.978271484375)"/>
<path d="M0 0 C0.94487778 -0.0071553 1.88975555 -0.01431061 2.86326599 -0.02168274 C4.42329094 -0.02571609 4.42329094 -0.02571609 6.01483154 -0.02983093 C7.10763931 -0.03640213 8.20044708 -0.04297333 9.32637024 -0.04974365 C12.95527204 -0.0695099 16.58413239 -0.08114674 20.21307373 -0.09111023 C21.45043022 -0.09518576 22.68778671 -0.09926128 23.96263885 -0.10346031 C29.835937 -0.12218114 35.70922191 -0.13674346 41.58254266 -0.14507228 C48.35803084 -0.15483937 55.13319187 -0.18114379 61.90856481 -0.22157317 C67.77971532 -0.25540202 73.65075633 -0.26721984 79.52199554 -0.27127647 C82.0178728 -0.27615293 84.5137463 -0.28779683 87.00955963 -0.30631447 C90.50246816 -0.33061878 93.99452089 -0.32975629 97.48748779 -0.32279968 C98.5194075 -0.33560974 99.55132721 -0.3484198 100.61451721 -0.36161804 C106.56213369 -0.31842518 109.99946345 0.15135208 114.50994873 4.14717102 C116.75228882 7.51068115 116.78093088 8.77027158 116.75994873 12.70967102 C116.76768311 14.16566711 116.76768311 14.16566711 116.77557373 15.65107727 C116.50994873 18.14717102 116.50994873 18.14717102 114.50994873 20.14717102 C114.46096436 19.32732727 114.41197998 18.50748352 114.36151123 17.66279602 C114.24936279 16.04631165 114.24936279 16.04631165 114.13494873 14.39717102 C114.03053467 12.7961554 114.03053467 12.7961554 113.92401123 11.16279602 C113.531801 8.30632148 113.13364876 6.51092481 111.50994873 4.14717102 C108.66444423 3.19866952 106.91752716 3.02156108 103.96884155 3.02018738 C103.03797226 3.01736755 102.10710297 3.01454773 101.14802551 3.01164246 C100.12873459 3.01366669 99.10944366 3.01569092 98.05926514 3.01777649 C96.44668571 3.01514801 96.44668571 3.01514801 94.80152893 3.01246643 C91.2381734 3.00805561 87.67486729 3.01098364 84.11151123 3.01435852 C81.63912954 3.01368516 79.16674792 3.01271487 76.69436646 3.01145935 C71.50756196 3.00998334 66.32077467 3.01213349 61.13397217 3.01679993 C54.48362191 3.0224912 47.83332891 3.01922141 41.18297768 3.01322746 C36.07522273 3.00961418 30.96747737 3.01076408 25.85972214 3.01335526 C23.40769826 3.01402271 20.95567352 3.01320244 18.50365067 3.0108757 C15.07555081 3.00833731 11.64751637 3.01220691 8.21942139 3.01777649 C7.20417892 3.01575226 6.18893646 3.01372803 5.14292908 3.01164246 C3.73816566 3.01587219 3.73816566 3.01587219 2.30502319 3.02018738 C1.49497644 3.0205644 0.6849297 3.02094143 -0.14966393 3.02132988 C-2.67364369 3.15704267 -5.0260844 3.59614439 -7.49005127 4.14717102 C-7.49005127 4.80717102 -7.49005127 5.46717102 -7.49005127 6.14717102 C-8.48005127 5.81717102 -9.47005127 5.48717102 -10.49005127 5.14717102 C-6.88207447 1.41892833 -5.19009778 0.02692818 0 0 Z " fill="#719485" transform="translate(29.49005126953125,21.852828979492188)"/>
<path d="M0 0 C0.33 0 0.66 0 1 0 C1.04628946 7.91885578 1.08185182 15.83765526 1.10362434 23.75661278 C1.11407274 27.4334935 1.12825102 31.11028183 1.15087891 34.78710938 C1.17256991 38.33379655 1.18456067 41.88039472 1.18975449 45.4271431 C1.193457 46.78197252 1.20068689 48.13679694 1.21146011 49.49158859 C1.22592448 51.38545757 1.22681649 53.27941564 1.22705078 55.17333984 C1.231492 56.25255707 1.23593323 57.33177429 1.24050903 58.44369507 C1 61 1 61 -1 63 C-0.67 43.86 -0.34 24.72 0 5 C-0.99 5 -1.98 5 -3 5 C-3.33 5.99 -3.66 6.98 -4 8 C-6.28515625 9.60546875 -6.28515625 9.60546875 -9.0625 11.1875 C-9.98160156 11.71730469 -10.90070313 12.24710938 -11.84765625 12.79296875 C-12.55792969 13.19128906 -13.26820313 13.58960937 -14 14 C-14.66 13.34 -15.32 12.68 -16 12 C-15.01257813 11.30132812 -14.02515625 10.60265625 -13.0078125 9.8828125 C-11.7134704 8.96364202 -10.41920347 8.04436567 -9.125 7.125 C-8.47402344 6.66480469 -7.82304687 6.20460938 -7.15234375 5.73046875 C-6.52714844 5.28574219 -5.90195313 4.84101562 -5.2578125 4.3828125 C-4.6817627 3.97434082 -4.10571289 3.56586914 -3.51220703 3.14501953 C-1.84771607 1.93897192 -1.84771607 1.93897192 0 0 Z " fill="#41695A" transform="translate(145,55)"/>
<path d="M0 0 C0.99 0.99 1.98 1.98 3 3 C2.67 3.33 2.34 3.66 2 4 C1.90133129 5.63072518 1.87201178 7.26570719 1.87060547 8.89941406 C1.86745331 9.94429993 1.86430115 10.98918579 1.86105347 12.06573486 C1.8630777 13.20419861 1.86510193 14.34266235 1.8671875 15.515625 C1.86623077 16.67874207 1.86527405 17.84185913 1.86428833 19.04022217 C1.86360608 21.5084234 1.86546344 23.97662641 1.86962891 26.44482422 C1.87495733 30.21976785 1.86969534 33.99459145 1.86328125 37.76953125 C1.8639424 40.16406276 1.86522433 42.5585942 1.8671875 44.953125 C1.86516327 46.08349182 1.86313904 47.21385864 1.86105347 48.378479 C1.86420563 49.43597351 1.86735779 50.49346802 1.87060547 51.58300781 C1.87140106 52.51042786 1.87219666 53.4378479 1.87301636 54.39337158 C2.00097672 57.02004945 2.41715984 59.43903237 3 62 C2.01 62.495 2.01 62.495 1 63 C-0.35144654 60.29710692 -0.11975165 58.19930194 -0.11352539 55.17333984 C-0.11341209 53.34166763 -0.11341209 53.34166763 -0.11329651 51.47299194 C-0.10818952 50.13564005 -0.10297352 48.79828857 -0.09765625 47.4609375 C-0.0957914 46.09616141 -0.09436781 44.73138466 -0.09336853 43.36660767 C-0.08954863 39.77284907 -0.07972283 36.17913083 -0.06866455 32.58538818 C-0.05843911 28.91891018 -0.05386848 25.25242565 -0.04882812 21.5859375 C-0.0381001 14.39060659 -0.02102999 7.19530895 0 0 Z " fill="#3F6A59" transform="translate(18,55)"/>
<path d="M0 0 C1.73540039 0.07250977 1.73540039 0.07250977 3.50585938 0.14648438 C5.30313477 0.2305957 5.30313477 0.2305957 7.13671875 0.31640625 C8.35423828 0.36861328 9.57175781 0.42082031 10.82617188 0.47460938 C13.82579854 0.60400504 16.82506881 0.73896073 19.82421875 0.87890625 C20.15421875 1.53890625 20.48421875 2.19890625 20.82421875 2.87890625 C10.59421875 2.87890625 0.36421875 2.87890625 -10.17578125 2.87890625 C-10.50578125 2.21890625 -10.83578125 1.55890625 -11.17578125 0.87890625 C-7.34032084 -0.04197632 -3.93476864 -0.17444787 0 0 Z " fill="#3E6857" transform="translate(34.17578125,120.12109375)"/>
<path d="M0 0 C3.83663072 1.34929464 6.65172569 3.07751025 9.8125 5.625 C10.99779297 6.57246094 10.99779297 6.57246094 12.20703125 7.5390625 C12.79871094 8.02117187 13.39039063 8.50328125 14 9 C13.34 9.66 12.68 10.32 12 11 C11.67 10.01 11.34 9.02 11 8 C8.36 8 5.72 8 3 8 C2.87625 7.360625 2.7525 6.72125 2.625 6.0625 C2.315625 5.0415625 2.315625 5.0415625 2 4 C1.34 3.67 0.68 3.34 0 3 C0 2.01 0 1.02 0 0 Z " fill="#63897A" transform="translate(48,77)"/>
<path d="M0 0 C3.83473284 -0.35671933 5.55342875 -0.29771416 8.8125 1.875 C11.28840887 4.28016861 11.94129526 5.11533323 12.16796875 8.53125 C12.17441406 9.5109375 12.18085938 10.490625 12.1875 11.5 C12.20167969 12.4796875 12.21585938 13.459375 12.23046875 14.46875 C12 17 12 17 10 19 C9.95101562 18.18015625 9.90203125 17.3603125 9.8515625 16.515625 C9.73941406 14.89914063 9.73941406 14.89914063 9.625 13.25 C9.55539063 12.18265625 9.48578125 11.1153125 9.4140625 10.015625 C9.01983794 7.14448012 8.65956103 5.35832357 7 3 C3.45411499 1.70079254 3.45411499 1.70079254 0 1 C0 0.67 0 0.34 0 0 Z " fill="#638478" transform="translate(134,23)"/>
<path d="M0 0 C2.25307475 3.37961213 2.05651401 5.06322733 1.93359375 9.00390625 C2.02040951 11.6134859 2.98042819 13.62099911 4 16 C3.67 16.99 3.34 17.98 3 19 C-0.96039495 13.30693227 -1.76968122 8.90189551 -1 2 C-0.67 1.34 -0.34 0.68 0 0 Z " fill="#6C8B7E" transform="translate(19,28)"/>
<path d="M0 0 C-0.18359375 1.796875 -0.18359375 1.796875 -1 4 C-3.28515625 5.703125 -3.28515625 5.703125 -6.0625 7.25 C-7.44115234 8.03117187 -7.44115234 8.03117187 -8.84765625 8.828125 C-9.55792969 9.21484375 -10.26820313 9.6015625 -11 10 C-11.66 9.34 -12.32 8.68 -13 8 C-11.2126038 6.66094733 -9.41995047 5.32890934 -7.625 4 C-6.62726563 3.2575 -5.62953125 2.515 -4.6015625 1.75 C-2 0 -2 0 0 0 Z " fill="#598070" transform="translate(142,59)"/>
<path d="M0 0 C-3.54039134 2.9156164 -7.1626772 5.50127818 -11 8 C-10.67 6.35 -10.34 4.7 -10 3 C-9.34 3 -8.68 3 -8 3 C-7.67 2.01 -7.34 1.02 -7 0 C-4.05610218 -1.17755913 -3.10046087 -1.03348696 0 0 Z " fill="#517B6A" transform="translate(125,60)"/>
<path d="M0 0 C0.99 0.33 1.98 0.66 3 1 C-0.38872633 4.58806317 -3.76141332 7.45684799 -8 10 C-8.66 10 -9.32 10 -10 10 C-9.67 9.01 -9.34 8.02 -9 7 C-8.01 7 -7.02 7 -6 7 C-5.67 6.01 -5.34 5.02 -5 4 C-4.34 4.33 -3.68 4.66 -3 5 C-3 4.01 -3 3.02 -3 2 C-2.01 1.34 -1.02 0.68 0 0 Z " fill="#6C8E80" transform="translate(107,69)"/>
<path d="M0 0 C0.66 0.33 1.32 0.66 2 1 C1.67 1.66 1.34 2.32 1 3 C1.66 3.33 2.32 3.66 3 4 C-0.82320557 5.42258812 -3.91281305 6.24042276 -8 6 C-5.38485683 3.87961365 -2.80362384 1.86908256 0 0 Z " fill="#618877" transform="translate(100,87)"/>
<path d="M0 0 C2.97 1.65 5.94 3.3 9 5 C9 5.99 9 6.98 9 8 C8.67 7.34 8.34 6.68 8 6 C5.47266765 5.34444881 5.47266765 5.34444881 3 5 C3 4.34 3 3.68 3 3 C2.01 3 1.02 3 0 3 C0 2.01 0 1.02 0 0 Z " fill="#638878" transform="translate(31,65)"/>
<path d="M0 0 C6.4 0.49230769 6.4 0.49230769 9.4375 3.0625 C10.2109375 4.0215625 10.2109375 4.0215625 11 5 C10.01 5 9.02 5 8 5 C8 4.34 8 3.68 8 3 C5.36 3 2.72 3 0 3 C0 2.01 0 1.02 0 0 Z " fill="#4A7765" transform="translate(51,82)"/>
<path d="M0 0 C0 0.33 0 0.66 0 1 C-3.3 1.66 -6.6 2.32 -10 3 C-10 3.66 -10 4.32 -10 5 C-10.99 4.67 -11.98 4.34 -13 4 C-9.41420832 -0.98892755 -5.61771415 -0.43213186 0 0 Z " fill="#69887C" transform="translate(32,23)"/>
<path d="M0 0 C0.99 0.33 1.98 0.66 3 1 C2 4 2 4 -1 6 C-1.99 6 -2.98 6 -4 6 C-3.67 5.01 -3.34 4.02 -3 3 C-2.34 3 -1.68 3 -1 3 C-0.67 2.01 -0.34 1.02 0 0 Z " fill="#65897B" transform="translate(141,117)"/>
<path d="M0 0 C0.33 0.66 0.66 1.32 1 2 C0.01 2.495 0.01 2.495 -1 3 C-1.33 3.99 -1.66 4.98 -2 6 C-4.31 6.33 -6.62 6.66 -9 7 C-6.24479785 4.04070881 -3.53372712 1.96318174 0 0 Z " fill="#6C8F80" transform="translate(119,74)"/>
<path d="M0 0 C2.78637633 4.1795645 1.79562512 6.14668677 1 11 C0.34 10.67 -0.32 10.34 -1 10 C-1.125 2.25 -1.125 2.25 0 0 Z " fill="#5A7F70" transform="translate(19,28)"/>
<path d="M0 0 C3.96 0.33 7.92 0.66 12 1 C12 1.33 12 1.66 12 2 C10.37585622 2.19477739 8.75063577 2.38059458 7.125 2.5625 C6.22007813 2.66691406 5.31515625 2.77132812 4.3828125 2.87890625 C2 3 2 3 0 2 C0 1.34 0 0.68 0 0 Z " fill="#6E8D81" transform="translate(74,94)"/>
<path d="M0 0 C1.2065625 0.0309375 1.2065625 0.0309375 2.4375 0.0625 C0.7875 1.7125 -0.8625 3.3625 -2.5625 5.0625 C-3.125 3.125 -3.125 3.125 -3.5625 1.0625 C-2.5625 0.0625 -2.5625 0.0625 0 0 Z " fill="#689081" transform="translate(117.5625,62.9375)"/>
<path d="M0 0 C-0.375 2.4375 -0.375 2.4375 -1 5 C-1.99 5.495 -1.99 5.495 -3 6 C-3.33 4.35 -3.66 2.7 -4 1 C-2 0 -2 0 0 0 Z " fill="#477864" transform="translate(114,64)"/>
<path d="M0 0 C0.66 0.33 1.32 0.66 2 1 C0.25 5.875 0.25 5.875 -2 7 C-2.33 5.68 -2.66 4.36 -3 3 C-2.01 2.67 -1.02 2.34 0 2 C0 1.34 0 0.68 0 0 Z " fill="#648A7A" transform="translate(142,41)"/>
</svg>
