<?xml version="1.0" encoding="UTF-8"?>
<svg version="1.1" xmlns="http://www.w3.org/2000/svg" width="480" height="480">
<path d="M0 0 C158.4 0 316.8 0 480 0 C480 158.4 480 316.8 480 480 C321.6 480 163.2 480 0 480 C0 321.6 0 163.2 0 0 Z " fill="#FEFEFE" transform="translate(0,0)"/>
<path d="M0 0 C0.92055176 0.1448584 1.84110352 0.2897168 2.78955078 0.43896484 C5.67753894 0.91158094 8.55736766 1.41926883 11.4375 1.9375 C12.39720703 2.10701172 13.35691406 2.27652344 14.34570312 2.45117188 C18.09087101 3.1144575 21.83458479 3.78462031 25.57470703 4.47583008 C33.25811378 5.89424936 40.96459076 7.16263719 48.67398071 8.42980957 C61.86287524 10.59972439 75.01442895 12.8945275 88.14770508 15.3815918 C94.9623812 16.659573 101.74534802 17.70694068 108.62890625 18.54296875 C112.98662511 19.1337603 117.28099122 19.97961546 121.59594727 20.82250977 C132.04942136 22.8236501 142.62323642 24.14039097 153.16796875 25.5625 C159.23561519 26.39493167 165.09927176 27.34779609 171 29 C171 29.99 171 30.98 171 32 C170.09378906 32.25394531 169.18757813 32.50789063 168.25390625 32.76953125 C159.87418537 35.13713493 151.57117043 37.52173756 143.5 40.8125 C136.79619191 43.53982565 129.95246929 45.86980443 123.12207031 48.25634766 C119.95204518 49.36724234 116.78835241 50.49523128 113.625 51.625 C112.50738281 52.02332031 111.38976562 52.42164063 110.23828125 52.83203125 C108.08528358 53.60856479 105.93674785 54.39758637 103.79296875 55.19921875 C102.80941406 55.56660156 101.82585937 55.93398438 100.8125 56.3125 C99.52279297 56.80169922 99.52279297 56.80169922 98.20703125 57.30078125 C96 58 96 58 93 58 C93 58.66 93 59.32 93 60 C90.03 60 87.06 60 84 60 C84 60.66 84 61.32 84 62 C76.7282249 64.94467554 69.72329019 67.56006454 62 69 C62 69.66 62 70.32 62 71 C60.99839844 71.25394531 59.99679687 71.50789063 58.96484375 71.76953125 C57.62232073 72.11689735 56.27987701 72.46457005 54.9375 72.8125 C54.28072266 72.97814453 53.62394531 73.14378906 52.94726562 73.31445312 C48.40526537 74.50029556 44.28821708 76.09128285 40 78 C38.57108037 78.52401807 37.13443252 79.02799095 35.6875 79.5 C34.92566406 79.75007813 34.16382813 80.00015625 33.37890625 80.2578125 C31.78924774 80.75376507 30.19255896 81.22770622 28.58984375 81.6796875 C24.14610169 82.93323122 20.04315336 84.37827983 15.875 86.375 C10.02545642 89.13406234 4.01696833 90.9525445 -2.15625 92.8203125 C-7.81628502 94.53656335 -13.33406022 96.60445979 -18.85986328 98.70800781 C-20.92668909 99.49475118 -22.99433078 100.27929508 -25.0625 101.0625 C-25.74787842 101.32248779 -26.43325684 101.58247559 -27.1394043 101.8503418 C-31.732374 103.57442952 -36.34088172 105.08636411 -41.08203125 106.359375 C-43.28955272 107.00343159 -43.28955272 107.00343159 -46 109 C-51.23552305 111.12058976 -56.39429651 112.40364856 -62 113 C-62 113.66 -62 114.32 -62 115 C-63.32 115 -64.64 115 -66 115 C-66 115.66 -66 116.32 -66 117 C-66.73524902 117.22139648 -67.47049805 117.44279297 -68.22802734 117.67089844 C-71.61176058 118.6926636 -74.99337342 119.72128512 -78.375 120.75 C-79.53128906 121.09804688 -80.68757813 121.44609375 -81.87890625 121.8046875 C-93.26172872 125.26043209 -93.26172872 125.26043209 -104.10302734 130.10839844 C-106.49479445 131.23255976 -108.38998642 131.14500075 -111 131 C-111 131.66 -111 132.32 -111 133 C-128.85649203 138.37129841 -128.85649203 138.37129841 -137 140 C-135.52849307 136.66458428 -133.64986972 134.30208471 -131.1875 131.625 C-130.38957031 130.75359375 -129.59164062 129.8821875 -128.76953125 128.984375 C-127.84722093 127.98877967 -126.92398278 126.99404336 -126 126 C-125.47841309 125.43861328 -124.95682617 124.87722656 -124.41943359 124.29882812 C-122.16641219 121.87525399 -119.91291894 119.45212787 -117.65673828 117.03149414 C-114.91098213 114.08042903 -112.19218371 111.11825904 -109.5625 108.0625 C-105.59558842 103.46246538 -101.41155579 99.06469072 -97.25854492 94.63354492 C-93.21019627 90.30967394 -89.22056309 85.94010962 -85.2734375 81.5234375 C-82.54162407 78.49121846 -79.77285591 75.49464973 -77 72.5 C-72.71642558 67.87250366 -68.47567254 63.21028233 -64.265625 58.515625 C-58.85434253 52.5072355 -53.3742318 46.56044988 -47.87890625 40.62890625 C-41.67069702 33.95018598 -41.67069702 33.95018598 -35.625 27.125 C-31.6189433 22.48899827 -27.41203651 18.03598699 -23.19287109 13.59423828 C-19.21903284 9.39344476 -15.56524985 5.0825204 -12.234375 0.34375 C-8.3568832 -1.98816815 -4.30888398 -0.71527624 0 0 Z " fill="#672452" transform="translate(230,243)"/>
<path d="M0 0 C2 2 2 2 2.125 5.125 C2.08375 6.07375 2.0425 7.0225 2 8 C2.66 8 3.32 8 4 8 C4.712014 10.37338 5.42358737 12.74687819 6.1328125 15.12109375 C6.70231332 17.01173385 7.2801859 18.89987635 7.8671875 20.78515625 C8.27324219 22.09806641 8.27324219 22.09806641 8.6875 23.4375 C8.93886719 24.24058594 9.19023437 25.04367188 9.44921875 25.87109375 C10 28 10 28 10 31 C10.66 31 11.32 31 12 31 C12.19335938 31.60328125 12.38671875 32.2065625 12.5859375 32.828125 C12.97652344 34.02695313 12.97652344 34.02695313 13.375 35.25 C13.63023437 36.03890625 13.88546875 36.8278125 14.1484375 37.640625 C14.94279166 39.99735458 14.94279166 39.99735458 16.07421875 42.09765625 C17 44 17 44 17.4375 47.1875 C17.96883086 50.78874249 18.84882686 53.79129102 20.04296875 57.203125 C21.52006591 61.5198661 22.84842 65.88209656 24.19824219 70.23999023 C25.1348216 73.25576115 26.08877343 76.25884462 27.11328125 79.24609375 C28.15284258 82.47468731 28.59657388 85.63811569 29 89 C29.66 89 30.32 89 31 89 C32.3615199 93.47651239 33.71284344 97.95181948 34.94921875 102.46484375 C36.62482418 108.56457736 38.426676 114.28745512 41.1328125 120.00390625 C42.2235522 122.51457287 42.83919868 125.09106703 43.43359375 127.7578125 C44.41361392 131.63734063 45.78561454 135.39027883 47.09765625 139.16796875 C47.39542969 140.10253906 47.69320312 141.03710938 48 142 C48.30808594 142.84175781 48.61617187 143.68351563 48.93359375 144.55078125 C49 147 49 147 46.8984375 149.48046875 C45.46371094 150.72763672 45.46371094 150.72763672 44 152 C35.73296267 160.14921122 35.73296267 160.14921122 27.95703125 168.76171875 C26.3391495 170.61211045 24.6921472 172.41412293 23.01171875 174.20703125 C22.2072229 175.06675537 22.2072229 175.06675537 21.38647461 175.94384766 C20.31923228 177.08098695 19.24858214 178.21494032 18.17407227 179.34521484 C15.31020999 182.40316627 13.14527409 185.38368082 11 189 C9.2734375 190.66796875 9.2734375 190.66796875 7.375 192.1875 C1.77169301 196.91043528 -3.38318249 202.32146655 -7.63671875 208.30078125 C-8.08660156 208.86152344 -8.53648437 209.42226563 -9 210 C-9.66 210 -10.32 210 -11 210 C-11.26482178 210.58700684 -11.52964355 211.17401367 -11.80249023 211.77880859 C-13.04012575 214.07442692 -14.36105977 215.65956381 -16.16015625 217.5390625 C-16.78422363 218.19664551 -17.40829102 218.85422852 -18.05126953 219.53173828 C-18.71497559 220.22251465 -19.37868164 220.91329102 -20.0625 221.625 C-21.43694294 223.07220947 -22.8106443 224.5201236 -24.18359375 225.96875 C-24.84601074 226.66613281 -25.50842773 227.36351562 -26.19091797 228.08203125 C-28.37384481 230.39634613 -30.5077612 232.75052658 -32.625 235.125 C-36.23822828 239.17619535 -39.92279171 243.15540129 -43.625 247.125 C-47.52723089 251.31131197 -51.3797747 255.52149909 -55.109375 259.86328125 C-56.71820886 261.68152944 -58.3551457 263.45973118 -60.015625 265.23046875 C-60.55759521 265.80982178 -61.09956543 266.3891748 -61.65795898 266.98608398 C-62.73944646 268.13906421 -63.82474836 269.28848147 -64.91430664 270.43383789 C-67.47065167 273.16195477 -69.40878762 275.63168594 -71 279 C-72.99665598 280.67067133 -74.99651034 282.33752986 -77 284 C-77.33 284.99 -77.66 285.98 -78 287 C-80.0625 287.6875 -80.0625 287.6875 -82 288 C-81.81824219 287.40574219 -81.63648437 286.81148438 -81.44921875 286.19921875 C-79.12528535 278.53619735 -76.8604891 270.86507419 -75.09765625 263.05078125 C-73.48928872 255.92742551 -71.77456272 248.96577571 -69.375 242.0625 C-67.41556108 236.41931592 -65.93003942 230.89950381 -65 225 C-64.34 225 -63.68 225 -63 225 C-62.87625 223.824375 -62.7525 222.64875 -62.625 221.4375 C-62.20747267 217.47099036 -61.13890694 213.81892221 -60 210 C-59.80229004 209.33701904 -59.60458008 208.67403809 -59.40087891 207.9909668 C-58.98364599 206.59246389 -58.56591166 205.19411049 -58.14770508 203.79589844 C-55.75850274 195.83135853 -55.75850274 195.83135853 -53.8125 187.75 C-53.12600416 184.58155766 -52.24892091 181.96618716 -51 179 C-49.25116578 173.4037305 -48.01996773 167.71735077 -46.78125 161.98828125 C-46 159 -46 159 -44.99609375 157.05859375 C-43.54643102 154.0626241 -43.14803491 151.01840953 -42.5625 147.75 C-41.52628335 142.21464898 -40.13904294 137.20810455 -38 132 C-37.31789326 129.67113348 -36.6536901 127.33700196 -36 125 C-35.59605461 123.61390963 -35.18972891 122.22851113 -34.78125 120.84375 C-34.57113281 120.13089844 -34.36101562 119.41804688 -34.14453125 118.68359375 C-33.71484375 117.22786458 -33.28515625 115.77213542 -32.85546875 114.31640625 C-30.94710561 107.84202086 -29.09269291 101.35430391 -27.30004883 94.84692383 C-24.98849479 86.46212776 -22.58754192 78.10767646 -20.11328125 69.76953125 C-17.85530721 62.22497586 -17.85530721 62.22497586 -16.0625 54.5625 C-15.2613245 50.84681205 -14.11403064 47.42849752 -12.71875 43.8984375 C-12.05008801 42.13229767 -11.51880551 40.31581927 -11 38.5 C-10 35 -10 35 -8.59765625 31.55078125 C-6.52452234 26.08410208 -5.5369633 20.41372683 -4.4375 14.6875 C-4.02570431 12.54437755 -3.60800069 10.40237946 -3.18359375 8.26171875 C-2.91373657 6.85345825 -2.91373657 6.85345825 -2.63842773 5.41674805 C-2 3 -2 3 0 0 Z " fill="#602859" transform="translate(167,90)"/>
<path d="M0 0 C3.81835517 1.61825529 6.67243374 4.16842415 9.75 6.875 C16.6099115 12.79561615 23.81100632 18.187836 31.08935547 23.57861328 C39.30930918 29.69368746 47.34313712 36.04393486 55.33081055 42.45776367 C66.2983089 51.26261685 77.38271277 59.92366013 88.54052734 68.48583984 C97.21725509 75.14580075 105.81427252 81.90492683 114.3984375 88.68359375 C121.53125909 94.30965409 128.720801 99.85509049 135.9465332 105.36132812 C140.61598319 108.92532019 145.23270057 112.54578893 149.8046875 116.234375 C154.71617804 120.18454177 159.7001658 124.04097111 164.75 127.8125 C173.16199088 134.10075354 181.4481852 140.53451428 189.625 147.125 C194.72806869 151.23388028 199.90604357 155.18230766 205.23828125 158.9921875 C209.55454664 162.1301796 213.7498197 165.42097735 217.95703125 168.703125 C220.98719946 171.05486323 220.98719946 171.05486323 224.32421875 173.109375 C227 175 227 175 228 178 C220.97326485 177.49656013 213.98059091 176.95812032 207 176 C207 175.34 207 174.68 207 174 C206.12730469 174.02835938 205.25460937 174.05671875 204.35546875 174.0859375 C201.07269431 174.00186179 198.4716172 173.47699155 195.3125 172.625 C186.65203458 170.50509489 177.86420071 169.7956252 169 169 C169 168.34 169 167.68 169 167 C168.35417969 166.96261719 167.70835937 166.92523438 167.04296875 166.88671875 C159.5951207 166.36710144 152.29763886 165.33162603 144.94018555 164.10424805 C139.6373634 163.22572993 134.34695415 162.55441997 129 162 C129 161.34 129 160.68 129 160 C128.39526855 159.9498877 127.79053711 159.89977539 127.16748047 159.84814453 C124.40261836 159.61469552 121.63886633 159.36994583 118.875 159.125 C117.92367187 159.04636719 116.97234375 158.96773437 115.9921875 158.88671875 C111.00074751 158.43610264 106.74672448 157.66332589 102 156 C99.32523455 155.63002732 96.68453612 155.31711833 94 155.0625 C86.18058328 154.24174825 78.6556067 152.81987481 71 151 C71 150.34 71 149.68 71 149 C69.96875 149.04125 68.9375 149.0825 67.875 149.125 C61.55235403 149.125 55.178617 148.31356424 49 147 C46.8603446 144.8603446 46.45943034 143.79433013 45.59765625 140.96484375 C45.34693359 140.15466797 45.09621094 139.34449219 44.83789062 138.50976562 C44.58201172 137.66091797 44.32613281 136.81207031 44.0625 135.9375 C43.55411533 134.2797239 43.04500275 132.62217085 42.53515625 130.96484375 C42.28145264 130.13815186 42.02774902 129.31145996 41.76635742 128.4597168 C39.92399124 122.54641979 37.90934487 116.69895106 35.80541992 110.87426758 C32.17071264 100.78714863 28.61044692 90.63532769 27 80 C26.34 80 25.68 80 25 80 C24.67 77.69 24.34 75.38 24 73 C23.34 73 22.68 73 22 73 C21.49490792 70.75113762 20.99610821 68.50086131 20.5 66.25 C20.2215625 64.99703125 19.943125 63.7440625 19.65625 62.453125 C19 59 19 59 19 55 C18.34 55 17.68 55 17 55 C16.61908203 53.42412109 16.61908203 53.42412109 16.23046875 51.81640625 C14.42715692 44.43057637 12.54277997 37.17063953 10 30 C9.33009272 28.00108312 8.66364932 26.00100325 8 24 C7.03974721 21.10816178 6.07588274 18.21896673 5.078125 15.33984375 C4.80484375 14.54707031 4.5315625 13.75429687 4.25 12.9375 C3.88648438 11.89916016 3.88648438 11.89916016 3.515625 10.83984375 C3 9 3 9 3 6 C2.34 6 1.68 6 1 6 C0.67 4.02 0.34 2.04 0 0 Z " fill="#741D46" transform="translate(175,87)"/>
<path d="M0 0 C10.2262769 0.31320909 20.25253767 1.47239796 30.375 2.9375 C32.185448 3.19225098 32.185448 3.19225098 34.0324707 3.45214844 C35.16386475 3.62133789 36.29525879 3.79052734 37.4609375 3.96484375 C38.98920166 4.19095337 38.98920166 4.19095337 40.54833984 4.42163086 C43 5 43 5 45 7 C43.35 7.66 41.7 8.32 40 9 C39.505 8.01 39.505 8.01 39 7 C36.69485148 6.76502357 34.37833567 6.63884623 32.0625 6.5625 C26.59010442 6.30933326 21.80683692 5.55293102 16.62890625 3.765625 C11.22532379 2.19192194 5.57454887 1.68276175 0 1 C0 0.67 0 0.34 0 0 Z " fill="#526298" transform="translate(350,265)"/>
<path d="M0 0 C0.33 0.66 0.66 1.32 1 2 C-3.55477952 7.93460979 -8.33236867 13.60229921 -13.375 19.125 C-13.89868164 19.70531982 -14.42236328 20.28563965 -14.96191406 20.88354492 C-16.2655172 22.29606474 -17.62824369 23.65356842 -19 25 C-19.66 25 -20.32 25 -21 25 C-20.34 26.65 -19.68 28.3 -19 30 C-21.31 30.33 -23.62 30.66 -26 31 C-24.52849307 27.66458428 -22.64986972 25.30208471 -20.1875 22.625 C-19.39601563 21.76003906 -18.60453125 20.89507812 -17.7890625 20.00390625 C-15.72679456 17.77747392 -13.65646412 15.5585947 -11.5859375 13.33984375 C-11.00303955 12.7144873 -10.4201416 12.08913086 -9.81958008 11.44482422 C-8.66304377 10.20585035 -7.50408653 8.96913119 -6.3425293 7.73486328 C-5.80797119 7.16364746 -5.27341309 6.59243164 -4.72265625 6.00390625 C-4.24578369 5.49674072 -3.76891113 4.9895752 -3.27758789 4.46704102 C-1.7852005 2.81660268 -1.7852005 2.81660268 0 0 Z " fill="#AD2034" transform="translate(119,352)"/>
<path d="M0 0 C3.09323814 5.71059348 4.96320139 11.64769342 6.4375 17.9375 C7.33613377 21.71176183 8.37338114 25.07165436 10.0625 28.5625 C12.43669217 33.51100781 13.23280945 38.59938228 14 44 C11.10115224 40.50007882 10.68852434 38.56830973 11 34 C10.34 34 9.68 34 9 34 C6.20716227 26.72079528 3.89874603 19.38866585 1.83203125 11.87109375 C1.11907099 9.08765674 1.11907099 9.08765674 0 7 C-0.04022391 4.6670134 -0.04320247 2.33293334 0 0 Z " fill="#3F77B2" transform="translate(197,179)"/>
<path d="M0 0 C6.14596374 0.43653574 12.05040422 1.06711286 18.02734375 2.59765625 C20.31767334 3.13323065 20.31767334 3.13323065 24 3 C23.67 2.34 23.34 1.68 23 1 C25.4375 1.8125 25.4375 1.8125 28 3 C28.33 3.99 28.66 4.98 29 6 C21.97326485 5.49656013 14.98059091 4.95812032 8 4 C8 3.34 8 2.68 8 2 C7.05125 2.04125 6.1025 2.0825 5.125 2.125 C2 2 2 2 0 0 Z " fill="#6897C8" transform="translate(374,259)"/>
<path d="M0 0 C0.33 0 0.66 0 1 0 C0.23440727 11.10109459 -3.3916662 21.53583199 -7 32 C-8.96099544 25.86667383 -6.40675071 19.71603293 -4 14 C-3.31060191 11.67328146 -2.64533078 9.33932406 -2 7 C-1.62635225 5.6871144 -1.25140016 4.37459915 -0.875 3.0625 C-0.441875 1.5465625 -0.441875 1.5465625 0 0 Z " fill="#9F2844" transform="translate(120,255)"/>
<path d="M0 0 C0.33 0.99 0.66 1.98 1 3 C0.5968457 3.42821045 0.19369141 3.8564209 -0.22167969 4.29760742 C-2.06636913 6.25911307 -3.90820119 8.22328004 -5.75 10.1875 C-6.38421875 10.86103516 -7.0184375 11.53457031 -7.671875 12.22851562 C-10.32336107 15.0595294 -12.86712016 17.82353369 -15.203125 20.92578125 C-17.13583459 23.15680037 -18.10784328 23.69012607 -21 24 C-16.78628686 18.98909789 -12.41644928 14.14677467 -7.9597168 9.35253906 C-5.16755569 6.33361101 -2.52948066 3.24201042 0 0 Z " fill="#AA3A54" transform="translate(141,328)"/>
<path d="M0 0 C0.33 0 0.66 0 1 0 C1.1953125 6.0546875 1.1953125 6.0546875 1 8 C0.34 8.66 -0.32 9.32 -1 10 C-1.26005804 11.98294257 -1.51548511 13.96706955 -1.71484375 15.95703125 C-2.07081982 18.50738036 -2.91058424 20.67591304 -4 23 C-4.33 23 -4.66 23 -5 23 C-4.52053882 17.43572679 -3.68481954 12.35177971 -2 7 C-1.62125835 5.68857482 -1.24617392 4.37608714 -0.875 3.0625 C-0.441875 1.5465625 -0.441875 1.5465625 0 0 Z " fill="#952449" transform="translate(129,222)"/>
<path d="M0 0 C3.20605524 3.48484265 3.39554432 6.39102543 4 11 C4.70312877 13.32911404 5.49626552 15.61434307 6.30078125 17.91015625 C7.08239613 20.24626775 7.60786356 22.56875406 8 25 C6 24 6 24 5.25390625 21.77734375 C5.02574219 20.84019531 4.79757813 19.90304688 4.5625 18.9375 C3.66127635 15.39238044 2.68656498 12.01479239 1.3125 8.625 C0.14442398 5.39888527 -0.31569263 3.36738802 0 0 Z " fill="#858BB0" transform="translate(181,130)"/>
<path d="M0 0 C0 4.15560231 -2.2820452 5.84099329 -5 8.6875 C-5.47695312 9.19861328 -5.95390625 9.70972656 -6.4453125 10.23632812 C-7.62359915 11.49709484 -8.81095253 12.74937686 -10 14 C-10.66 13.67 -11.32 13.34 -12 13 C-8.04 8.71 -4.08 4.42 0 0 Z " fill="#954365" transform="translate(200,264)"/>
<path d="M0 0 C0.33 1.32 0.66 2.64 1 4 C-1.64 6.31 -4.28 8.62 -7 11 C-7.66 10.67 -8.32 10.34 -9 10 C-8.27683594 9.29423828 -8.27683594 9.29423828 -7.5390625 8.57421875 C-6.90742188 7.95160156 -6.27578125 7.32898438 -5.625 6.6875 C-4.68527344 5.76517578 -4.68527344 5.76517578 -3.7265625 4.82421875 C-1.81913393 2.91187472 -1.81913393 2.91187472 0 0 Z " fill="#983455" transform="translate(172,294)"/>
<path d="M0 0 C1.98 0 3.96 0 6 0 C6 0.99 6 1.98 6 3 C1.71 3.99 -2.58 4.98 -7 6 C-6 4 -6 4 -2.9375 2.875 C-1.4834375 2.441875 -1.4834375 2.441875 0 2 C0 1.34 0 0.68 0 0 Z " fill="#4D6DA5" transform="translate(395,272)"/>
<path d="M0 0 C2.12563103 0.11376617 4.2505261 0.24135631 6.375 0.375 C8.15003906 0.47941406 8.15003906 0.47941406 9.9609375 0.5859375 C13 1 13 1 15 3 C13.35 3.66 11.7 4.32 10 5 C9.67 4.34 9.34 3.68 9 3 C7.13507598 2.61004898 7.13507598 2.61004898 5 2.5 C2.8125 2.34375 2.8125 2.34375 1 2 C0.67 1.34 0.34 0.68 0 0 Z " fill="#6A7DAD" transform="translate(380,269)"/>
<path d="M0 0 C0.33 0.66 0.66 1.32 1 2 C-1.64 5.3 -4.28 8.6 -7 12 C-7.99 11.67 -8.98 11.34 -10 11 C-9.44570312 10.45730469 -8.89140625 9.91460937 -8.3203125 9.35546875 C-7.23363281 8.28232422 -7.23363281 8.28232422 -6.125 7.1875 C-5.40570313 6.47980469 -4.68640625 5.77210938 -3.9453125 5.04296875 C-1.84641063 2.95600806 -1.84641063 2.95600806 0 0 Z " fill="#B33B51" transform="translate(119,352)"/>
<path d="M0 0 C2 2 2 2 2 6 C2.99 6.33 3.98 6.66 5 7 C5 9.64 5 12.28 5 15 C3 12 3 12 3 8 C2.34 8 1.68 8 1 8 C0.67 5.36 0.34 2.72 0 0 Z " fill="#C96F7D" transform="translate(196,152)"/>
<path d="M0 0 C4.08510638 6.12765957 4.08510638 6.12765957 3.75 9.5625 C3 12 3 12 1 15 C0.34 14.67 -0.32 14.34 -1 14 C-0.34 13.01 0.32 12.02 1 11 C1.02477359 8.24612373 1.02477359 8.24612373 0.625 5.3125 C0.51414063 4.31863281 0.40328125 3.32476562 0.2890625 2.30078125 C0.19367188 1.54152344 0.09828125 0.78226563 0 0 Z " fill="#6E9DCC" transform="translate(212,226)"/>
<path d="M0 0 C-3.30998105 2.20665404 -5.82021436 2.78262095 -9.6875 3.625 C-10.86699219 3.88539063 -12.04648438 4.14578125 -13.26171875 4.4140625 C-14.61716797 4.70410156 -14.61716797 4.70410156 -16 5 C-14.54987453 2.09974906 -12.68687091 1.91293145 -9.6875 0.8125 C-8.72199219 0.44769531 -7.75648438 0.08289063 -6.76171875 -0.29296875 C-3.9652203 -1.008904 -2.66140462 -0.99249531 0 0 Z " fill="#BFA1B2" transform="translate(236,334)"/>
<path d="M0 0 C0.66 0.33 1.32 0.66 2 1 C1.09515208 2.15518918 0.1755794 3.29885406 -0.75 4.4375 C-1.26046875 5.07558594 -1.7709375 5.71367187 -2.296875 6.37109375 C-4.19667629 8.18810554 -5.43586908 8.60423197 -8 9 C-7.04270084 7.87411986 -6.08412105 6.7493285 -5.125 5.625 C-4.59132813 4.99851562 -4.05765625 4.37203125 -3.5078125 3.7265625 C-2.38567993 2.44163349 -1.20628025 1.20628025 0 0 Z " fill="#A92B43" transform="translate(128,343)"/>
<path d="M0 0 C1 2 1 2 1 5 C1.33 5.66 1.66 6.32 2 7 C-0.31 7.33 -2.62 7.66 -5 8 C-3.62845496 5.04590299 -2.01136276 2.55991624 0 0 Z " fill="#B32D3D" transform="translate(98,375)"/>
<path d="M0 0 C0 3.15081975 -0.27898465 4.41847698 -2 7 C-4.125 7.75 -4.125 7.75 -6 8 C-5.8125 5.6875 -5.8125 5.6875 -5 3 C-2.4375 1.1875 -2.4375 1.1875 0 0 Z " fill="#B83D4B" transform="translate(91,370)"/>
<path d="M0 0 C0.33 0.99 0.66 1.98 1 3 C-0.98 4.98 -2.96 6.96 -5 9 C-5.66 8.67 -6.32 8.34 -7 8 C-4.69 5.36 -2.38 2.72 0 0 Z " fill="#8E4869" transform="translate(208,255)"/>
<path d="M0 0 C0.33 0 0.66 0 1 0 C1 2.64 1 5.28 1 8 C0.01 8.33 -0.98 8.66 -2 9 C-2.33 9.99 -2.66 10.98 -3 12 C-2.25749403 7.91621717 -1.17076699 3.98060777 0 0 Z " fill="#A6576F" transform="translate(129,222)"/>
<path d="M0 0 C2.4375 0.8125 2.4375 0.8125 5 2 C5.33 2.99 5.66 3.98 6 5 C4.02 5 2.04 5 0 5 C0 3.33333333 0 1.66666667 0 0 Z " fill="#6797C8" transform="translate(397,260)"/>
</svg>
