<?xml version="1.0" encoding="UTF-8"?>
<svg version="1.1" xmlns="http://www.w3.org/2000/svg" width="320" height="320">
<path d="M0 0 C105.6 0 211.2 0 320 0 C320 105.6 320 211.2 320 320 C214.4 320 108.8 320 0 320 C0 214.4 0 108.8 0 0 Z " fill="#FED601" transform="translate(0,0)"/>
<path d="M0 0 C32.88738405 16.19994289 75.02008751 15.80014361 109.42578125 4.6875 C115.31433927 2.54428974 120.81165638 0.11544404 126.17578125 -3.125 C130.56035394 -5.64295207 133.40453959 -5.98199889 138.42578125 -5.3125 C142.1744938 -3.64640553 144.23525487 -1.7451405 146.42578125 1.6875 C147.29836583 5.72574026 147.26595017 9.75111069 145.60546875 13.578125 C133.94053906 29.27809326 106.54248939 36.30905122 88.42578125 39.6875 C82.65194975 40.53818037 77.03488123 40.85996959 71.203125 40.890625 C70.33998184 40.89632507 69.47683868 40.90202515 68.58753967 40.90789795 C66.76808882 40.91729343 64.94862137 40.92386007 63.12915039 40.92773438 C60.39502931 40.93738791 57.66167802 40.96844217 54.92773438 41 C44.33347066 41.06369369 34.71838719 40.25255618 24.42578125 37.6875 C23.15911621 37.3975415 21.89245117 37.10758301 20.58740234 36.80883789 C5.56078974 33.31037215 -15.09482359 26.19204701 -24.92578125 13.69921875 C-27.21521464 9.51639139 -27.42293327 6.33399769 -26.57421875 1.6875 C-24.81692683 -1.37148964 -23.34761852 -2.826363 -20.38671875 -4.6875 C-12.534358 -6.43246905 -6.87248233 -3.63272255 0 0 Z " fill="#40403B" transform="translate(99.57421875,169.3125)"/>
<path d="M0 0 C1.06734375 0.63615234 1.06734375 0.63615234 2.15625 1.28515625 C9.5278753 6.22249484 13.24432013 13.38120791 15 22 C15.83848163 30.72020899 13.38166329 39.44655231 7.80859375 46.21484375 C1.60985682 52.33325148 -5.47421029 56.28070366 -14.25 56.3125 C-24.61843824 56.10209201 -30.75105883 53.39721497 -38 46 C-44.80542122 38.82671817 -45.62871916 31.25506403 -45.41015625 21.6953125 C-44.52927697 13.75900963 -40.68965212 7.83004912 -34.8984375 2.46875 C-24.63086714 -5.47488468 -11.21259412 -6.71500506 0 0 Z " fill="#40403C" transform="translate(175,112)"/>
<path d="M0 0 C19.8 0.495 19.8 0.495 40 1 C39.67 1.99 39.34 2.98 39 4 C35.04168191 4.02892857 31.08339083 4.04677427 27.125 4.0625 C25.43310547 4.07506836 25.43310547 4.07506836 23.70703125 4.08789062 C22.63066406 4.09111328 21.55429688 4.09433594 20.4453125 4.09765625 C19.45031738 4.10289307 18.45532227 4.10812988 17.43017578 4.11352539 C15 4 15 4 13 3 C10.795636 2.77049681 8.58607827 2.58924067 6.375 2.4375 C5.18648437 2.35371094 3.99796875 2.26992187 2.7734375 2.18359375 C1.40058594 2.09271484 1.40058594 2.09271484 0 2 C0 1.34 0 0.68 0 0 Z " fill="#DABE20" transform="translate(132,209)"/>
<path d="M0 0 C0.74886475 0.00523682 1.49772949 0.01047363 2.26928711 0.01586914 C3.07817383 0.0190918 3.88706055 0.02231445 4.72045898 0.02563477 C5.5705957 0.03401367 6.42073242 0.04239258 7.29663086 0.05102539 C8.15063477 0.05553711 9.00463867 0.06004883 9.88452148 0.06469727 C12.00108749 0.07652166 14.11761771 0.0944577 16.23413086 0.11352539 C16.23413086 0.44352539 16.23413086 0.77352539 16.23413086 1.11352539 C1.62120694 3.65490346 -12.98002596 3.31611388 -27.76586914 3.11352539 C-27.76586914 2.78352539 -27.76586914 2.45352539 -27.76586914 2.11352539 C-26.63773804 2.07594116 -26.63773804 2.07594116 -25.48681641 2.03759766 C-22.10047718 1.92202026 -18.71444301 1.79912194 -15.32836914 1.67602539 C-13.55236328 1.61705078 -13.55236328 1.61705078 -11.74047852 1.55688477 C-10.61577148 1.51499023 -9.49106445 1.4730957 -8.33227539 1.42993164 C-7.29014893 1.39327393 -6.24802246 1.35661621 -5.17431641 1.31884766 C-2.62716187 1.10170047 -2.35497826 0.15139844 0 0 Z " fill="#E6C92C" transform="translate(173.765869140625,178.886474609375)"/>
<path d="M0 0 C3.3 0 6.6 0 10 0 C10 0.33 10 0.66 10 1 C9.40832031 1.08636719 8.81664063 1.17273438 8.20703125 1.26171875 C4.1677022 1.97996812 1.3805059 2.74374092 -2.0625 5.0625 C-4.71567329 9.08505305 -4.58690471 12.3131467 -4 17 C-3.69213485 18.33944315 -3.36644685 19.67538474 -3 21 C-3.66 21 -4.32 21 -5 21 C-7.16577207 17.7513419 -7.24955466 16.81398653 -7.1875 13.0625 C-7.18105469 12.20785156 -7.17460938 11.35320312 -7.16796875 10.47265625 C-7.01275689 8.18779332 -6.63624477 6.19377195 -6 4 C-5.01 4 -4.02 4 -3 4 C-3 3.34 -3 2.68 -3 2 C-2.01 2 -1.02 2 0 2 C0 1.34 0 0.68 0 0 Z " fill="#E2C729" transform="translate(78,163)"/>
<path d="M0 0 C0.99 0 1.98 0 3 0 C4.2054909 13.45174767 4.2054909 13.45174767 -0.375 19.3125 C-2.21272735 21.35820061 -3.54502815 22.77251407 -6 24 C-6.66 23.67 -7.32 23.34 -8 23 C-8 23.66 -8 24.32 -8 25 C-9.32 24.67 -10.64 24.34 -12 24 C-11.31292969 23.54109375 -10.62585938 23.0821875 -9.91796875 22.609375 C-9.01691406 21.99578125 -8.11585938 21.3821875 -7.1875 20.75 C-6.29417969 20.14671875 -5.40085938 19.5434375 -4.48046875 18.921875 C-1.25783405 16.42496748 0.77906101 14.66493308 1.328125 10.52734375 C1.30234375 9.67269531 1.2765625 8.81804687 1.25 7.9375 C1.23453125 7.08027344 1.2190625 6.22304687 1.203125 5.33984375 C1.07820224 2.84628175 1.07820224 2.84628175 0 0 Z " fill="#CFB92B" transform="translate(244,168)"/>
<path d="M0 0 C0 0.66 0 1.32 0 2 C-0.99 2 -1.98 2 -3 2 C-3 2.66 -3 3.32 -3 4 C-10.17404892 6.54080899 -15.93972596 6.30950346 -23 3 C-18.73441058 1.57813686 -14.69026729 2.03188887 -10.2265625 2.16015625 C-6.51841801 1.97609581 -3.57061886 0 0 0 Z " fill="#E6C725" transform="translate(174,165)"/>
<path d="M0 0 C7.77232205 1.30048696 15.37726245 3.00451897 23 5 C23 5.33 23 5.66 23 6 C16.59370576 6.20852314 11.07027358 6.1583195 5 4 C5 3.34 5 2.68 5 2 C3.35 1.67 1.7 1.34 0 1 C0 0.67 0 0.34 0 0 Z " fill="#DFC42B" transform="translate(109,203)"/>
<path d="M0 0 C0.804375 0.144375 1.60875 0.28875 2.4375 0.4375 C6.61359481 1.09688339 10.79598059 1.56091353 15 2 C15 2.66 15 3.32 15 4 C16.65 4 18.3 4 20 4 C20.33 4.66 20.66 5.32 21 6 C13.39845954 5.67021516 7.02680781 3.87217429 0 1 C0 0.67 0 0.34 0 0 Z " fill="#DFC52D" transform="translate(109,173)"/>
<path d="M0 0 C5.28 0.33 10.56 0.66 16 1 C16 1.66 16 2.32 16 3 C10.72 3 5.44 3 0 3 C0 2.01 0 1.02 0 0 Z " fill="#FEDC1D" transform="translate(104,317)"/>
<path d="M0 0 C0.33 0 0.66 0 1 0 C1.03738281 0.67804688 1.07476562 1.35609375 1.11328125 2.0546875 C1.58485329 8.73066814 2.81921135 14.67708447 5 21 C4.01 20.67 3.02 20.34 2 20 C2 18.68 2 17.36 2 16 C1.34 16 0.68 16 0 16 C0 10.72 0 5.44 0 0 Z " fill="#D7BD25" transform="translate(129,134)"/>
<path d="M0 0 C2.31 0 4.62 0 7 0 C6 2 6 2 2.7265625 3.10546875 C1.36165667 3.47468644 -0.00568395 3.8349902 -1.375 4.1875 C-2.40367187 4.47270508 -2.40367187 4.47270508 -3.453125 4.76367188 C-6.82345045 5.65215261 -8.62733855 6.12422048 -12 5 C-10.56445975 4.49440092 -9.1264798 3.9957251 -7.6875 3.5 C-6.88699219 3.2215625 -6.08648437 2.943125 -5.26171875 2.65625 C-3 2 -3 2 0 2 C0 1.34 0 0.68 0 0 Z " fill="#DFC72C" transform="translate(203,173)"/>
<path d="M0 0 C4.74018901 1.83491188 9.36413251 3.91941459 14 6 C13.67 6.66 13.34 7.32 13 8 C12.01 8 11.02 8 10 8 C10 7.34 10 6.68 10 6 C9.46375 5.896875 8.9275 5.79375 8.375 5.6875 C5.37497956 4.81907303 2.7620465 3.44379704 0 2 C0 1.34 0 0.68 0 0 Z " fill="#E1C92C" transform="translate(88,193)"/>
<path d="M0 0 C0.53625 0.2475 1.0725 0.495 1.625 0.75 C0.305 1.74 -1.015 2.73 -2.375 3.75 C-3.035 3.42 -3.695 3.09 -4.375 2.75 C-4.375 3.41 -4.375 4.07 -4.375 4.75 C-5.695 4.42 -7.015 4.09 -8.375 3.75 C-2.95961538 -0.31153846 -2.95961538 -0.31153846 0 0 Z " fill="#E8CC20" transform="translate(240.375,188.25)"/>
<path d="M0 0 C4.55737263 0.43820891 7.57653445 0.85041169 11 4 C8 5 8 5 5.95703125 4.22265625 C5.24933594 3.83980469 4.54164062 3.45695313 3.8125 3.0625 C3.09707031 2.68222656 2.38164063 2.30195313 1.64453125 1.91015625 C1.10183594 1.60980469 0.55914062 1.30945313 0 1 C0 0.67 0 0.34 0 0 Z " fill="#DFC526" transform="translate(93,166)"/>
<path d="M0 0 C1.14926266 0.95421808 2.29430541 1.91352045 3.4375 2.875 C4.07558594 3.40867188 4.71367187 3.94234375 5.37109375 4.4921875 C7 6 7 6 8 8 C5.6875 7.8125 5.6875 7.8125 3 7 C0 2.96551724 0 2.96551724 0 0 Z " fill="#D8BF27" transform="translate(134,155)"/>
</svg>
