<?xml version="1.0" encoding="UTF-8"?>
<svg version="1.1" xmlns="http://www.w3.org/2000/svg" width="168" height="142">
<path d="M0 0 C2.84566774 1.2038937 4.49959012 2.9054524 6.68383789 5.09144592 C7.58124191 5.98262115 8.47864594 6.87379639 9.40324402 7.79197693 C10.37379332 8.77121379 11.34402607 9.75076448 12.31396484 10.73060608 C13.31425224 11.73141222 14.31505841 12.73170012 15.31636047 13.73149109 C17.41155147 15.82677173 19.5014831 17.92711905 21.58764648 20.03138733 C24.26255141 22.72899373 26.94840335 25.415372 29.63804913 28.09827232 C31.70504808 30.16193089 33.76702897 32.23054337 35.82743263 34.30078506 C36.81608427 35.29328668 37.80608893 36.28444241 38.79746056 37.27422714 C40.18119606 38.65759204 41.55769377 40.0481853 42.93383789 41.43910217 C44.11153999 42.62371536 44.11153999 42.62371536 45.31303406 43.83226013 C47.11474609 45.89466858 47.11474609 45.89466858 48.11474609 48.89466858 C32.27474609 64.73466858 16.43474609 80.57466858 0.11474609 96.89466858 C-4.50111393 92.93821713 -8.68706391 89.19525346 -12.88525391 84.89466858 C-11.44271734 81.52874992 -9.55260663 79.38419779 -6.88525391 76.89466858 C-4.3916382 78.09848306 -2.20382308 79.3489558 0.11474609 80.89466858 C10.67474609 70.33466858 21.23474609 59.77466858 32.11474609 48.89466858 C28.12685107 44.24212438 24.17630832 39.81696758 19.84130859 35.52357483 C19.27270111 34.95638229 18.70409363 34.38918976 18.11825562 33.80480957 C16.32778374 32.01986945 14.53384125 30.23846602 12.73974609 28.45716858 C11.51425286 27.23669919 10.28899037 26.01599805 9.06396484 24.7950592 C6.08354835 21.82558101 3.10001715 18.85926601 0.11474609 15.89466858 C-0.991848 16.83344784 -2.09704189 17.77387774 -3.20166016 18.71498108 C-4.12507202 19.50026184 -4.12507202 19.50026184 -5.06713867 20.30140686 C-7.45761976 22.39624768 -9.67204554 24.61439329 -11.88525391 26.89466858 C-10.42779967 30.25802452 -8.57407537 32.44000863 -5.97119141 35.00404358 C-5.21064453 35.75814514 -4.45009766 36.5122467 -3.66650391 37.28919983 C-2.87244141 38.06650452 -2.07837891 38.8438092 -1.26025391 39.64466858 C-0.45845703 40.43744202 0.34333984 41.23021545 1.16943359 42.04701233 C3.14677455 44.00081351 5.12863518 45.94978961 7.11474609 47.89466858 C6.18821909 49.07006854 5.24811222 50.23477435 4.30224609 51.39466858 C3.78017578 52.04435608 3.25810547 52.69404358 2.72021484 53.36341858 C1.11474609 54.89466858 1.11474609 54.89466858 -1.88525391 54.89466858 C-4.00105413 53.10275376 -5.94523337 51.30273114 -7.90087891 49.34779358 C-8.7637149 48.49637787 -8.7637149 48.49637787 -9.64398193 47.62776184 C-10.85815724 46.42439754 -12.06836994 45.2170239 -13.27490234 44.0059967 C-15.12816271 42.1517635 -17.00168943 40.31986145 -18.87744141 38.48841858 C-20.05321946 37.3178468 -21.22774245 36.14601274 -22.40087891 34.97279358 C-22.96534729 34.42472046 -23.52981567 33.87664734 -24.11138916 33.31196594 C-27.82801765 29.52764785 -27.82801765 29.52764785 -28.06713867 26.88319397 C-26.27255218 23.8637957 -23.92605167 21.46765525 -21.45947266 19.00013733 C-20.91547318 18.44852432 -20.37147369 17.89691132 -19.81098938 17.32858276 C-18.66066918 16.1674739 -17.50636553 15.01029978 -16.34838867 13.85682678 C-14.57543785 12.08485105 -12.82489482 10.2926121 -11.07470703 8.4981842 C-9.95426486 7.37253715 -8.83256165 6.24814359 -7.70947266 5.12513733 C-7.18641037 4.58567978 -6.66334808 4.04622223 -6.12443542 3.49041748 C-2.42911082 -0.13571737 -2.42911082 -0.13571737 0 0 Z " fill="#2E6651" transform="translate(104.88525390625,24.105331420898438)"/>
<path d="M0 0 C3.85027991 1.78200687 6.2799142 4.07675405 9.25 7.125 C10.14203125 8.03507812 11.0340625 8.94515625 11.953125 9.8828125 C12.62859375 10.58148438 13.3040625 11.28015625 14 12 C13.07347299 13.17539996 12.13336613 14.34010577 11.1875 15.5 C10.40439453 16.47453125 10.40439453 16.47453125 9.60546875 17.46875 C8 19 8 19 5 19 C3.68 18.01 2.36 17.02 1 16 C-9.56 26.56 -20.12 37.12 -31 48 C-25.562009 54.34432283 -19.95183431 60.33575235 -14.0859375 66.26416016 C-12.93637522 67.43045408 -11.79222878 68.60210878 -10.65332031 69.77880859 C-8.9969024 71.48968278 -7.32490461 73.18379576 -5.6484375 74.875 C-4.88737198 75.67006958 -4.88737198 75.67006958 -4.1109314 76.48120117 C-2.52595364 78.11454756 -2.52595364 78.11454756 0 80 C3.28962858 79.94735424 4.02860296 78.97354226 6.5 76.6875 C7.7375 75.3571875 7.7375 75.3571875 9 74 C10.33333333 72.66666667 11.66666667 71.33333333 13 70 C11.54254576 66.63664406 9.68882146 64.45465995 7.0859375 61.890625 C6.32539062 61.13652344 5.56484375 60.38242188 4.78125 59.60546875 C3.9871875 58.82816406 3.193125 58.05085938 2.375 57.25 C1.57320312 56.45722656 0.77140625 55.66445312 -0.0546875 54.84765625 C-2.03202846 52.89385507 -4.01388909 50.94487897 -6 49 C-4.44805246 45.67240077 -2.69378051 43.51419515 0 41 C4.10108886 42.62156024 6.83148167 45.5767703 9.859375 48.6640625 C10.40861633 49.21613373 10.95785767 49.76820496 11.52374268 50.33700562 C13.27059293 52.09501815 15.01034601 53.8598689 16.75 55.625 C17.93573591 56.8207708 19.1219288 58.01608865 20.30859375 59.2109375 C23.21105085 62.13540253 26.1071641 65.06601874 29 68 C27.37843976 72.10108886 24.4232297 74.83148167 21.3359375 77.859375 C20.78386627 78.40861633 20.23179504 78.95785767 19.66299438 79.52374268 C17.90498185 81.27059293 16.1401311 83.01034601 14.375 84.75 C13.1792292 85.93573591 11.98391135 87.1219288 10.7890625 88.30859375 C7.86459747 91.21105085 4.93398126 94.1071641 2 97 C-3.96118297 92.06002739 -9.41486302 86.71470138 -14.87109375 81.2265625 C-15.793423 80.3028183 -16.71575226 79.3790741 -17.66603088 78.42733765 C-20.09633814 75.99324569 -22.52362496 73.55616403 -24.95025635 71.1184082 C-27.43569364 68.6226689 -29.92402932 66.12982292 -32.41210938 63.63671875 C-37.27755096 58.7606114 -42.13980198 53.88133369 -47 49 C-45.4819272 45.4252101 -43.38425289 43.14188276 -40.64208984 40.41503906 C-39.74130707 39.51440735 -38.84052429 38.61377563 -37.91244507 37.68585205 C-36.92871592 36.71233519 -35.9448775 35.73892875 -34.9609375 34.765625 C-33.95444872 33.76286839 -32.94840211 32.75966778 -31.94277954 31.75604248 C-29.30037853 29.12126187 -26.65202572 26.49254389 -24.00238037 23.86505127 C-21.29743948 21.18060312 -18.59818179 18.49045378 -15.8984375 15.80078125 C-10.60449826 10.52826382 -5.30425717 5.26213943 0 0 Z " fill="#2F6853" transform="translate(62,24)"/>
<path d="M0 0 C4.10108886 1.62156024 6.83148167 4.5767703 9.859375 7.6640625 C10.683237 8.49216934 10.683237 8.49216934 11.52374268 9.33700562 C13.27059293 11.09501815 15.01034601 12.8598689 16.75 14.625 C17.93573591 15.8207708 19.1219288 17.01608865 20.30859375 18.2109375 C23.21105085 21.13540253 26.1071641 24.06601874 29 27 C27.37843976 31.10108886 24.4232297 33.83148167 21.3359375 36.859375 C20.78386627 37.40861633 20.23179504 37.95785767 19.66299438 38.52374268 C17.90498185 40.27059293 16.1401311 42.01034601 14.375 43.75 C13.1792292 44.93573591 11.98391135 46.1219288 10.7890625 47.30859375 C7.86459747 50.21105085 4.93398126 53.1071641 2 56 C-3.34390889 51.51869058 -8.40984402 46.83407648 -13.375 41.9375 C-14.09816406 41.24333984 -14.82132813 40.54917969 -15.56640625 39.83398438 C-16.25347656 39.15529297 -16.94054688 38.47660156 -17.6484375 37.77734375 C-18.26895996 37.17140381 -18.88948242 36.56546387 -19.52880859 35.94116211 C-21.26884646 33.6452708 -21.63689276 31.82949029 -22 29 C-15.375 27.75 -15.375 27.75 -12 30 C-12 30.66 -12 31.32 -12 32 C-11.01 32.33 -10.02 32.66 -9 33 C-9 33.99 -9 34.98 -9 36 C-8.01 36 -7.02 36 -6 36 C-4.5459375 36.7734375 -4.5459375 36.7734375 -3.0625 37.5625 C-0.25267349 39.14606183 -0.25267349 39.14606183 2.0625 39 C4.93995514 37.51486187 6.80517039 35.35944183 9 33 C10.33333333 31.66666667 11.66666667 30.33333333 13 29 C11.54254576 25.63664406 9.68882146 23.45465995 7.0859375 20.890625 C5.94511719 19.75947266 5.94511719 19.75947266 4.78125 18.60546875 C3.59015625 17.43951172 3.59015625 17.43951172 2.375 16.25 C1.57320312 15.45722656 0.77140625 14.66445312 -0.0546875 13.84765625 C-2.03202846 11.89385507 -4.01388909 9.94487897 -6 8 C-4.44805246 4.67240077 -2.69378051 2.51419515 0 0 Z " fill="#28654F" transform="translate(62,65)"/>
<path d="M0 0 C1.76462683 3.08809695 2 4.23312136 2 8 C-0.3125 9.5625 -0.3125 9.5625 -3 11 C-4.79385992 12.4579186 -4.79385992 12.4579186 -6 14 C-6 14.66 -6 15.32 -6 16 C-8.2727675 17.49524178 -10.5679943 18.78399715 -13 20 C-13.103125 20.61875 -13.20625 21.2375 -13.3125 21.875 C-14.3077254 24.95115124 -16.22868364 25.5129522 -19 27 C-21.20862159 28.81037978 -21.20862159 28.81037978 -21.33984375 31.32421875 C-22.21659702 34.87792284 -23.92238857 36.32112725 -26.5625 38.8125 C-27.38878906 39.60269531 -28.21507813 40.39289063 -29.06640625 41.20703125 C-29.70449219 41.79871094 -30.34257813 42.39039063 -31 43 C-35.56030824 39.19524578 -39.85089392 35.25030379 -44 31 C-42.55746343 27.63408134 -40.66735273 25.48952921 -38 23 C-35.50638429 24.20381448 -33.31856917 25.45428722 -31 27 C-30.13048706 26.10692139 -30.13048706 26.10692139 -29.2434082 25.19580078 C-27.078305 22.97941027 -24.90640174 20.76997344 -22.72973633 18.56494141 C-21.33077515 17.14356793 -19.93974164 15.71440589 -18.54882812 14.28515625 C-17.66259766 13.38925781 -16.77636719 12.49335937 -15.86328125 11.5703125 C-15.05157471 10.74289551 -14.23986816 9.91547852 -13.40356445 9.06298828 C-10.966133 6.97093183 -9.08221516 5.86562685 -6 5 C-5.34 5.33 -4.68 5.66 -4 6 C-4 5.34 -4 4.68 -4 4 C-3.34 4 -2.68 4 -2 4 C-2 3.01 -2 2.02 -2 1 C-1.34 0.67 -0.68 0.34 0 0 Z M3 1 C3 4 3 4 3 4 Z " fill="#29654E" transform="translate(136,78)"/>
<path d="M0 0 C4.01987409 2.00993705 6.14516995 3.93846389 9.25 7.125 C10.14203125 8.03507812 11.0340625 8.94515625 11.953125 9.8828125 C12.62859375 10.58148438 13.3040625 11.28015625 14 12 C13.07347299 13.17539996 12.13336613 14.34010577 11.1875 15.5 C10.40439453 16.47453125 10.40439453 16.47453125 9.60546875 17.46875 C8 19 8 19 5 19 C3.68 18.01 2.36 17.02 1 16 C-9.56 26.56 -20.12 37.12 -31 48 C-30.67 48.99 -30.34 49.98 -30 51 C-31.32 51 -32.64 51 -34 51 C-34.125 45.25 -34.125 45.25 -33 43 C-29.9375 42.375 -29.9375 42.375 -27 42 C-27 41.01 -27 40.02 -27 39 C-24.625 36.3125 -24.625 36.3125 -22 34 C-21.34 34 -20.68 34 -20 34 C-19.67 33.01 -19.34 32.02 -19 31 C-18.34 31 -17.68 31 -17 31 C-16.731875 30.360625 -16.46375 29.72125 -16.1875 29.0625 C-15 27 -15 27 -12 26 C-12 24.02 -12 22.04 -12 20 C-14.2678088 19.78856113 -14.2678088 19.78856113 -16.4375 22 C-19 24 -19 24 -22 24 C-21.34 24.66 -20.68 25.32 -20 26 C-19.67 26.66 -19.34 27.32 -19 28 C-20.65 28.66 -22.3 29.32 -24 30 C-24 29.34 -24 28.68 -24 28 C-25.32 29.32 -26.64 30.64 -28 32 C-28.99 31.67 -29.98 31.34 -31 31 C-20.77 20.77 -10.54 10.54 0 0 Z M-15 21 C-14.01 21.33 -13.02 21.66 -12 22 C-12.99 22 -13.98 22 -15 22 C-15 21.67 -15 21.34 -15 21 Z " fill="#2A654E" transform="translate(62,24)"/>
<path d="M0 0 C3.36335594 1.45745424 5.54534005 3.31117854 8.109375 5.9140625 C8.86347656 6.67460938 9.61757812 7.43515625 10.39453125 8.21875 C11.17183594 9.0128125 11.94914062 9.806875 12.75 10.625 C13.54277344 11.42679688 14.33554688 12.22859375 15.15234375 13.0546875 C17.10614493 15.03202846 19.05512103 17.01388909 21 19 C18.92446352 19.5534764 17.15634036 20 15 20 C15 20.99 15 21.98 15 23 C15.99 23 16.98 23 18 23 C18.33 23.99 18.66 24.98 19 26 C18.34 26.66 17.68 27.32 17 28 C16.195625 28.86625 15.39125 29.7325 14.5625 30.625 C12 33 12 33 9 33 C10.32 31.68 11.64 30.36 13 29 C11.54254576 25.63664406 9.68882146 23.45465995 7.0859375 20.890625 C6.32539062 20.13652344 5.56484375 19.38242188 4.78125 18.60546875 C3.9871875 17.82816406 3.193125 17.05085938 2.375 16.25 C1.57320312 15.45722656 0.77140625 14.66445312 -0.0546875 13.84765625 C-2.03202846 11.89385507 -4.01388909 9.94487897 -6 8 C-4.44805246 4.67240077 -2.69378051 2.51419515 0 0 Z " fill="#2E6550" transform="translate(62,65)"/>
<path d="M0 0 C1.76462683 3.08809695 2 4.23312136 2 8 C-0.3125 9.5625 -0.3125 9.5625 -3 11 C-4.79385992 12.4579186 -4.79385992 12.4579186 -6 14 C-6 14.66 -6 15.32 -6 16 C-8.2727675 17.49524178 -10.5679943 18.78399715 -13 20 C-13.103125 20.61875 -13.20625 21.2375 -13.3125 21.875 C-14.3053936 24.94394387 -16.22209562 25.57543365 -19 27 C-19.66 26.34 -20.32 25.68 -21 25 C-22.9931567 24.97624074 -22.9931567 24.97624074 -25.125 25.375 C-26.40375 25.58125 -27.6825 25.7875 -29 26 C-25.19302731 21.34703337 -21.14211339 16.97976321 -16.9375 12.6875 C-16.4312207 12.15995117 -15.92494141 11.63240234 -15.40332031 11.08886719 C-12.49812482 8.15720927 -10.03896632 6.0429913 -6 5 C-5.34 5.33 -4.68 5.66 -4 6 C-4 5.34 -4 4.68 -4 4 C-3.34 4 -2.68 4 -2 4 C-2 3.01 -2 2.02 -2 1 C-1.34 0.67 -0.68 0.34 0 0 Z M3 1 C3 4 3 4 3 4 Z " fill="#2B654E" transform="translate(136,78)"/>
<path d="M0 0 C0.185625 0.9590625 0.185625 0.9590625 0.375 1.9375 C0.684375 2.9584375 0.684375 2.9584375 1 4 C1.66 4.33 2.32 4.66 3 5 C3.66 5.33 4.32 5.66 5 6 C5 6.66 5 7.32 5 8 C5.66 8 6.32 8 7 8 C8.11328125 9.4609375 8.11328125 9.4609375 9.3125 11.375 C11.48811243 14.58014331 13.14156455 16.00783088 17 17 C16.34 17.33 15.68 17.66 15 18 C16.65 18.33 18.3 18.66 20 19 C20 17.68 20 16.36 20 15 C19.34 14.67 18.68 14.34 18 14 C20.16796875 13.6875 20.16796875 13.6875 23 14 C25.67578125 16.1875 25.67578125 16.1875 28.3125 19 C29.63701172 20.3921875 29.63701172 20.3921875 30.98828125 21.8125 C31.65214844 22.534375 32.31601563 23.25625 33 24 C32.07347299 25.17539996 31.13336613 26.34010577 30.1875 27.5 C29.66542969 28.1496875 29.14335938 28.799375 28.60546875 29.46875 C27 31 27 31 24 31 C21.88419977 29.20808518 19.94002054 27.40806256 17.984375 25.453125 C17.409151 24.88551453 16.833927 24.31790405 16.24127197 23.73309326 C15.02709667 22.52972896 13.81688396 21.32235532 12.61035156 20.11132812 C10.7570912 18.25709492 8.88356447 16.42519287 7.0078125 14.59375 C5.83203444 13.42317822 4.65751145 12.25134416 3.484375 11.078125 C2.91990662 10.53005188 2.35543823 9.98197876 1.77386475 9.41729736 C0.22558594 7.84082031 0.22558594 7.84082031 -2 5 C-1.90243522 2.61318331 -1.67310972 1.67310972 0 0 Z " fill="#44715F" transform="translate(79,48)"/>
<path d="M0 0 C1.30081062 2.14251161 2.06717371 3.42091627 1.7734375 5.953125 C0.82030032 8.47556884 -0.31032883 9.37255927 -2.4375 11 C-5.23344211 13.14803068 -6.44239996 14.87218777 -8 18 C-11 20 -11 20 -14 21 C-14 21.99 -14 22.98 -14 24 C-15.98 24.33 -17.96 24.66 -20 25 C-20 26.98 -20 28.96 -20 31 C-21.32 31.33 -22.64 31.66 -24 32 C-24 30.02 -24 28.04 -24 26 C-23.34 26 -22.68 26 -22 26 C-22.5878125 24.9171875 -22.5878125 24.9171875 -23.1875 23.8125 C-24 21 -24 21 -22.75 18.3125 C-19.58299595 14.12753036 -19.58299595 14.12753036 -17 13.5625 C-14.61359262 13.12541292 -14.61359262 13.12541292 -13 10 C-12.34 10 -11.68 10 -11 10 C-11 10.66 -11 11.32 -11 12 C-9.35 11.34 -7.7 10.68 -6 10 C-6.99 9.34 -7.98 8.68 -9 8 C-9 7.34 -9 6.68 -9 6 C-7.36209288 4.95355934 -5.68991979 3.9601817 -4 3 C-2.65368175 2.01755155 -1.31558703 1.02323436 0 0 Z M-2 3 C-1.67 3.66 -1.34 4.32 -1 5 C-0.34 4.67 0.32 4.34 1 4 C0.01 3.67 -0.98 3.34 -2 3 Z " fill="#2A6550" transform="translate(49,42)"/>
<path d="M0 0 C0.66 0.99 1.32 1.98 2 3 C0.02 3.99 0.02 3.99 -2 5 C-1.67 7.64 -1.34 10.28 -1 13 C0.32 13.33 1.64 13.66 3 14 C-5.58 22.58 -14.16 31.16 -23 40 C-22.67 40.99 -22.34 41.98 -22 43 C-23.32 43 -24.64 43 -26 43 C-26.125 37.25 -26.125 37.25 -25 35 C-21.9375 34.375 -21.9375 34.375 -19 34 C-19 33.01 -19 32.02 -19 31 C-16.625 28.3125 -16.625 28.3125 -14 26 C-13.34 26 -12.68 26 -12 26 C-11.67 25.01 -11.34 24.02 -11 23 C-10.34 23 -9.68 23 -9 23 C-8.731875 22.360625 -8.46375 21.72125 -8.1875 21.0625 C-7 19 -7 19 -4 18 C-4 16.02 -4 14.04 -4 12 C-6.2678088 11.78856113 -6.2678088 11.78856113 -8.4375 14 C-11 16 -11 16 -14 16 C-13.34 16.66 -12.68 17.32 -12 18 C-11.67 18.66 -11.34 19.32 -11 20 C-12.65 20.66 -14.3 21.32 -16 22 C-16 21.34 -16 20.68 -16 20 C-17.32 21.32 -18.64 22.64 -20 24 C-20.99 23.67 -21.98 23.34 -23 23 C-15.41 15.41 -7.82 7.82 0 0 Z M-7 13 C-6.01 13.33 -5.02 13.66 -4 14 C-4.99 14 -5.98 14 -7 14 C-7 13.67 -7 13.34 -7 13 Z " fill="#678D7C" transform="translate(54,32)"/>
<path d="M0 0 C0.3125 2.3125 0.3125 2.3125 0 5 C-2.4375 6.6875 -2.4375 6.6875 -5 8 C-5.33 8.66 -5.66 9.32 -6 10 C-6.66 10 -7.32 10 -8 10 C-7.67 12.97 -7.34 15.94 -7 19 C-5.35 19.33 -3.7 19.66 -2 20 C-1.67 21.65 -1.34 23.3 -1 25 C-0.34 25 0.32 25 1 25 C1 26.32 1 27.64 1 29 C-0.65 29.33 -2.3 29.66 -4 30 C-4.33 28.68 -4.66 27.36 -5 26 C-5.99 26 -6.98 26 -8 26 C-9.84526962 23.37403939 -10.98375849 21.04872454 -12 18 C-12.66 18 -13.32 18 -14 18 C-14 17.34 -14 16.68 -14 16 C-14.99 16.33 -15.98 16.66 -17 17 C-17.33 14.69 -17.66 12.38 -18 10 C-15 9 -15 9 -12 10 C-11.7525 9.40703125 -11.505 8.8140625 -11.25 8.203125 C-9.81031137 5.6656738 -8.34848507 4.45955898 -6 2.75 C-5.29875 2.22921875 -4.5975 1.7084375 -3.875 1.171875 C-2 0 -2 0 0 0 Z " fill="#26664E" transform="translate(98,38)"/>
<path d="M0 0 C6.36590304 5.24458586 12.13570612 11.02097322 17.9375 16.875 C18.91708237 17.85960919 19.89689837 18.843986 20.87695312 19.828125 C23.25360252 22.21648203 25.62787356 24.60715212 28 27 C27.01 27.33 26.02 27.66 25 28 C24.01 27.34 23.02 26.68 22 26 C21.34 26.33 20.68 26.66 20 27 C20 25.68 20 24.36 20 23 C17.0607348 19.79352887 15.57217328 19.03751956 11.1875 18.75 C10.135625 18.8325 9.08375 18.915 8 19 C8 19.66 8 20.32 8 21 C8.66 21.33 9.32 21.66 10 22 C7 22 7 22 5.39453125 20.46875 C4.87246094 19.8190625 4.35039063 19.169375 3.8125 18.5 C3.28269531 17.8503125 2.75289062 17.200625 2.20703125 16.53125 C1.80871094 16.0259375 1.41039062 15.520625 1 15 C1.66 15 2.32 15 3 15 C3.89056363 11.0125832 3.89056363 11.0125832 4 7 C1.72872666 3.97590636 1.72872666 3.97590636 -1 2 C-0.67 1.34 -0.34 0.68 0 0 Z " fill="#3F715D" transform="translate(32,75)"/>
<path d="M0 0 C3.09368333 1.24629667 4.84360144 3.19937711 7.17578125 5.57421875 C7.86646698 6.27127174 7.86646698 6.27127174 8.57110596 6.98240662 C10.03508436 8.46313069 11.48826666 9.95395769 12.94140625 11.4453125 C13.93420074 12.45315914 14.92768295 13.46032883 15.921875 14.46679688 C18.35307098 16.93100711 20.77469493 19.40438579 23.19140625 21.8828125 C22.53140625 22.2128125 21.87140625 22.5428125 21.19140625 22.8828125 C18.19140625 21.8828125 18.19140625 21.8828125 16.19140625 18.8828125 C12.91367121 19.63431273 12.91367121 19.63431273 11.19140625 22.8828125 C12.51140625 24.2028125 13.83140625 25.5228125 15.19140625 26.8828125 C14.86140625 27.8728125 14.53140625 28.8628125 14.19140625 29.8828125 C12.68842749 28.40667265 11.1890934 26.92682093 9.69140625 25.4453125 C8.85609375 24.62160156 8.02078125 23.79789063 7.16015625 22.94921875 C5.19140625 20.8828125 5.19140625 20.8828125 5.19140625 19.8828125 C6.84140625 19.8828125 8.49140625 19.8828125 10.19140625 19.8828125 C10.85140625 17.9028125 11.51140625 15.9228125 12.19140625 13.8828125 C9.71640625 13.3878125 9.71640625 13.3878125 7.19140625 12.8828125 C7.19140625 11.2328125 7.19140625 9.5828125 7.19140625 7.8828125 C5.87140625 7.5528125 4.55140625 7.2228125 3.19140625 6.8828125 C3.19140625 5.8928125 3.19140625 4.9028125 3.19140625 3.8828125 C0.81765764 3.54855515 0.81765764 3.54855515 -1.80859375 3.8828125 C-3.65175046 5.7832592 -3.65175046 5.7832592 -4.80859375 7.8828125 C-6.12859375 7.5528125 -7.44859375 7.2228125 -8.80859375 6.8828125 C-7.74143303 5.68075786 -6.65421038 4.49648917 -5.55859375 3.3203125 C-4.9553125 2.65902344 -4.35203125 1.99773438 -3.73046875 1.31640625 C-1.80859375 -0.1171875 -1.80859375 -0.1171875 0 0 Z " fill="#749588" transform="translate(104.80859375,24.1171875)"/>
<path d="M0 0 C3.68069887 1.53643852 5.98775204 3.78150945 8.75 6.625 C9.54921875 7.44226563 10.3484375 8.25953125 11.171875 9.1015625 C11.77515625 9.72804688 12.3784375 10.35453125 13 11 C11.0625 11.5625 11.0625 11.5625 9 12 C8.67 11.67 8.34 11.34 8 11 C7.4225 11.680625 6.845 12.36125 6.25 13.0625 C5.5075 13.701875 4.765 14.34125 4 15 C0.63387233 14.67424571 -0.98521214 13.35670521 -3.25 10.9375 C-3.77078125 10.38964844 -4.2915625 9.84179688 -4.828125 9.27734375 C-5.21484375 8.85582031 -5.6015625 8.43429688 -6 8 C-4.55746343 4.63408134 -2.66735273 2.48952921 0 0 Z " fill="#27654D" transform="translate(62,65)"/>
<path d="M0 0 C1.17825358 0.90172468 2.34231577 1.82201502 3.5 2.75 C4.1496875 3.26046875 4.799375 3.7709375 5.46875 4.296875 C7 6 7 6 7 10 C5.16584345 12.1831266 3.35586363 14.10893787 1.3125 16.078125 C0.73540283 16.64956238 0.15830566 17.22099976 -0.4362793 17.80975342 C-2.28168122 19.63276453 -4.14050138 21.44138079 -6 23.25 C-7.25351323 24.48345184 -8.50612911 25.71781632 -9.7578125 26.953125 C-12.82822936 29.97943861 -15.9107538 32.9929146 -19 36 C-19.66 35.34 -20.32 34.68 -21 34 C-20.34 34 -19.68 34 -19 34 C-19 33.01 -19 32.02 -19 31 C-17.1875 28.8125 -17.1875 28.8125 -15 27 C-14.01 27 -13.02 27 -12 27 C-12 26.01 -12 25.02 -12 24 C-9.6875 21.3125 -9.6875 21.3125 -7 19 C-6.01 19 -5.02 19 -4 19 C-3.15545644 15.62182575 -2.89155081 13.32534757 -4 10 C-1.35261084 8.5393715 -0.10551666 8 3 8 C2.505 7.4225 2.01 6.845 1.5 6.25 C0 4 0 4 0 0 Z " fill="#346D58" transform="translate(83,85)"/>
<path d="M0 0 C0.86625 0.3403125 0.86625 0.3403125 1.75 0.6875 C1.75 1.6775 1.75 2.6675 1.75 3.6875 C3.4 4.0175 5.05 4.3475 6.75 4.6875 C6.87375 5.8321875 6.87375 5.8321875 7 7 C7.89615794 10.21123261 8.96611025 10.98124499 11.75 12.6875 C11.09 14.3375 10.43 15.9875 9.75 17.6875 C5.48571504 17.21369056 3.63509907 14.64852273 0.75 11.6875 C0.09 11.6875 -0.57 11.6875 -1.25 11.6875 C-1.91 10.0375 -2.57 8.3875 -3.25 6.6875 C-3.91 6.6875 -4.57 6.6875 -5.25 6.6875 C-5.58 5.3675 -5.91 4.0475 -6.25 2.6875 C-2.80384615 -0.38942308 -2.80384615 -0.38942308 0 0 Z " fill="#28664E" transform="translate(121.25,42.3125)"/>
<path d="M0 0 C5.66129431 4.69766975 10.85228904 9.74723372 16 15 C15.01 15.495 15.01 15.495 14 16 C11 15 11 15 9 12 C5.72226496 12.75150023 5.72226496 12.75150023 4 16 C5.32 17.32 6.64 18.64 8 20 C7.67 20.99 7.34 21.98 7 23 C2.05 18.05 -2.9 13.1 -8 8 C-7.01 7.34 -6.02 6.68 -5 6 C-3.35 7.98 -1.7 9.96 0 12 C0.99 11.67 1.98 11.34 3 11 C3 9.68 3 8.36 3 7 C2.01 6.34 1.02 5.68 0 5 C-0.1875 2.375 -0.1875 2.375 0 0 Z " fill="#52806D" transform="translate(128,47)"/>
<path d="M0 0 C3.15207323 0.41113999 5.98104753 0.99368251 9 2 C9 3.65 9 5.3 9 7 C10.65 7.33 12.3 7.66 14 8 C13.49396008 10.16874252 13.00016187 11.99967627 12 14 C10.35 14 8.7 14 7 14 C6.938125 13.38125 6.87625 12.7625 6.8125 12.125 C6.171081 9.72238859 6.171081 9.72238859 3.4375 8.75 C2.633125 8.5025 1.82875 8.255 1 8 C1 7.34 1 6.68 1 6 C0.01 6 -0.98 6 -2 6 C-1.125 1.125 -1.125 1.125 0 0 Z " fill="#28664F" transform="translate(103,30)"/>
<path d="M0 0 C2.49361571 1.20381448 4.68143083 2.45428722 7 4 C7.66 3.67 8.32 3.34 9 3 C8.67 4.65 8.34 6.3 8 8 C5 7 5 7 2 5 C1.34 4.67 0.68 4.34 0 4 C-0.33 4.66 -0.66 5.32 -1 6 C-1.33 6.33 -1.66 6.66 -2 7 C-2 7.99 -2 8.98 -2 10 C-0.35 10.33 1.3 10.66 3 11 C3.33 11.99 3.66 12.98 4 14 C6.97 14.495 6.97 14.495 10 15 C10.103125 14.38125 10.20625 13.7625 10.3125 13.125 C11 11 11 11 14 9 C14.99 9.33 15.98 9.66 17 10 C13.7 13.3 10.4 16.6 7 20 C2.44548277 16.17420552 -1.84530689 12.25602708 -6 8 C-4.55746343 4.63408134 -2.66735273 2.48952921 0 0 Z " fill="#668B7B" transform="translate(98,101)"/>
<path d="M0 0 C-9.57 9.57 -19.14 19.14 -29 29 C-29.66 27.68 -30.32 26.36 -31 25 C-25.25 21 -25.25 21 -23 21 C-22.938125 20.236875 -22.87625 19.47375 -22.8125 18.6875 C-21.73018603 15.1075384 -20.17081923 14.84349955 -17 13 C-16.360625 11.989375 -15.72125 10.97875 -15.0625 9.9375 C-12.6401249 6.48745061 -11.03216984 5.91640224 -7 5 C-6.67 3.35 -6.34 1.7 -6 0 C-3 -1 -3 -1 0 0 Z " fill="#5C8273" transform="translate(145,81)"/>
<path d="M0 0 C-0.28127421 1.48117801 -0.57533732 2.95993249 -0.875 4.4375 C-1.11863281 5.67306641 -1.11863281 5.67306641 -1.3671875 6.93359375 C-1.57601562 7.61550781 -1.78484375 8.29742187 -2 9 C-2.99 9.495 -2.99 9.495 -4 10 C-4.268125 10.66 -4.53625 11.32 -4.8125 12 C-6 14 -6 14 -8.625 14.75 C-9.40875 14.8325 -10.1925 14.915 -11 15 C-11.58045341 11.99047523 -12.06010471 9.07080418 -12 6 C-10.0625 4.0625 -10.0625 4.0625 -8 3 C-8 2.34 -8 1.68 -8 1 C-3.375 -1.125 -3.375 -1.125 0 0 Z " fill="#2A664F" transform="translate(63,31)"/>
<path d="M0 0 C0.99 0.33 1.98 0.66 3 1 C-1.52991796 6.43733055 -6.34294216 11.46458931 -11.375 16.4375 C-12.11105469 17.16904297 -12.84710938 17.90058594 -13.60546875 18.65429688 C-15.40136074 20.43852723 -17.19955985 22.22036124 -19 24 C-18.67 24.99 -18.34 25.98 -18 27 C-19.32 27 -20.64 27 -22 27 C-22.125 21.25 -22.125 21.25 -21 19 C-17.9375 18.375 -17.9375 18.375 -15 18 C-15 17.01 -15 16.02 -15 15 C-12.625 12.3125 -12.625 12.3125 -10 10 C-9.34 10 -8.68 10 -8 10 C-7.67 9.01 -7.34 8.02 -7 7 C-6.34 7 -5.68 7 -5 7 C-4.731875 6.360625 -4.46375 5.72125 -4.1875 5.0625 C-3 3 -3 3 0 2 C0 1.34 0 0.68 0 0 Z " fill="#799C8B" transform="translate(50,48)"/>
<path d="M0 0 C0.33 0.66 0.66 1.32 1 2 C1.99 1.67 2.98 1.34 4 1 C5.30245593 3.14522154 6.01434368 4.52665842 5.9375 7.0625 C4.60554053 9.81521623 2.66313685 10.63428879 0 12 C-0.66 11.34 -1.32 10.68 -2 10 C-3.9931567 9.97624074 -3.9931567 9.97624074 -6.125 10.375 C-7.40375 10.58125 -8.6825 10.7875 -10 11 C-6.79239749 7.19364503 -3.59253891 3.45436433 0 0 Z " fill="#316853" transform="translate(117,93)"/>
<path d="M0 0 C0.185625 0.9590625 0.185625 0.9590625 0.375 1.9375 C0.684375 2.9584375 0.684375 2.9584375 1 4 C1.66 4.33 2.32 4.66 3 5 C3.66 5.33 4.32 5.66 5 6 C5 6.66 5 7.32 5 8 C5.66 8 6.32 8 7 8 C8.11328125 9.4609375 8.11328125 9.4609375 9.3125 11.375 C11.48811243 14.58014331 13.14156455 16.00783088 17 17 C16.34 17.33 15.68 17.66 15 18 C16.32 18.99 17.64 19.98 19 21 C18.67 22.32 18.34 23.64 18 25 C15.11749017 22.24099916 12.25160179 19.46589896 9.40014648 16.67480469 C8.42769895 15.72751645 7.45081335 14.78476221 6.46948242 13.84667969 C5.06053683 12.49831092 3.66865627 11.13218107 2.27734375 9.765625 C1.43421631 8.94868164 0.59108887 8.13173828 -0.27758789 7.29003906 C-2 5 -2 5 -1.82983398 2.76464844 C-1 1 -1 1 0 0 Z " fill="#6B8A7E" transform="translate(79,48)"/>
<path d="M0 0 C1.30033602 2.14172991 2.06880127 3.41810454 1.76953125 5.94921875 C0.82771351 8.45913912 -0.28509115 9.4090911 -2.375 11.0625 C-4.71874942 12.94248624 -6.90954514 14.83900832 -9 17 C-9.99 16.34 -10.98 15.68 -12 15 C-11.67 14.01 -11.34 13.02 -11 12 C-8.4375 10.8125 -8.4375 10.8125 -6 10 C-6.99 9.34 -7.98 8.68 -9 8 C-9 7.34 -9 6.68 -9 6 C-7.36209288 4.95355934 -5.68991979 3.9601817 -4 3 C-2.65368175 2.01755155 -1.31558703 1.02323436 0 0 Z M-2 3 C-1.67 3.66 -1.34 4.32 -1 5 C-0.34 4.67 0.32 4.34 1 4 C0.01 3.67 -0.98 3.34 -2 3 Z " fill="#27654F" transform="translate(49,42)"/>
<path d="M0 0 C0.99 0 1.98 0 3 0 C3 1.32 3 2.64 3 4 C4.32 4 5.64 4 7 4 C8.4606285 6.64738916 9 7.89448334 9 11 C3.71502591 12.67357513 3.71502591 12.67357513 1 13 C-1.5 11.625 -1.5 11.625 -3 10 C-2.484375 9.443125 -1.96875 8.88625 -1.4375 8.3125 C0.30147658 6.06536407 0.30147658 6.06536407 -0.375 3.3125 C-0.58125 2.549375 -0.7875 1.78625 -1 1 C-0.67 0.67 -0.34 0.34 0 0 Z " fill="#29654E" transform="translate(141,64)"/>
<path d="M0 0 C1.32 1.32 2.64 2.64 4 4 C1.69 6.31 -0.62 8.62 -3 11 C-4.98 9.68 -6.96 8.36 -9 7 C-11.97 9.475 -11.97 9.475 -15 12 C-15.33 11.01 -15.66 10.02 -16 9 C-14.0625 6.4375 -14.0625 6.4375 -11 4 C-7.89398005 3.85456763 -5.02829521 4.3336431 -2 5 C-1.34 3.35 -0.68 1.7 0 0 Z " fill="#577E70" transform="translate(72,33)"/>
<path d="M0 0 C0.99 0.33 1.98 0.66 3 1 C-4.26 8.26 -11.52 15.52 -19 23 C-19.66 22.34 -20.32 21.68 -21 21 C-20.34 21 -19.68 21 -19 21 C-19 20.01 -19 19.02 -19 18 C-17.1875 15.8125 -17.1875 15.8125 -15 14 C-14.01 14 -13.02 14 -12 14 C-12 13.01 -12 12.02 -12 11 C-9.6875 8.3125 -9.6875 8.3125 -7 6 C-6.01 6 -5.02 6 -4 6 C-3.896875 5.38125 -3.79375 4.7625 -3.6875 4.125 C-3 2 -3 2 0 0 Z " fill="#6E9384" transform="translate(83,98)"/>
<path d="M0 0 C1.76462683 3.08809695 2 4.23312136 2 8 C-1.45523687 10.74386457 -4.66956925 11.49646154 -9 12 C-9.1875 9.625 -9.1875 9.625 -9 7 C-8.01 6.34 -7.02 5.68 -6 5 C-5.34 5.33 -4.68 5.66 -4 6 C-4 5.34 -4 4.68 -4 4 C-3.34 4 -2.68 4 -2 4 C-2 3.01 -2 2.02 -2 1 C-1.34 0.67 -0.68 0.34 0 0 Z M3 1 C3 4 3 4 3 4 Z " fill="#27654D" transform="translate(136,78)"/>
<path d="M0 0 C-2.31 2.31 -4.62 4.62 -7 7 C-5.4005386 10.19892281 -4.17187081 12.15353735 -1.875 14.75 C-1.33617188 15.36359375 -0.79734375 15.9771875 -0.2421875 16.609375 C0.16773437 17.06828125 0.57765625 17.5271875 1 18 C-0.32 18 -1.64 18 -3 18 C-3.2475 17.360625 -3.495 16.72125 -3.75 16.0625 C-4.96621634 13.50980961 -4.96621634 13.50980961 -9 13 C-9.33 10.03 -9.66 7.06 -10 4 C-9.34 4 -8.68 4 -8 4 C-7.71125 3.360625 -7.4225 2.72125 -7.125 2.0625 C-5.09951271 -1.65089337 -4.1497079 -1.03742698 0 0 Z " fill="#5A8070" transform="translate(100,44)"/>
<path d="M0 0 C3.19425808 1.59712904 5.44419099 4.06977951 7.875 6.625 C8.38160156 7.14513672 8.88820313 7.66527344 9.41015625 8.20117188 C10.65534405 9.48160084 11.89111502 10.77117554 13.125 12.0625 C11.125 13.0625 11.125 13.0625 7.125 13.0625 C7.125 11.4125 7.125 9.7625 7.125 8.0625 C5.805 7.7325 4.485 7.4025 3.125 7.0625 C3.125 6.0725 3.125 5.0825 3.125 4.0625 C0.75125139 3.72824265 0.75125139 3.72824265 -1.875 4.0625 C-3.71815671 5.9629467 -3.71815671 5.9629467 -4.875 8.0625 C-6.195 7.7325 -7.515 7.4025 -8.875 7.0625 C-7.80783928 5.86044536 -6.72061663 4.67617667 -5.625 3.5 C-5.02171875 2.83871094 -4.4184375 2.17742188 -3.796875 1.49609375 C-1.875 0.0625 -1.875 0.0625 0 0 Z " fill="#A1B3AB" transform="translate(104.875,23.9375)"/>
<path d="M0 0 C0.33 1.32 0.66 2.64 1 4 C0.01 4.33 -0.98 4.66 -2 5 C-2.144375 5.598125 -2.28875 6.19625 -2.4375 6.8125 C-3.19153794 9.74486975 -4.85104203 10.91616197 -7 13 C-8.23512079 15.13309192 -8.23512079 15.13309192 -9 17 C-10.98 16.67 -12.96 16.34 -15 16 C-10.30233025 10.33870569 -5.25276628 5.14771096 0 0 Z " fill="#829E92" transform="translate(95,32)"/>
<path d="M0 0 C0.66 0.33 1.32 0.66 2 1 C2.68320312 1.2578125 3.36640625 1.515625 4.0703125 1.78125 C6 3 6 3 6.6796875 5.09375 C6.74414062 5.8878125 6.80859375 6.681875 6.875 7.5 C6.95492187 8.2940625 7.03484375 9.088125 7.1171875 9.90625 C7 12 7 12 5 14 C5 13.34 5 12.68 5 12 C4.01 12 3.02 12 2 12 C2 11.01 2 10.02 2 9 C0.68 9 -0.64 9 -2 9 C-2 8.34 -2 7.68 -2 7 C-1.34 7 -0.68 7 0 7 C-0.185625 6.030625 -0.37125 5.06125 -0.5625 4.0625 C-0.706875 3.051875 -0.85125 2.04125 -1 1 C-0.67 0.67 -0.34 0.34 0 0 Z " fill="#28654E" transform="translate(54,100)"/>
<path d="M0 0 C0.66 0 1.32 0 2 0 C1.938125 0.763125 1.87625 1.52625 1.8125 2.3125 C1.74101915 5.04525312 1.74101915 5.04525312 3.5 6.8125 C3.995 7.204375 4.49 7.59625 5 8 C2 10 2 10 0 11 C-0.474375 10.505 -0.94875 10.01 -1.4375 9.5 C-2.75923698 7.88457803 -2.75923698 7.88457803 -4 8 C-6.00109278 8.32670903 -8.00116131 8.65977214 -10 9 C-7.50000379 5.51786242 -6.19809708 3.83961942 -2 3 C-1.34 2.01 -0.68 1.02 0 0 Z " fill="#40735F" transform="translate(36,52)"/>
<path d="M0 0 C2.875 0.6875 2.875 0.6875 6 2 C7.25 4.4375 7.25 4.4375 8 7 C8.99 8.485 8.99 8.485 10 10 C9.34 10.66 8.68 11.32 8 12 C6.0625 11.625 6.0625 11.625 4 11 C3.01 11 2.02 11 1 11 C1.33 10.01 1.66 9.02 2 8 C2.66 8 3.32 8 4 8 C2.68798827 6.43750191 2.68798827 6.43750191 1 5 C0.01 5 -0.98 5 -2 5 C-1.34 3.35 -0.68 1.7 0 0 Z " fill="#26654E" transform="translate(77,83)"/>
<path d="M0 0 C5.66129431 4.69766975 10.85228904 9.74723372 16 15 C15.01 15.495 15.01 15.495 14 16 C11 15 11 15 9 12 C6.43717258 11.27034634 6.43717258 11.27034634 4 11 C4.33 9.68 4.66 8.36 5 7 C3.35 6.67 1.7 6.34 0 6 C0 4.02 0 2.04 0 0 Z " fill="#749588" transform="translate(128,47)"/>
<path d="M0 0 C0.144375 0.598125 0.28875 1.19625 0.4375 1.8125 C0.8872439 3.56150404 1.42892341 5.28677023 2 7 C-0.31 7.33 -2.62 7.66 -5 8 C-5 10.64 -5 13.28 -5 16 C-6.65 14.68 -8.3 13.36 -10 12 C-8.52278578 8.54798361 -6.56205999 6.35038064 -3.875 3.75 C-3.15054687 3.04359375 -2.42609375 2.3371875 -1.6796875 1.609375 C-1.12539063 1.07828125 -0.57109375 0.5471875 0 0 Z " fill="#638E7C" transform="translate(25,61)"/>
<path d="M0 0 C0.66 0.99 1.32 1.98 2 3 C0.02 3.99 0.02 3.99 -2 5 C-1.67 7.64 -1.34 10.28 -1 13 C0.32 13.33 1.64 13.66 3 14 C2.01 14.99 1.02 15.98 0 17 C-0.99 16.67 -1.98 16.34 -3 16 C-4.23867161 13.38502661 -5.08503983 10.74488051 -6 8 C-4.22557591 5.00183515 -2.46459429 2.46459429 0 0 Z M-7 13 C-6.01 13.33 -5.02 13.66 -4 14 C-4.99 14 -5.98 14 -7 14 C-7 13.67 -7 13.34 -7 13 Z " fill="#4F7E6B" transform="translate(54,32)"/>
<path d="M0 0 C0.86625 0.020625 1.7325 0.04125 2.625 0.0625 C3.615 0.0625 4.605 0.0625 5.625 0.0625 C7.29166667 0.0625 8.95833333 0.0625 10.625 0.0625 C8.42205342 3.36691987 7.33950698 4.86636083 3.4375 5.9375 C2.0453125 5.999375 2.0453125 5.999375 0.625 6.0625 C0.295 5.7325 -0.035 5.4025 -0.375 5.0625 C-1.035 5.7225 -1.695 6.3825 -2.375 7.0625 C-2.75633299 5.0710944 -3.08825582 3.06970923 -3.375 1.0625 C-2.375 0.0625 -2.375 0.0625 0 0 Z " fill="#3C705C" transform="translate(139.375,74.9375)"/>
<path d="M0 0 C1.32 0 2.64 0 4 0 C4 0.99 4 1.98 4 3 C4.99 3 5.98 3 7 3 C7.33 3.66 7.66 4.32 8 5 C9.98 5 11.96 5 14 5 C14 4.01 14 3.02 14 2 C15.65 2 17.3 2 19 2 C17.37660195 3.70884005 15.70680947 5.37446717 14 7 C13.34 7 12.68 7 12 7 C12 7.99 12 8.98 12 10 C8.15114044 9.44520943 6.40739482 7.75581685 3.75 5 C3.04359375 4.278125 2.3371875 3.55625 1.609375 2.8125 C0 1 0 1 0 0 Z " fill="#386957" transform="translate(52,109)"/>
<path d="M0 0 C4.91935902 4.11619836 9.52647956 8.40410362 14 13 C13.01 13.99 12.02 14.98 11 16 C10.34 15.67 9.68 15.34 9 15 C9 14.01 9 13.02 9 12 C8.01 11.34 7.02 10.68 6 10 C5.01 10.495 5.01 10.495 4 11 C4 9.68 4 8.36 4 7 C1.58333229 4.24958334 1.58333229 4.24958334 -1 2 C-0.67 1.34 -0.34 0.68 0 0 Z " fill="#5B8474" transform="translate(32,75)"/>
<path d="M0 0 C0.928125 0.165 1.85625 0.33 2.8125 0.5 C5.95621353 1.07748388 5.95621353 1.07748388 9 1 C9.33 1.99 9.66 2.98 10 4 C9.34 4.66 8.68 5.32 8 6 C7.195625 6.86625 6.39125 7.7325 5.5625 8.625 C3 11 3 11 0 11 C1.32 9.68 2.64 8.36 4 7 C2.79618552 4.50638429 1.54571278 2.31856917 0 0 Z " fill="#487865" transform="translate(71,87)"/>
<path d="M0 0 C2.49361571 1.20381448 4.68143083 2.45428722 7 4 C7.66 3.67 8.32 3.34 9 3 C8.67 4.65 8.34 6.3 8 8 C5 7 5 7 2 5 C1.34 4.67 0.68 4.34 0 4 C-0.33 4.66 -0.66 5.32 -1 6 C-1.33 5.67 -1.66 5.34 -2 5 C-2.99 6.32 -3.98 7.64 -5 9 C-5 5 -5 5 -2.5 2.25 C-1.675 1.5075 -0.85 0.765 0 0 Z " fill="#527969" transform="translate(98,101)"/>
<path d="M0 0 C4.91935902 4.11619836 9.52647956 8.40410362 14 13 C13.01 13.33 12.02 13.66 11 14 C10.01 13.34 9.02 12.68 8 12 C7.01 12.495 7.01 12.495 6 13 C6 11.68 6 10.36 6 9 C5.01 8.175 4.02 7.35 3 6.5 C2.01 5.675 1.02 4.85 0 4 C0 2.68 0 1.36 0 0 Z " fill="#668A7D" transform="translate(46,89)"/>
<path d="M0 0 C0.33 0 0.66 0 1 0 C1.3227506 4.62609198 0.84450614 7.28026121 -2 11 C-2.66 11 -3.32 11 -4 11 C-4 11.99 -4 12.98 -4 14 C-4.66 14 -5.32 14 -6 14 C-6 14.66 -6 15.32 -6 16 C-7.98 16.33 -9.96 16.66 -12 17 C-11.62488281 16.56429687 -11.24976562 16.12859375 -10.86328125 15.6796875 C-7.54140223 11.81392401 -4.25357073 7.92342352 -1 4 C-1.33 3.34 -1.66 2.68 -2 2 C-1.34 2 -0.68 2 0 2 C0 1.34 0 0.68 0 0 Z " fill="#5A8272" transform="translate(138,68)"/>
<path d="M0 0 C1.98 0.66 3.96 1.32 6 2 C6.33 3.65 6.66 5.3 7 7 C5.02 7.66 3.04 8.32 1 9 C0.01 8.01 -0.98 7.02 -2 6 C-1.34 4.02 -0.68 2.04 0 0 Z " fill="#2C644F" transform="translate(69,75)"/>
<path d="M0 0 C0.86625 0.3403125 0.86625 0.3403125 1.75 0.6875 C1.9375 3.5625 1.9375 3.5625 1.75 6.6875 C0.76 7.3475 -0.23 8.0075 -1.25 8.6875 C-3.1875 7.9375 -3.1875 7.9375 -5.25 6.6875 C-6 4.5625 -6 4.5625 -6.25 2.6875 C-2.80384615 -0.38942308 -2.80384615 -0.38942308 0 0 Z " fill="#27654D" transform="translate(137.25,58.3125)"/>
<path d="M0 0 C0.99 0.33 1.98 0.66 3 1 C2.34 2.32 1.68 3.64 1 5 C2.32 6.32 3.64 7.64 5 9 C4.67 9.99 4.34 10.98 4 12 C2.49702124 10.52386015 0.99768715 9.04400843 -0.5 7.5625 C-1.3353125 6.73878906 -2.170625 5.91507813 -3.03125 5.06640625 C-5 3 -5 3 -5 2 C-3.35 2 -1.7 2 0 2 C0 1.34 0 0.68 0 0 Z " fill="#638B7B" transform="translate(115,42)"/>
<path d="M0 0 C0.66 0.33 1.32 0.66 2 1 C1.34 3.31 0.68 5.62 0 8 C-7.625 9.25 -7.625 9.25 -11 7 C-10.34 7 -9.68 7 -9 7 C-8.67 6.01 -8.34 5.02 -8 4 C-6.68 4.33 -5.36 4.66 -4 5 C-2.68 3.35 -1.36 1.7 0 0 Z " fill="#668C7C" transform="translate(69,99)"/>
<path d="M0 0 C3.875 1.75 3.875 1.75 5 4 C3.02 4 1.04 4 -1 4 C-1.33 6.31 -1.66 8.62 -2 11 C-3.32 10.01 -4.64 9.02 -6 8 C-4.55746343 4.63408134 -2.66735273 2.48952921 0 0 Z " fill="#849D92" transform="translate(62,65)"/>
<path d="M0 0 C-3.3 3.3 -6.6 6.6 -10 10 C-10.33 9.01 -10.66 8.02 -11 7 C-10.0409375 6.6596875 -10.0409375 6.6596875 -9.0625 6.3125 C-6.72806339 5.14749104 -6.72806339 5.14749104 -6.25 2.375 C-6.1675 1.59125 -6.085 0.8075 -6 0 C-3 -1 -3 -1 0 0 Z " fill="#668A7B" transform="translate(145,81)"/>
<path d="M0 0 C0.99 0.99 1.98 1.98 3 3 C0.69 5.31 -1.62 7.62 -4 10 C-4.99 9.01 -5.98 8.02 -7 7 C-6.01 7 -5.02 7 -4 7 C-4.33 6.01 -4.66 5.02 -5 4 C-3.35 2.68 -1.7 1.36 0 0 Z " fill="#6E9184" transform="translate(109,70)"/>
<path d="M0 0 C1.13199353 0.9080162 2.25532363 1.82683826 3.375 2.75 C4.00148437 3.26046875 4.62796875 3.7709375 5.2734375 4.296875 C7.08312318 6.08199481 8.00117455 7.67949644 9 10 C8.01 10.66 7.02 11.32 6 12 C4.5393715 9.35261084 4 8.10551666 4 5 C2.68 5 1.36 5 0 5 C0 3.35 0 1.7 0 0 Z " fill="#86A095" transform="translate(144,63)"/>
<path d="M0 0 C5.75 4.75 5.75 4.75 8 7 C7.67 8.32 7.34 9.64 7 11 C4.03 8.03 1.06 5.06 -2 2 C-1.34 1.34 -0.68 0.68 0 0 Z " fill="#6D9182" transform="translate(122,53)"/>
<path d="M0 0 C1.17825358 0.90172468 2.34231577 1.82201502 3.5 2.75 C4.1496875 3.26046875 4.799375 3.7709375 5.46875 4.296875 C7 6 7 6 7 10 C6.01 10.495 6.01 10.495 5 11 C4.54625 10.21625 4.0925 9.4325 3.625 8.625 C2.11571258 5.96301969 2.11571258 5.96301969 0 4 C0 2.68 0 1.36 0 0 Z " fill="#66887A" transform="translate(83,85)"/>
<path d="M0 0 C2.475 0.99 2.475 0.99 5 2 C4.01 2.495 4.01 2.495 3 3 C4.32 3.99 5.64 4.98 7 6 C6.67 7.32 6.34 8.64 6 10 C3.69 7.69 1.38 5.38 -1 3 C-0.67 2.01 -0.34 1.02 0 0 Z " fill="#5E8474" transform="translate(91,63)"/>
<path d="M0 0 C0.33 1.65 0.66 3.3 1 5 C-0.98 3.68 -2.96 2.36 -5 1 C-6.32 1.99 -7.64 2.98 -9 4 C-9 2.35 -9 0.7 -9 -1 C-5.79937313 -2.60031344 -3.27728194 -1.03173691 0 0 Z " fill="#719686" transform="translate(109,39)"/>
<path d="M0 0 C1.14926266 0.95421808 2.29430541 1.91352045 3.4375 2.875 C4.07558594 3.40867187 4.71367188 3.94234375 5.37109375 4.4921875 C7 6 7 6 8 8 C5.29068581 7.84518205 3.53415961 7.51827919 1.5546875 5.59765625 C0.32320358 4.10228292 -0.8429837 2.5537076 -2 1 C-1.34 0.67 -0.68 0.34 0 0 Z " fill="#567F6E" transform="translate(67,69)"/>
<path d="M0 0 C0.66 0.33 1.32 0.66 2 1 C1.34 2.98 0.68 4.96 0 7 C-2.31 6.67 -4.62 6.34 -7 6 C-3.375 1.125 -3.375 1.125 0 0 Z " fill="#618777" transform="translate(87,42)"/>
<path d="M0 0 C3.59905908 0.55550695 4.99909799 1.74887248 7.25 4.5625 C8.03117187 5.52349609 8.03117187 5.52349609 8.828125 6.50390625 C9.21484375 6.99761719 9.6015625 7.49132813 10 8 C8.02 8 6.04 8 4 8 C4 6.35 4 4.7 4 3 C2.68 2.67 1.36 2.34 0 2 C0 1.34 0 0.68 0 0 Z " fill="#839E93" transform="translate(108,29)"/>
<path d="M0 0 C1.32 0 2.64 0 4 0 C3.835 0.598125 3.67 1.19625 3.5 1.8125 C2.8885876 4.11344336 2.8885876 4.11344336 3 7 C1.68 7.33 0.36 7.66 -1 8 C-1.125 2.25 -1.125 2.25 0 0 Z " fill="#5C8775" transform="translate(29,67)"/>
<path d="M0 0 C2.97 0.495 2.97 0.495 6 1 C6.12375 1.804375 6.2475 2.60875 6.375 3.4375 C6.684375 4.7059375 6.684375 4.7059375 7 6 C7.66 6.33 8.32 6.66 9 7 C6 7 6 7 4.39453125 5.46875 C3.87246094 4.8190625 3.35039063 4.169375 2.8125 3.5 C2.28269531 2.8503125 1.75289062 2.200625 1.20703125 1.53125 C0.80871094 1.0259375 0.41039062 0.520625 0 0 Z " fill="#577D6E" transform="translate(41,98)"/>
<path d="M0 0 C2.97 0.495 2.97 0.495 6 1 C6.12375 1.804375 6.2475 2.60875 6.375 3.4375 C6.684375 4.7059375 6.684375 4.7059375 7 6 C7.66 6.33 8.32 6.66 9 7 C6 7 6 7 4.39453125 5.46875 C3.87246094 4.8190625 3.35039062 4.169375 2.8125 3.5 C2.28269531 2.8503125 1.75289062 2.200625 1.20703125 1.53125 C0.80871094 1.0259375 0.41039063 0.520625 0 0 Z " fill="#577D6E" transform="translate(25,82)"/>
<path d="M0 0 C0.66 0.99 1.32 1.98 2 3 C1.0409375 3.2784375 1.0409375 3.2784375 0.0625 3.5625 C-2.42126213 4.94246056 -2.42126213 4.94246056 -2.75 8.625 C-2.8325 9.73875 -2.915 10.8525 -3 12 C-3.99 11.67 -4.98 11.34 -6 11 C-5.17857636 6.56431237 -3.17658845 3.17658845 0 0 Z " fill="#5A8776" transform="translate(54,32)"/>
<path d="M0 0 C0.99 0.33 1.98 0.66 3 1 C0.36 3.64 -2.28 6.28 -5 9 C-5.33 8.01 -5.66 7.02 -6 6 C-5.34 6 -4.68 6 -4 6 C-3.896875 5.38125 -3.79375 4.7625 -3.6875 4.125 C-3 2 -3 2 0 0 Z " fill="#6B8E7F" transform="translate(112,110)"/>
<path d="M0 0 C1.14926266 0.95421808 2.29430541 1.91352045 3.4375 2.875 C4.07558594 3.40867187 4.71367188 3.94234375 5.37109375 4.4921875 C7 6 7 6 8 8 C6.35 7.67 4.7 7.34 3 7 C2.67 5.68 2.34 4.36 2 3 C1.01 3 0.02 3 -1 3 C-0.67 2.01 -0.34 1.02 0 0 Z " fill="#5D8373" transform="translate(75,77)"/>
<path d="M0 0 C0 0.99 0 1.98 0 3 C-0.99 3 -1.98 3 -3 3 C-2.67 4.98 -2.34 6.96 -2 9 C-2.99 8.67 -3.98 8.34 -5 8 C-5.6875 5.6875 -5.6875 5.6875 -6 3 C-4.0819994 0.21889913 -3.45555657 0 0 0 Z " fill="#22664E" transform="translate(105,67)"/>
<path d="M0 0 C2 1 2 1 4 3 C3.625 5.125 3.625 5.125 3 7 C2.01 7 1.02 7 0 7 C-0.38133299 5.0085944 -0.71325582 3.00720923 -1 1 C-0.67 0.67 -0.34 0.34 0 0 Z " fill="#24654C" transform="translate(38,84)"/>
<path d="M0 0 C2.3125 0.1875 2.3125 0.1875 4 1 C2.80873219 3.38253561 1.61305574 4.12188876 -0.5625 5.625 C-1.20316406 6.07101563 -1.84382813 6.51703125 -2.50390625 6.9765625 C-2.99761719 7.31429687 -3.49132813 7.65203125 -4 8 C-4.33 7.01 -4.66 6.02 -5 5 C-2.75 2.4375 -2.75 2.4375 0 0 Z " fill="#7B9D8D" transform="translate(61,37)"/>
<path d="M0 0 C0.99 0.33 1.98 0.66 3 1 C2.360625 1.391875 1.72125 1.78375 1.0625 2.1875 C-1.43778819 4.38472296 -1.64950425 5.75791433 -2 9 C-3.65 8.67 -5.3 8.34 -7 8 C-6.02133662 6.85373678 -5.04205413 5.70800212 -4.0625 4.5625 C-3.51722656 3.92441406 -2.97195312 3.28632813 -2.41015625 2.62890625 C-1.63204305 1.73008851 -0.84063472 0.84063472 0 0 Z " fill="#88A497" transform="translate(62,24)"/>
<path d="M0 0 C1.32 0 2.64 0 4 0 C4 0.99 4 1.98 4 3 C4.99 3 5.98 3 7 3 C7.66 4.32 8.32 5.64 9 7 C6 7 6 7 4.39453125 5.46875 C3.87246094 4.8190625 3.35039063 4.169375 2.8125 3.5 C2.28269531 2.8503125 1.75289062 2.200625 1.20703125 1.53125 C0.80871094 1.0259375 0.41039062 0.520625 0 0 Z " fill="#5D8172" transform="translate(52,109)"/>
<path d="M0 0 C0 3.66842255 -0.79029126 5.10451959 -3 8 C-5.6875 8.8125 -5.6875 8.8125 -8 9 C-7.04270084 7.87411986 -6.08412105 6.7493285 -5.125 5.625 C-4.59132813 4.99851562 -4.05765625 4.37203125 -3.5078125 3.7265625 C-2.38567993 2.44163349 -1.20628025 1.20628025 0 0 Z " fill="#638577" transform="translate(115,95)"/>
<path d="M0 0 C3.25543229 0.34879632 4.01873107 1.02133261 6.25 3.5625 C6.8275 4.366875 7.405 5.17125 8 6 C7.236875 5.835 6.47375 5.67 5.6875 5.5 C2.96403764 4.90854604 2.96403764 4.90854604 0 5 C0 3.35 0 1.7 0 0 Z " fill="#5B8473" transform="translate(52,97)"/>
<path d="M0 0 C1.32 0.33 2.64 0.66 4 1 C2.60667426 4.36720387 1.0210714 5.9859524 -2 8 C-2.66 7.67 -3.32 7.34 -4 7 C-3.34 6.401875 -2.68 5.80375 -2 5.1875 C0.3373846 3.12498166 0.3373846 3.12498166 0 0 Z " fill="#568270" transform="translate(75,91)"/>
<path d="M0 0 C0.66 0 1.32 0 2 0 C2 0.99 2 1.98 2 3 C2.66 3.33 3.32 3.66 4 4 C4 5.65 4 7.3 4 9 C2 7.875 2 7.875 0 6 C-0.25 2.8125 -0.25 2.8125 0 0 Z " fill="#4B7865" transform="translate(60,71)"/>
<path d="M0 0 C2.31 1.98 4.62 3.96 7 6 C6.67 6.66 6.34 7.32 6 8 C4 8 4 8 1.875 6.25 C0 4 0 4 0 0 Z " fill="#517B6A" transform="translate(65,26)"/>
<path d="M0 0 C0 1.65 0 3.3 0 5 C-0.99 4.67 -1.98 4.34 -3 4 C-3 5.32 -3 6.64 -3 8 C-3.99 7.67 -4.98 7.34 -6 7 C-2.72340426 0 -2.72340426 0 0 0 Z " fill="#25654C" transform="translate(121,94)"/>
<path d="M0 0 C0.598125 0.61875 1.19625 1.2375 1.8125 1.875 C4.00811144 4.13676954 4.00811144 4.13676954 7 6 C6.34 6 5.68 6 5 6 C4.67 6.66 4.34 7.32 4 8 C2.02 5.69 0.04 3.38 -2 1 C-1.34 0.67 -0.68 0.34 0 0 Z " fill="#648C7C" transform="translate(66,79)"/>
<path d="M0 0 C1.67542976 0.28604898 3.34385343 0.61781233 5 1 C5 1.66 5 2.32 5 3 C4.34 3 3.68 3 3 3 C3 3.66 3 4.32 3 5 C2.01 5.33 1.02 5.66 0 6 C-0.38218767 4.34385343 -0.71395102 2.67542976 -1 1 C-0.67 0.67 -0.34 0.34 0 0 Z " fill="#2B6550" transform="translate(20,68)"/>
<path d="M0 0 C0 2.62113708 -0.31292445 4.50935112 -1 7 C-2.98 7.33 -4.96 7.66 -7 8 C-6.02133662 6.85373678 -5.04205413 5.70800212 -4.0625 4.5625 C-3.51722656 3.92441406 -2.97195312 3.28632812 -2.41015625 2.62890625 C-1.63204305 1.73008851 -0.84063472 0.84063472 0 0 Z " fill="#88A798" transform="translate(49,37)"/>
<path d="M0 0 C0.99 0.33 1.98 0.66 3 1 C2.67 1.99 2.34 2.98 2 4 C1.34 4 0.68 4 0 4 C0.33 5.65 0.66 7.3 1 9 C0.34 8.67 -0.32 8.34 -1 8 C-1.40729228 5.67843403 -1.74438677 3.3431213 -2 1 C-1.34 0.67 -0.68 0.34 0 0 Z " fill="#3E725E" transform="translate(99,66)"/>
<path d="M0 0 C0.66 0 1.32 0 2 0 C2 0.99 2 1.98 2 3 C3.65 3.33 5.3 3.66 7 4 C7 4.66 7 5.32 7 6 C2.25 5.25 2.25 5.25 0 3 C0 2.01 0 1.02 0 0 Z " fill="#517969" transform="translate(94,108)"/>
<path d="M0 0 C2.31 0.33 4.62 0.66 7 1 C5.02 1.99 5.02 1.99 3 3 C3 3.66 3 4.32 3 5 C1.35 4.67 -0.3 4.34 -2 4 C-1.34 3.34 -0.68 2.68 0 2 C0 1.34 0 0.68 0 0 Z " fill="#40715F" transform="translate(102,72)"/>
<path d="M0 0 C-2.97 2.475 -2.97 2.475 -6 5 C-6 3.35 -6 1.7 -6 0 C-3.50907189 -1.24546405 -2.58919267 -0.7767578 0 0 Z " fill="#739588" transform="translate(100,44)"/>
<path d="M0 0 C1.32 1.32 2.64 2.64 4 4 C2.35 5.32 0.7 6.64 -1 8 C-0.67 5.36 -0.34 2.72 0 0 Z " fill="#759386" transform="translate(72,33)"/>
<path d="M0 0 C-1.39332574 3.36720387 -2.9789286 4.9859524 -6 7 C-6.33 6.34 -6.66 5.68 -7 5 C-6.34 5 -5.68 5 -5 5 C-5 4.01 -5 3.02 -5 2 C-2 0 -2 0 0 0 Z " fill="#7A978A" transform="translate(69,114)"/>
<path d="M0 0 C0.66 0.33 1.32 0.66 2 1 C-2.75 6.75 -2.75 6.75 -5 9 C-5 5 -5 5 -2.5 2.25 C-1.675 1.5075 -0.85 0.765 0 0 Z " fill="#A9C2BB" transform="translate(98,101)"/>
<path d="M0 0 C0.66 0 1.32 0 2 0 C2 1.65 2 3.3 2 5 C1.34 5 0.68 5 0 5 C-0.33 5.66 -0.66 6.32 -1 7 C-1.66 6.01 -2.32 5.02 -3 4 C-2.34 4 -1.68 4 -1 4 C-0.67 2.68 -0.34 1.36 0 0 Z " fill="#427560" transform="translate(52,102)"/>
<path d="M0 0 C0.99 0.33 1.98 0.66 3 1 C2.01 2.32 1.02 3.64 0 5 C-1.32 4.67 -2.64 4.34 -4 4 C-2.68 2.68 -1.36 1.36 0 0 Z " fill="#79998E" transform="translate(100,27)"/>
<path d="M0 0 C0.33 0.99 0.66 1.98 1 3 C-1.97 5.475 -1.97 5.475 -5 8 C-5.66 7.67 -6.32 7.34 -7 7 C-4.69 4.69 -2.38 2.38 0 0 Z " fill="#698B7C" transform="translate(125,85)"/>
<path d="M0 0 C1.9375 0.375 1.9375 0.375 4 1 C4.33 1.66 4.66 2.32 5 3 C3.02 3.66 1.04 4.32 -1 5 C-0.67 3.35 -0.34 1.7 0 0 Z " fill="#1F664C" transform="translate(71,79)"/>
<path d="M0 0 C1.98 1.65 3.96 3.3 6 5 C5.01 5.495 5.01 5.495 4 6 C1.875 5.0625 1.875 5.0625 0 4 C0 2.68 0 1.36 0 0 Z " fill="#91A99F" transform="translate(128,47)"/>
</svg>
