<?xml version="1.0" encoding="UTF-8"?>
<svg version="1.1" xmlns="http://www.w3.org/2000/svg" width="480" height="480">
<path d="M0 0 C158.4 0 316.8 0 480 0 C480 158.4 480 316.8 480 480 C321.6 480 163.2 480 0 480 C0 321.6 0 163.2 0 0 Z " fill="#4EA4EE" transform="translate(0,0)"/>
<path d="M0 0 C1.00274963 -0.01577087 2.00549927 -0.03154175 3.03863525 -0.04779053 C4.67684235 -0.05615936 4.67684235 -0.05615936 6.34814453 -0.06469727 C7.48797791 -0.07567444 8.62781128 -0.08665161 9.80218506 -0.09796143 C13.5285668 -0.12488606 17.2544821 -0.13095478 20.98095703 -0.13110352 C22.87210236 -0.13420029 22.87210236 -0.13420029 24.80145264 -0.13735962 C40.90771947 -0.13261532 56.77444972 0.34007955 72.73095703 2.61889648 C73.49132263 2.72549591 74.25168823 2.83209534 75.03509521 2.94192505 C89.63749733 5.05197035 89.63749733 5.05197035 95.81689453 9.55249023 C97.78215955 12.22644173 98.67816214 15.25710232 99.73095703 18.36889648 C102.33561366 25.73420099 105.60345961 32.61673368 109.20996094 39.54101562 C112.10595703 45.12615095 112.10595703 45.12615095 112.10595703 47.30639648 C116.30432884 43.29056258 116.37090443 40.16946184 116.82470703 34.52124023 C117.10595703 32.30639648 117.10595703 32.30639648 118.10595703 31.30639648 C121.5547692 30.97274946 125.01807547 30.98151714 128.48095703 30.93139648 C129.93888672 30.87532227 129.93888672 30.87532227 131.42626953 30.81811523 C134.07660024 30.78516913 136.501123 30.81271511 139.10595703 31.30639648 C141.74190553 34.15169829 142.10595703 35.45503188 142.10595703 39.30639648 C141.55657471 39.46197021 141.00719238 39.61754395 140.44116211 39.77783203 C137.92841983 40.49973216 135.42373318 41.24651651 132.91845703 41.99389648 C132.05414063 42.23817383 131.18982422 42.48245117 130.29931641 42.73413086 C125.04138149 44.32561307 121.61298633 45.84354356 118.10595703 50.30639648 C117.77595703 51.29639648 117.44595703 52.28639648 117.10595703 53.30639648 C117.91033203 53.51264648 118.71470703 53.71889648 119.54345703 53.93139648 C128.64737625 57.44518987 135.2671225 63.19649433 139.98095703 71.68139648 C143.6816667 83.29017027 140.78021404 97.15706429 139.24853516 108.90112305 C138.28660283 116.36635618 137.67101561 123.77310366 137.3972168 131.29418945 C137.28574121 134.27658485 137.13327249 137.1552086 136.60205078 140.09545898 C136.14408351 143.05962513 135.99678111 145.82410608 135.93017578 148.81811523 C135.90632812 149.82293945 135.88248047 150.82776367 135.85791016 151.86303711 C135.81470452 153.96178338 135.78358429 156.06081103 135.76416016 158.15991211 C135.72258789 159.66134766 135.72258789 159.66134766 135.68017578 161.19311523 C135.66559326 162.10279053 135.65101074 163.01246582 135.63598633 163.94970703 C135.10595703 166.30639648 135.10595703 166.30639648 133.68945312 168.09887695 C129.62076818 170.00056999 125.63350722 169.75396239 121.19580078 169.73999023 C120.23194962 169.74523209 119.26809845 169.75047394 118.27503967 169.75587463 C116.24009158 169.76229123 114.20510638 169.76096253 112.17016602 169.75244141 C109.05109015 169.74391734 105.933837 169.77272078 102.81494141 169.80444336 C100.83772841 169.80605507 98.86051217 169.80547841 96.88330078 169.80249023 C95.94888657 169.81372421 95.01447235 169.82495819 94.05174255 169.83653259 C87.62065794 169.76701038 87.62065794 169.76701038 85.02197266 167.44140625 C83.8791087 164.77766815 83.67243766 162.70429303 83.66845703 159.80639648 C83.64912109 158.86795898 83.62978516 157.92952148 83.60986328 156.96264648 C84.25845721 153.48986012 85.34581742 152.47754279 88.10595703 150.30639648 C91.03857422 149.85229492 91.03857422 149.85229492 94.40283203 149.91577148 C95.60810547 149.92866211 96.81337891 149.94155273 98.05517578 149.95483398 C99.9365625 150.00510742 99.9365625 150.00510742 101.85595703 150.05639648 C103.12568359 150.07444336 104.39541016 150.09249023 105.70361328 150.11108398 C108.8384878 150.15822495 111.97184263 150.22401984 115.10595703 150.30639648 C115.10595703 149.31639648 115.10595703 148.32639648 115.10595703 147.30639648 C55.37595703 147.30639648 -4.35404297 147.30639648 -65.89404297 147.30639648 C-65.89404297 148.62639648 -65.89404297 149.94639648 -65.89404297 151.30639648 C-65.03125732 151.29068604 -64.16847168 151.27497559 -63.27954102 151.25878906 C-60.0759503 151.20763694 -56.87256782 151.17003488 -53.66870117 151.14160156 C-52.28256377 151.12652251 -50.89647403 151.10605598 -49.51049805 151.08007812 C-47.51746151 151.04365933 -45.52407574 151.0282663 -43.53076172 151.01342773 C-41.73191528 150.98986206 -41.73191528 150.98986206 -39.89672852 150.96582031 C-36.89404297 151.30639648 -36.89404297 151.30639648 -35.00195312 152.66259766 C-33.38641016 155.05956786 -33.53157125 156.94647667 -33.58154297 159.80639648 C-33.58734375 161.24499023 -33.58734375 161.24499023 -33.59326172 162.71264648 C-33.89404297 165.30639648 -33.89404297 165.30639648 -35.89404297 168.30639648 C-38.63824044 169.22112898 -40.30402843 169.44170002 -43.13427734 169.4675293 C-44.41075134 169.48194061 -44.41075134 169.48194061 -45.7130127 169.49664307 C-46.62869019 169.50089294 -47.54436768 169.50514282 -48.48779297 169.50952148 C-49.43086304 169.51522156 -50.37393311 169.52092163 -51.34558105 169.52679443 C-53.33942545 169.53623866 -55.33328541 169.54277612 -57.32714844 169.54663086 C-60.38227325 169.55635901 -63.43673166 169.5873969 -66.49169922 169.61889648 C-68.42789314 169.62542442 -70.36409187 169.63067571 -72.30029297 169.63452148 C-73.21597046 169.64686829 -74.13164795 169.65921509 -75.07507324 169.67193604 C-76.35154724 169.66743439 -76.35154724 169.66743439 -77.65380859 169.6628418 C-78.40198853 169.66648743 -79.15016846 169.67013306 -79.92102051 169.67388916 C-82.4998251 169.19356427 -83.35982283 168.41488803 -84.89404297 166.30639648 C-85.317276 164.35597229 -85.317276 164.35597229 -85.38647461 162.1171875 C-85.41983414 161.27523331 -85.45319366 160.43327911 -85.48756409 159.56581116 C-85.52054848 158.20183449 -85.52054848 158.20183449 -85.55419922 156.81030273 C-85.58960312 155.86638168 -85.62500702 154.92246063 -85.66148376 153.94993591 C-85.77339265 150.92321936 -85.86630469 147.89633071 -85.95654297 144.86889648 C-86.45684136 127.49218002 -86.45684136 127.49218002 -88.89404297 110.30639648 C-93.85297202 78.03692045 -93.85297202 78.03692045 -86.38232422 67.09155273 C-80.91549605 60.49450391 -75.2771982 56.18832929 -66.89404297 54.30639648 C-68.21426784 49.50742017 -68.21426784 49.50742017 -71.65478516 46.19848633 C-73.83745143 45.33825903 -76.01370379 44.63963971 -78.26904297 43.99389648 C-79.77700767 43.5191192 -81.28482402 43.04387046 -82.79248047 42.56811523 C-83.85354004 42.24786377 -83.85354004 42.24786377 -84.93603516 41.92114258 C-87.31061015 41.17560893 -89.60355022 40.27825894 -91.89404297 39.30639648 C-91.89404297 38.97639648 -91.89404297 38.64639648 -91.89404297 38.30639648 C-89.91404297 38.30639648 -87.93404297 38.30639648 -85.89404297 38.30639648 C-85.89404297 37.64639648 -85.89404297 36.98639648 -85.89404297 36.30639648 C-89.19404297 36.30639648 -92.49404297 36.30639648 -95.89404297 36.30639648 C-95.89404297 34.32639648 -95.89404297 32.34639648 -95.89404297 30.30639648 C-86.13363231 29.98638302 -76.57371702 31.19333335 -66.89404297 32.30639648 C-66.86826172 33.05405273 -66.84248047 33.80170898 -66.81591797 34.57202148 C-66.60717413 40.71331853 -66.60717413 40.71331853 -63.83154297 45.99389648 C-63.19216797 46.42702148 -62.55279297 46.86014648 -61.89404297 47.30639648 C-61.73935547 46.22358398 -61.73935547 46.22358398 -61.58154297 45.11889648 C-60.83417365 42.06147656 -59.61359108 39.92310014 -57.89404297 37.30639648 C-54.49574707 40.46056193 -52.4282354 43.93602129 -50.89404297 48.30639648 C-51.08154297 51.55639648 -51.08154297 51.55639648 -51.89404297 54.30639648 C-52.22404297 55.62639648 -52.55404297 56.94639648 -52.89404297 58.30639648 C-47.28404297 58.63639648 -41.67404297 58.96639648 -35.89404297 59.30639648 C-35.89404297 59.96639648 -35.89404297 60.62639648 -35.89404297 61.30639648 C-37.51654238 62.14458806 -39.14212794 62.97680808 -40.76904297 63.80639648 C-42.12642578 64.50249023 -42.12642578 64.50249023 -43.51123047 65.21264648 C-45.89404297 66.30639648 -45.89404297 66.30639648 -47.89404297 66.30639648 C-47.02779297 67.8784082 -47.02779297 67.8784082 -46.14404297 69.48217773 C-45.39371493 70.86090551 -44.64373288 72.23982162 -43.89404297 73.61889648 C-43.51248047 74.30918945 -43.13091797 74.99948242 -42.73779297 75.71069336 C-39.89404297 80.96655273 -39.89404297 80.96655273 -39.89404297 84.30639648 C-37.36296983 82.90609653 -34.84558723 81.48676339 -32.33154297 80.05639648 C-31.64640625 79.67999023 -30.96126953 79.30358398 -30.25537109 78.91577148 C-26.40326867 76.70469924 -23.12691363 74.67520782 -20.20288086 71.30664062 C-13.77477985 64.36763843 -7.66943745 61.7051814 1.73909092 61.17454338 C9.5277089 60.88014685 17.32102233 61.01811186 25.11071777 61.19372559 C31.46693941 61.32481129 37.8251214 61.34950322 44.18248367 61.38255692 C45.75161072 61.39166606 47.32072479 61.4033951 48.88981247 61.41776657 C62.93424468 61.53953137 76.69537268 60.51288045 90.64526367 58.96484375 C95.511415 58.42734814 100.2141866 58.15881153 105.10595703 58.30639648 C100.72268839 48.36719252 96.28979712 38.46031933 91.64892578 28.63842773 C90.10595703 25.30639648 90.10595703 25.30639648 88.96923828 21.50561523 C87.49786022 18.25596922 87.49786022 18.25596922 85.21191406 17.4777832 C82.84675492 16.94420819 80.5117828 16.60280512 78.10595703 16.30639648 C76.75169038 16.0413265 75.39875013 15.76937141 74.04736328 15.48999023 C57.53820613 12.55744258 40.82327873 12.5389598 24.10595703 12.30639648 C22.50034912 12.28150146 22.50034912 12.28150146 20.86230469 12.25610352 C10.2260024 12.10910804 -0.29248408 12.40687028 -10.89404297 13.30639648 C-10.47078714 11.51131147 -10.02993562 9.72036818 -9.58154297 7.93139648 C-9.33791016 6.93366211 -9.09427734 5.93592773 -8.84326172 4.90795898 C-7.180335 0.35030799 -4.39655109 0.05336515 0 0 Z " fill="#0E4D74" transform="translate(257.89404296875,177.693603515625)"/>
<path d="M0 0 C12.1619649 26.2467701 8.94219894 50.17340319 0 77 C1.16789062 76.89171875 1.16789062 76.89171875 2.359375 76.78125 C12.93016662 75.90441014 23.40086657 75.8493394 34 76 C35.24990723 76.01256836 36.49981445 76.02513672 37.78759766 76.03808594 C88.37857833 76.58571889 88.37857833 76.58571889 98 83 C99.02734375 84.67651367 99.02734375 84.67651367 99.9375 86.66796875 C100.27523437 87.39693359 100.61296875 88.12589844 100.9609375 88.87695312 C101.47527344 90.02067383 101.47527344 90.02067383 102 91.1875 C102.51433594 92.3022168 102.51433594 92.3022168 103.0390625 93.43945312 C104.59034737 96.81734632 106.09002667 100.21066693 107.55078125 103.62890625 C109.50804612 108.18178923 111.65629227 112.63847045 113.79296875 117.109375 C115 120 115 120 115 123 C109.86182623 123.71819641 104.71657744 124.3467231 99.5625 124.9375 C98.7280838 125.03458252 97.8936676 125.13166504 97.03396606 125.23168945 C84.36130353 126.64825105 71.78871394 127.13179329 59.0496769 127.07660103 C56.61075248 127.06637928 54.17189996 127.06305675 51.73295593 127.06126404 C38.38809838 127.04190155 38.38809838 127.04190155 32.05545044 126.89572144 C11.11529223 125.49598827 11.11529223 125.49598827 -7.1640625 133.734375 C-9.20796718 135.75349248 -11.08977962 137.84841603 -13 140 C-15.66137621 141.96761772 -18.435093 143.62127905 -21.3125 145.25 C-22.25899414 145.81267578 -22.25899414 145.81267578 -23.22460938 146.38671875 C-27.69973386 149 -27.69973386 149 -30 149 C-31.33819498 146.3773768 -32.6707151 143.75213401 -34 141.125 C-34.57234375 140.00544922 -34.57234375 140.00544922 -35.15625 138.86328125 C-35.69765625 137.79013672 -35.69765625 137.79013672 -36.25 136.6953125 C-36.58515625 136.03547363 -36.9203125 135.37563477 -37.265625 134.69580078 C-38 133 -38 133 -38 131 C-36.37750059 130.16180842 -34.75191503 129.3295884 -33.125 128.5 C-32.22007812 128.0359375 -31.31515625 127.571875 -30.3828125 127.09375 C-28 126 -28 126 -26 126 C-26 125.34 -26 124.68 -26 124 C-26.64066406 124.01160156 -27.28132813 124.02320313 -27.94140625 124.03515625 C-33.08653222 124.08883119 -37.93024924 123.88169578 -43 123 C-42.85820312 122.42894531 -42.71640625 121.85789062 -42.5703125 121.26953125 C-41.22955525 113.87184434 -43.26009499 109.32093818 -46.75 102.78515625 C-48 100 -48 100 -47 97 C-44.9609375 95.38671875 -44.9609375 95.38671875 -42.375 93.6875 C-27.19511131 83.31601355 -17.34502308 69.03653467 -13 51 C-12.7215625 49.89011719 -12.7215625 49.89011719 -12.4375 48.7578125 C-10.86253823 38.82992849 -11.2442003 27.65364984 -14 18 C-14.39638672 16.60394531 -14.39638672 16.60394531 -14.80078125 15.1796875 C-15.50690293 12.77686585 -16.23858323 10.38577254 -17 8 C-14.73354942 6.65869239 -12.46239903 5.32683766 -10.1875 4 C-9.54490234 3.6184375 -8.90230469 3.236875 -8.24023438 2.84375 C-3.33984375 0 -3.33984375 0 0 0 Z " fill="#4DA3ED" transform="translate(248,113)"/>
<path d="M0 0 C10.00930059 5.99848156 16.18330765 13.29748955 20.203125 24.3203125 C20.62487083 27.10533636 20.68069311 29.81945895 20.640625 32.6328125 C20.63305176 33.37974365 20.62547852 34.1266748 20.61767578 34.89624023 C20.33378503 44.45424077 16.87657619 52.41772994 10.203125 59.3203125 C4.65218504 64.10295627 -0.74977991 67.05909405 -7.86328125 68.8125 C-9.78924267 69.14458001 -9.78924267 69.14458001 -10.796875 70.3203125 C-21.45488215 71.19391964 -31.00417921 67.8219862 -39.5390625 61.44140625 C-45.97090924 55.3990312 -51.23587109 46.27837409 -52.23046875 37.48828125 C-52.24182223 25.91908617 -50.40118391 17.53579354 -42.92578125 8.4296875 C-31.763068 -2.63061554 -14.54758026 -7.07586387 0 0 Z " fill="#F3F4F5" transform="translate(392.796875,100.6796875)"/>
<path d="M0 0 C25.74 0 51.48 0 78 0 C81.375 13.5 81.375 13.5 81 21 C79.62437146 19.71034824 78.29233607 18.37310707 77 17 C77 16.34 77 15.68 77 15 C76.34 15 75.68 15 75 15 C74.67 16.32 74.34 17.64 74 19 C73.505 15.535 73.505 15.535 73 12 C72.01 12 71.02 12 70 12 C70.01160156 12.70640625 70.02320313 13.4128125 70.03515625 14.140625 C70.09723908 21.20032943 69.9846256 28.25673953 69.75 35.3125 C69.73590088 36.14749023 69.72180176 36.98248047 69.70727539 37.84277344 C69.48361139 43.45835727 68.5477622 48.48236928 65 53 C60.51720557 56.70947498 56.05018715 56.46747562 50.5 56.46875 C49.58669922 56.47636353 48.67339844 56.48397705 47.73242188 56.49182129 C45.80601733 56.50260218 43.87955444 56.50548358 41.953125 56.50097656 C39.00942555 56.50000312 36.06832412 56.54166959 33.125 56.5859375 C31.25000542 56.59114404 29.37500181 56.5938327 27.5 56.59375 C26.18418945 56.6183429 26.18418945 56.6183429 24.84179688 56.64343262 C20.52013674 56.59464922 18.58032685 56.43486334 15.03125 53.77539062 C11.25919295 48.62145499 10.68706513 44.35925223 10.5859375 38.07421875 C10.56657135 37.32662796 10.5472052 36.57903717 10.5272522 35.80879211 C10.46776082 33.43514194 10.42119408 31.06144246 10.375 28.6875 C10.33679211 27.07224518 10.29773875 25.45701013 10.2578125 23.84179688 C10.1620847 19.8946929 10.07794233 15.94749361 10 12 C8.68 12 7.36 12 6 12 C5.95101562 12.84304687 5.90203125 13.68609375 5.8515625 14.5546875 C5.77679688 15.65039062 5.70203125 16.74609375 5.625 17.875 C5.55539063 18.96554688 5.48578125 20.05609375 5.4140625 21.1796875 C5 24 5 24 3 26 C2.67 23.03 2.34 20.06 2 17 C1.01 17.99 0.02 18.98 -1 20 C-1.02749868 18.16675453 -1.04661673 16.3333829 -1.0625 14.5 C-1.07410156 13.4790625 -1.08570312 12.458125 -1.09765625 11.40625 C-0.98819297 7.58817095 -0.47376901 3.79015207 0 0 Z " fill="#2A3034" transform="translate(117,103)"/>
<path d="M0 0 C1.32 0 2.64 0 4 0 C4.91406536 3.91709555 5.1496055 7.60328536 5.2109375 11.62109375 C5.23929687 12.88630859 5.26765625 14.15152344 5.296875 15.45507812 C5.34887895 18.10597937 5.39317374 20.75704327 5.4296875 23.40820312 C5.460625 24.67470703 5.4915625 25.94121094 5.5234375 27.24609375 C5.5531665 28.97363892 5.5531665 28.97363892 5.58349609 30.73608398 C6.21710677 35.70134838 8.08715392 39.80660724 12 43 C13.96159019 43.44449374 13.96159019 43.44449374 16.13256836 43.37231445 C16.96030258 43.37854324 17.7880368 43.38477203 18.64085388 43.39118958 C19.53152054 43.38197983 20.42218719 43.37277008 21.33984375 43.36328125 C22.2583461 43.36377975 23.17684845 43.36427826 24.1231842 43.36479187 C26.06578738 43.36245135 28.00839358 43.3527241 29.95092773 43.33618164 C32.92263974 43.31261783 35.89345286 43.31561734 38.86523438 43.32226562 C40.75260951 43.31668781 42.63998087 43.30957728 44.52734375 43.30078125 C45.41598618 43.30169266 46.3046286 43.30260406 47.22019958 43.30354309 C48.05108597 43.29401108 48.88197235 43.28447906 49.73803711 43.2746582 C50.46623154 43.27005081 51.19442596 43.26544342 51.94468689 43.26069641 C54.37377374 42.95259045 55.92863346 42.30112408 58 41 C63.29836464 33.52892468 62.8900253 24.82125508 63.25 16 C63.32649033 14.44653323 63.40460114 12.89314536 63.484375 11.33984375 C63.67496668 7.56054772 63.84352447 3.78085591 64 0 C64.99 0 65.98 0 67 0 C67.33 1.32 67.66 2.64 68 4 C68.99 4 69.98 4 71 4 C70.9309001 8.87516992 70.84282699 13.74950032 70.73754883 18.62402344 C70.70439982 20.28050384 70.67633691 21.93709446 70.65356445 23.59375 C70.61983268 25.98224634 70.56751041 28.36974171 70.51171875 30.7578125 C70.50532883 31.49242706 70.4989389 32.22704163 70.49235535 32.98391724 C70.29541457 39.95124219 67.74895392 44.97967729 63 50 C57.81773015 53.31728759 53.55312772 53.37042693 47.625 53.1875 C43.355625 53.0946875 43.355625 53.0946875 39 53 C39 59.6 39 66.2 39 73 C42.63 73 46.26 73 50 73 C50 79.6 50 86.2 50 93 C45.66666667 93 41.33333333 93 37 93 C36.67 93.33 36.34 93.66 36 94 C31.96839809 94.26293056 30.44107266 94.29404844 27 92 C27 94.97 27 97.94 27 101 C23.7 101 20.4 101 17 101 C17 98.03 17 95.06 17 92 C1.82 92 -13.36 92 -29 92 C-29 97.94 -29 103.88 -29 110 C-31.31 110 -33.62 110 -36 110 C-36 103.73 -36 97.46 -36 91 C-46.89 91 -57.78 91 -69 91 C-69 87.37 -69 83.74 -69 80 C-58.44 80 -47.88 80 -37 80 C-37 74.06 -37 68.12 -37 62 C-34.36 62 -31.72 62 -29 62 C-29 68.6 -29 75.2 -29 82 C-13.82 82 1.36 82 17 82 C17 79.36 17 76.72 17 74 C20.63 74 24.26 74 28 74 C28 67.07 28 60.14 28 53 C25.03 53.12375 22.06 53.2475 19 53.375 C12.57983665 53.46927871 7.50171412 53.54205671 2.47265625 49.09375 C-2.77045925 41.63934705 -3.58100553 35.71092811 -3.375 26.625 C-3.37371094 25.5525 -3.37242188 24.48 -3.37109375 23.375 C-3.2822144 15.25735284 -1.98130552 7.83849829 0 0 Z " fill="#9FA5AD" transform="translate(123,115)"/>
<path d="M0 0 C6.64613658 3.75154415 11.7032767 8.35766582 14.875 15.40234375 C17.17702689 23.88182814 17.38572719 34.15265205 13.6640625 42.2265625 C9.26622392 49.42415184 3.11589481 55.39005457 -5.00390625 58.12109375 C-14.40953085 59.85328279 -24.98913263 59.6222764 -33.2734375 54.5390625 C-40.57238883 49.14309676 -45.4153986 43.54244562 -47.2734375 34.5390625 C-48.36100442 23.85050163 -47.34325499 16.08864906 -40.734375 7.55078125 C-30.07652436 -4.24357005 -14.11741891 -6.66759363 0 0 Z " fill="#F6FAFE" transform="translate(275.2734375,356.4609375)"/>
<path d="M0 0 C11.68099309 25.20878351 9.27174737 48.0469586 1 74 C0.67 74.66 0.34 75.32 0 76 C-0.66 76 -1.32 76 -2 76 C-2.04898438 76.66257812 -2.09796875 77.32515625 -2.1484375 78.0078125 C-3.37953045 82.33357948 -5.90112236 85.34649023 -8.625 88.875 C-9.38876953 89.89787109 -9.38876953 89.89787109 -10.16796875 90.94140625 C-15.80519143 98.35880451 -21.86490069 104.30728178 -29.6875 109.375 C-30.33783203 109.81199219 -30.98816406 110.24898438 -31.65820312 110.69921875 C-34.74391774 112.731198 -37.38785612 114.24646185 -41 115 C-41.98669759 113.10807525 -42.9640602 111.21128022 -43.9375 109.3125 C-44.75541016 107.72888672 -44.75541016 107.72888672 -45.58984375 106.11328125 C-46.8470576 103.33765953 -47.56069569 100.99727874 -48 98 C-47.28714844 97.49210937 -46.57429687 96.98421875 -45.83984375 96.4609375 C-42.87550518 94.33044383 -39.93275844 92.1737383 -37 90 C-36.00613281 89.26716797 -36.00613281 89.26716797 -34.9921875 88.51953125 C-23.57750417 79.46742191 -16.35822181 64.9402445 -13 51 C-12.7215625 49.89011719 -12.7215625 49.89011719 -12.4375 48.7578125 C-10.86253823 38.82992849 -11.2442003 27.65364984 -14 18 C-14.39638672 16.60394531 -14.39638672 16.60394531 -14.80078125 15.1796875 C-15.50690293 12.77686585 -16.23858323 10.38577254 -17 8 C-14.73354942 6.65869239 -12.46239903 5.32683766 -10.1875 4 C-9.54490234 3.6184375 -8.90230469 3.236875 -8.24023438 2.84375 C-3.33984375 0 -3.33984375 0 0 0 Z " fill="#CAE6FA" transform="translate(248,113)"/>
<path d="M0 0 C12.54 0 25.08 0 38 0 C39.629375 2.990625 41.25875 5.98125 42.9375 9.0625 C46.90482098 16.31983807 50.98608545 23.48175479 55.35717773 30.50415039 C58 34.7953152 58 34.7953152 58 37 C32.92 37 7.84 37 -18 37 C-14.535 30.07 -14.535 30.07 -11 23 C-10.34 21.329375 -9.68 19.65875 -9 17.9375 C-6.48851381 11.73726846 -3.17152704 5.8899788 0 0 Z " fill="#BBC1CA" transform="translate(136,65)"/>
<path d="M0 0 C1.42392563 -0.00639748 1.42392563 -0.00639748 2.87661743 -0.01292419 C3.92651352 -0.01247101 4.97640961 -0.01201782 6.05812073 -0.0115509 C7.15720764 -0.01490952 8.25629456 -0.01826813 9.38868713 -0.02172852 C13.04226291 -0.03127124 16.69579302 -0.03318327 20.34938049 -0.03425598 C22.87664815 -0.03746618 25.40391561 -0.04083006 27.93118286 -0.04434204 C33.23668423 -0.05034159 38.54216841 -0.05222375 43.84767151 -0.05158997 C49.98646763 -0.05098902 56.12517592 -0.06154243 62.26394981 -0.07733363 C68.16127041 -0.09196522 74.05856407 -0.09557858 79.95590401 -0.09498024 C82.46902386 -0.09616445 84.98214428 -0.10061066 87.49525261 -0.10831261 C91.00326298 -0.11805683 94.51104456 -0.11525656 98.01905823 -0.10920715 C99.06693008 -0.11482666 100.11480194 -0.12044617 101.19442749 -0.12623596 C102.62258286 -0.11994423 102.62258286 -0.11994423 104.07958984 -0.11352539 C104.9097483 -0.11407016 105.73990675 -0.11461493 106.59522152 -0.1151762 C108.60328674 0.13371277 108.60328674 0.13371277 110.60328674 2.13371277 C110.86891174 4.66496277 110.86891174 4.66496277 110.85328674 7.63371277 C110.86102112 9.10324402 110.86102112 9.10324402 110.86891174 10.60246277 C110.60328674 13.13371277 110.60328674 13.13371277 108.60328674 15.13371277 C106.6136322 15.38539505 106.6136322 15.38539505 104.12428284 15.38768005 C102.71091644 15.39613953 102.71091644 15.39613953 101.26899719 15.4047699 C100.23204712 15.40072144 99.19509705 15.39667297 98.12672424 15.39250183 C97.03724487 15.39600647 95.9477655 15.39951111 94.82527161 15.40312195 C91.20954593 15.41195334 87.59401455 15.40608507 83.97828674 15.39933777 C81.47486839 15.40068401 78.97145029 15.4026242 76.46803284 15.40513611 C71.21557111 15.40808928 65.9631603 15.40397311 60.71070862 15.39445496 C54.63379856 15.3835701 48.55702269 15.38709559 42.48011589 15.39810777 C36.63991126 15.40826837 30.79975774 15.40720432 24.95954895 15.4013443 C22.47155234 15.40000635 19.98355233 15.40166057 17.49555969 15.40630341 C14.02356278 15.41135998 10.55182664 15.40367049 7.07984924 15.39250183 C6.04289917 15.39655029 5.0059491 15.40059875 3.93757629 15.4047699 C2.99533203 15.39913025 2.05308777 15.3934906 1.08229065 15.38768005 C0.26080536 15.386926 -0.56067993 15.38617195 -1.40705872 15.38539505 C-3.39671326 15.13371277 -3.39671326 15.13371277 -5.39671326 13.13371277 C-5.62718201 10.34855652 -5.62718201 10.34855652 -5.58421326 7.07121277 C-5.57776794 5.98711121 -5.57132263 4.90300964 -5.56468201 3.78605652 C-5.29151867 -0.52738311 -3.90948307 0.00789568 0 0 Z " fill="#499FE8" transform="translate(231.39671325683594,296.8662872314453)"/>
<path d="M0 0 C1.65 0 3.3 0 5 0 C5 12.54 5 25.08 5 38 C6.32 38.66 7.64 39.32 9 40 C8 41 8 41 5.125 41.1875 C2 41 2 41 -1 39 C-1 41.97 -1 44.94 -1 48 C-4.3 48 -7.6 48 -11 48 C-11 45.03 -11 42.06 -11 39 C-26.18 39 -41.36 39 -57 39 C-57 44.94 -57 50.88 -57 57 C-59.31 57 -61.62 57 -64 57 C-64 50.73 -64 44.46 -64 38 C-74.89 38 -85.78 38 -97 38 C-97 34.37 -97 30.74 -97 27 C-86.44 27 -75.88 27 -65 27 C-65 21.06 -65 15.12 -65 9 C-62.36 9 -59.72 9 -57 9 C-57 15.6 -57 22.2 -57 29 C-41.82 29 -26.64 29 -11 29 C-11 26.36 -11 23.72 -11 21 C-7.37 21 -3.74 21 0 21 C0 14.07 0 7.14 0 0 Z " fill="#9BA2AB" transform="translate(151,168)"/>
<path d="M0 0 C3.05270802 3.88318206 4.21658291 8.08559927 5.64453125 12.7734375 C5.9475415 13.75755615 6.25055176 14.7416748 6.56274414 15.75561523 C13.19648964 37.97641851 13.51320517 58.93867114 9.08203125 81.6484375 C2.48203125 81.6484375 -4.11796875 81.6484375 -10.91796875 81.6484375 C-10.58796875 79.9984375 -10.25796875 78.3484375 -9.91796875 76.6484375 C-6.24165107 55.10038569 -7.37723704 35.08917641 -15.02392578 14.53515625 C-17.32888989 8.20116652 -17.32888989 8.20116652 -15.91796875 4.6484375 C-12.2391225 2.35937761 -10.30244919 1.6484375 -5.91796875 1.6484375 C-5.91796875 0.9884375 -5.91796875 0.3284375 -5.91796875 -0.3515625 C-3.27657836 -1.48358695 -2.40373758 -1.69387617 0 0 Z " fill="#9DD0F3" transform="translate(276.91796875,96.3515625)"/>
<path d="M0 0 C0.66 0.33 1.32 0.66 2 1 C4.37402501 1.07116382 6.75000677 1.08409085 9.125 1.0625 C10.40632813 1.05347656 11.68765625 1.04445312 13.0078125 1.03515625 C13.99523437 1.02355469 14.98265625 1.01195312 16 1 C11.84274599 12.49358463 5.82610952 21.66709533 -2 31 C-2.81404297 32.03447266 -2.81404297 32.03447266 -3.64453125 33.08984375 C-8.58171639 39.15621478 -14.66093235 43.50332147 -21 48 C-15.71566323 49.03087881 -10.48895352 49.31611358 -5.125 49.5625 C-4.24585938 49.60568359 -3.36671875 49.64886719 -2.4609375 49.69335938 C-0.30744203 49.79869339 1.84626064 49.89977649 4 50 C2.67289485 53.04810553 1.38116583 54.78022825 -1.2734375 56.76953125 C-1.92812012 57.26291992 -2.58280273 57.75630859 -3.25732422 58.26464844 C-3.95615723 58.77543945 -4.65499023 59.28623047 -5.375 59.8125 C-6.44451904 60.60382324 -6.44451904 60.60382324 -7.53564453 61.41113281 C-23.41971111 73 -23.41971111 73 -28 73 C-29.33819498 70.3773768 -30.6707151 67.75213401 -32 65.125 C-32.57234375 64.00544922 -32.57234375 64.00544922 -33.15625 62.86328125 C-33.5171875 62.14785156 -33.878125 61.43242187 -34.25 60.6953125 C-34.58515625 60.03547363 -34.9203125 59.37563477 -35.265625 58.69580078 C-36 57 -36 57 -36 55 C-34.37750059 54.16180842 -32.75191503 53.3295884 -31.125 52.5 C-30.22007812 52.0359375 -29.31515625 51.571875 -28.3828125 51.09375 C-26 50 -26 50 -24 50 C-24 49.34 -24 48.68 -24 48 C-24.96099609 48.01740234 -24.96099609 48.01740234 -25.94140625 48.03515625 C-31.08653222 48.08883119 -35.93024924 47.88169578 -41 47 C-40.53596507 42.82368563 -40.23223974 40.69804112 -37 38 C-35.43145899 36.98422181 -33.86044144 35.97160693 -32.2668457 34.99560547 C-19.04260367 26.8948086 -5.12373715 15.25476286 0 0 Z " fill="#50A4ED" transform="translate(246,189)"/>
<path d="M0 0 C3.63707915 1.72866989 5.93413163 3.53343451 8 7 C10.41418136 14.41037486 10.22844091 22.53068031 10.3125 30.25 C10.33014404 31.18440918 10.34778809 32.11881836 10.3659668 33.08154297 C10.35883984 40.37047929 9.26788408 45.95455566 4.8125 51.9375 C1.26166437 54.54144613 -1.68738415 55.25413629 -6 55 C-10.90135671 54.15354859 -14.0995381 53.01590573 -17.4375 49.25 C-20.98734142 41.86632985 -21.36492122 35.35333887 -21.375 27.25 C-21.41173828 25.71859375 -21.41173828 25.71859375 -21.44921875 24.15625 C-21.48083145 15.85264646 -20.04782819 8.09551912 -15 1.3125 C-10.1765473 -0.79776056 -5.1736395 -0.76366221 0 0 Z " fill="#4CA2EE" transform="translate(265,357)"/>
<path d="M0 0 C2.8203125 -0.29296875 2.8203125 -0.29296875 6.125 -0.1875 C7.76855469 -0.14689453 7.76855469 -0.14689453 9.4453125 -0.10546875 C10.28835937 -0.07066406 11.13140625 -0.03585938 12 0 C10.73046875 1.43229167 9.4609375 2.86458333 8.19140625 4.296875 C6.69011669 6.22701414 6.69011669 6.22701414 6 10 C10.95 10 15.9 10 21 10 C20.01 11.588125 19.02 13.17625 18 14.8125 C14.8036032 20.7053832 13.83538144 25.3837618 15 32 C17.04439432 38.66699703 20.92481247 42.56858559 26.859375 46.109375 C31.6417776 48.09913374 37.41140502 47.76699111 42.3203125 46.3125 C48.32393708 43.57320361 52.48316474 39.1485844 55 33 C55.91037595 25.4946913 55.36752289 20.16591467 51 14 C50.34 12.68 49.68 11.36 49 10 C53.29 10 57.58 10 62 10 C62.495 10.99 62.495 10.99 63 12 C62.59791618 6.37082652 60.71069698 3.99613521 57 0 C61.62 0 66.24 0 71 0 C71.99 2.97 71.99 2.97 73 6 C73.66 5.67 74.32 5.34 75 5 C76.20568053 9.67201205 76.09382426 14.21496292 76 19 C74.62437146 17.71034824 73.29233607 16.37310707 72 15 C72 14.34 72 13.68 72 13 C71.34 13 70.68 13 70 13 C69.67 14.32 69.34 15.64 69 17 C68.505 13.535 68.505 13.535 68 10 C67.01 10 66.02 10 65 10 C65.01160156 10.70640625 65.02320313 11.4128125 65.03515625 12.140625 C65.09723908 19.20032943 64.9846256 26.25673953 64.75 33.3125 C64.73590088 34.14749023 64.72180176 34.98248047 64.70727539 35.84277344 C64.48361139 41.45835727 63.5477622 46.48236928 60 51 C55.51720557 54.70947498 51.05018715 54.46747562 45.5 54.46875 C44.58669922 54.47636353 43.67339844 54.48397705 42.73242188 54.49182129 C40.80601733 54.50260218 38.87955444 54.50548358 36.953125 54.50097656 C34.00942555 54.50000312 31.06832412 54.54166959 28.125 54.5859375 C26.25000542 54.59114404 24.37500181 54.5938327 22.5 54.59375 C21.18418945 54.6183429 21.18418945 54.6183429 19.84179688 54.64343262 C15.52013674 54.59464922 13.58032685 54.43486334 10.03125 51.77539062 C6.25919295 46.62145499 5.68706513 42.35925223 5.5859375 36.07421875 C5.56657135 35.32662796 5.5472052 34.57903717 5.5272522 33.80879211 C5.46776082 31.43514194 5.42119408 29.06144246 5.375 26.6875 C5.33679211 25.07224518 5.29773875 23.45701013 5.2578125 21.84179688 C5.1620847 17.8946929 5.07794233 13.94749361 5 10 C3.68 10 2.36 10 1 10 C0.95101562 10.84304687 0.90203125 11.68609375 0.8515625 12.5546875 C0.77679688 13.65039062 0.70203125 14.74609375 0.625 15.875 C0.52058594 17.51082031 0.52058594 17.51082031 0.4140625 19.1796875 C0 22 0 22 -2 24 C-2.05802698 20.56257082 -2.09360486 17.12526747 -2.125 13.6875 C-2.14175781 12.71103516 -2.15851563 11.73457031 -2.17578125 10.72851562 C-2.18222656 9.79072266 -2.18867187 8.85292969 -2.1953125 7.88671875 C-2.20578613 7.02264404 -2.21625977 6.15856934 -2.22705078 5.26831055 C-2 3 -2 3 0 0 Z " fill="#60707B" transform="translate(122,105)"/>
<path d="M0 0 C1.35568336 0.00333092 1.35568336 0.00333092 2.73875427 0.00672913 C3.75973709 0.00680466 4.78071991 0.00688019 5.8326416 0.00695801 C6.94304306 0.01211929 8.05344452 0.01728058 9.19749451 0.02259827 C10.89336952 0.02472069 10.89336952 0.02472069 12.62350464 0.02688599 C16.25105891 0.03250433 19.8785525 0.04505994 23.50608826 0.05775452 C25.95856133 0.06276715 28.41103536 0.06733047 30.86351013 0.07142639 C36.89022639 0.08247972 42.91689702 0.09975664 48.94358826 0.12025452 C48.94358826 7.05025452 48.94358826 13.98025452 48.94358826 21.12025452 C47.95358826 21.12025452 46.96358826 21.12025452 45.94358826 21.12025452 C45.64065857 20.22822327 45.33772888 19.33619202 45.02561951 18.41712952 C44.60667419 17.24666077 44.18772888 16.07619202 43.75608826 14.87025452 C43.35003357 13.71009827 42.94397888 12.54994202 42.52561951 11.35462952 C40.75429659 7.73325823 39.37231494 6.20428521 35.94358826 4.12025452 C33.96358826 3.79025452 31.98358826 3.46025452 29.94358826 3.12025452 C29.94358826 21.27025452 29.94358826 39.42025452 29.94358826 58.12025452 C32.91358826 58.12025452 35.88358826 58.12025452 38.94358826 58.12025452 C38.94358826 58.78025452 38.94358826 59.44025452 38.94358826 60.12025452 C28.38358826 60.12025452 17.82358826 60.12025452 6.94358826 60.12025452 C6.94358826 59.13025452 6.94358826 58.14025452 6.94358826 57.12025452 C9.91358826 57.12025452 12.88358826 57.12025452 15.94358826 57.12025452 C15.94358826 39.63025452 15.94358826 22.14025452 15.94358826 4.12025452 C9.43687084 4.50178895 9.43687084 4.50178895 6.64671326 6.76087952 C4.53103931 9.69176728 3.66667132 12.39495787 2.69358826 15.87025452 C2.35843201 17.04072327 2.02327576 18.21119202 1.67796326 19.41712952 C1.43561951 20.30916077 1.19327576 21.20119202 0.94358826 22.12025452 C-0.37641174 22.12025452 -1.69641174 22.12025452 -3.05641174 22.12025452 C-3.08528988 18.64110511 -3.10316861 15.16198621 -3.11891174 11.68275452 C-3.12729065 10.68953186 -3.13566956 9.6963092 -3.14430237 8.67298889 C-3.14752502 7.72875061 -3.15074768 6.78451233 -3.15406799 5.81166077 C-3.15930481 4.93711243 -3.16454163 4.06256409 -3.16993713 3.16151428 C-3.01544603 0.38366465 -2.77671187 0.16237611 0 0 Z " fill="#FCFDFE" transform="translate(350.05641174316406,353.87974548339844)"/>
<path d="M0 0 C9.9 0 19.8 0 30 0 C30 0.99 30 1.98 30 3 C27.36 3 24.72 3 22 3 C22 20.82 22 38.64 22 57 C34.57701909 57.13076047 34.57701909 57.13076047 39.125 54.1875 C41.4976904 50.15392632 42.71593055 46.05961728 43.91015625 41.546875 C44.26980469 40.70640625 44.62945312 39.8659375 45 39 C46.98 38.505 46.98 38.505 49 38 C49 45.26 49 52.52 49 60 C32.5 60 16 60 -1 60 C-1 59.01 -1 58.02 -1 57 C1.64 57 4.28 57 7 57 C7 39.51 7 22.02 7 4 C4.69 4 2.38 4 0 4 C0 2.68 0 1.36 0 0 Z " fill="#FBFDFE" transform="translate(297,354)"/>
<path d="M0 0 C3.94234706 7.79669531 4.52242105 14.3533986 4 23 C3.96777344 23.89074219 3.93554688 24.78148437 3.90234375 25.69921875 C3.18749661 37.37505542 -2.4143302 48.13016387 -11.15625 55.921875 C-13.06428585 57.36002142 -15.0024238 58.69066434 -17 60 C-17.69609375 60.5465625 -18.3921875 61.093125 -19.109375 61.65625 C-21 63 -21 63 -23 63 C-23.42152344 62.14535156 -23.84304687 61.29070312 -24.27734375 60.41015625 C-24.82519531 59.30542969 -25.37304688 58.20070312 -25.9375 57.0625 C-26.48277344 55.96035156 -27.02804688 54.85820312 -27.58984375 53.72265625 C-28.74704978 51.15205586 -28.74704978 51.15205586 -30 50 C-30.5625 47.75 -30.5625 47.75 -30 45 C-28.390625 43.91015625 -28.390625 43.91015625 -26.3125 42.8125 C-20.49028687 39.5710551 -18.37658886 34.23366008 -16.37890625 28.08984375 C-15.86369361 25.24820704 -15.86827143 22.51155607 -15.875 19.625 C-15.87242187 18.52414063 -15.86984375 17.42328125 -15.8671875 16.2890625 C-15.99555663 13.11003884 -16.40573005 10.12227545 -17 7 C-14.73272667 5.82592979 -12.46165376 4.66060261 -10.1875 3.5 C-9.22360352 2.99919922 -9.22360352 2.99919922 -8.24023438 2.48828125 C-5.30452301 0.99760916 -3.33873483 0 0 0 Z " fill="#F9FBFE" transform="translate(217,127)"/>
<path d="M0 0 C1.88277906 -0.00352531 3.76555476 -0.00986978 5.64831543 -0.01890564 C9.58965307 -0.02765089 13.5291487 -0.00444659 17.47021484 0.04174805 C22.5151989 0.09862991 27.55645388 0.07948075 32.60146332 0.03679562 C36.48799216 0.01173686 40.3736489 0.02532954 44.26014709 0.0506916 C46.11962141 0.05852695 47.9791823 0.05481563 49.83860779 0.03922844 C64.26668712 -0.04761434 64.26668712 -0.04761434 68.53491211 2.87380981 C71.41667144 6.48045355 72.03125 8.48611404 72.03125 13.16015625 C40.35125 13.16015625 8.67125 13.16015625 -23.96875 13.16015625 C-24.96875 10.16015625 -24.96875 10.16015625 -24.42077637 7.93922424 C-19.49560236 -1.8542593 -9.53420309 -0.12341902 0 0 Z " fill="#4AA0E9" transform="translate(259.96875,270.83984375)"/>
<path d="M0 0 C6.27 0 12.54 0 19 0 C18.11407049 4.42964754 16.88306506 7.96697877 15 12 C14.61070312 12.86625 14.22140625 13.7325 13.8203125 14.625 C9.80235227 23.16032795 4.58553393 30.45551082 -1 38 C-1.66 38.99 -2.32 39.98 -3 41 C-3.66 41 -4.32 41 -5 41 C-5.2475 41.5775 -5.495 42.155 -5.75 42.75 C-7.31748546 45.57147383 -8.37247203 47.05263335 -11 49 C-14.28020632 49.53020411 -17.49922314 49.42061998 -20.8125 49.3125 C-22.12831055 49.29799805 -22.12831055 49.29799805 -23.47070312 49.28320312 C-28.39712765 49.19845536 -33.14175036 48.81523152 -38 48 C-34.80281616 44.69395148 -31.54354205 41.82759513 -27.875 39.0625 C-15.1644318 28.77054194 -7.05130114 14.5173847 0 0 Z " fill="#9BCEF2" transform="translate(262,190)"/>
<path d="M0 0 C8.91 0 17.82 0 27 0 C27 0.99 27 1.98 27 3 C24.36 3 21.72 3 19 3 C19.53625 3.99 20.0725 4.98 20.625 6 C22.68141566 10.09834951 24.29730338 14.32568697 25.875 18.625 C29.62451492 31.1565418 29.62451492 31.1565418 36 42 C37.83583394 37.08972468 39.66884686 32.17840908 41.49926758 27.26611328 C42.12219293 25.5955776 42.74588459 23.92532746 43.37036133 22.25537109 C44.26846296 19.85328861 45.16379268 17.45018862 46.05859375 15.046875 C46.3377916 14.30193787 46.61698944 13.55700073 46.90464783 12.78948975 C48.10802156 9.55009419 49.20573413 6.36225214 50 3 C47.69 3 45.38 3 43 3 C43 2.01 43 1.02 43 0 C48.61 0 54.22 0 60 0 C60 0.99 60 1.98 60 3 C58.02 3 56.04 3 54 3 C53.846521 3.91422729 53.846521 3.91422729 53.68994141 4.84692383 C52.54826773 11.12372297 50.75474367 16.78127296 48.375 22.6875 C44.87606849 31.58811992 41.66797167 40.560761 38.61474609 49.6237793 C38.30102051 50.54457275 37.98729492 51.46536621 37.6640625 52.4140625 C37.39029785 53.2282666 37.1165332 54.0424707 36.83447266 54.88134766 C36 57 36 57 34 60 C30.875 60.1875 30.875 60.1875 28 60 C23.17490156 51.37158867 19.80091765 42.3558928 16.40649414 33.09667969 C13.87394682 26.2237722 11.1615406 19.48417542 8.11938477 12.82128906 C6.79632988 9.91176926 5.62262043 7.14423318 5 4 C3.35 3.67 1.7 3.34 0 3 C0 2.01 0 1.02 0 0 Z " fill="#F8FBFE" transform="translate(165,354)"/>
<path d="M0 0 C0.33 0.66 0.66 1.32 1 2 C1.66 1.67 2.32 1.34 3 1 C4.3734635 0.84995027 5.7528526 0.75161994 7.1328125 0.68359375 C7.93847656 0.64169922 8.74414062 0.59980469 9.57421875 0.55664062 C10.41597656 0.51732422 11.25773437 0.47800781 12.125 0.4375 C12.97449219 0.39431641 13.82398438 0.35113281 14.69921875 0.30664062 C16.79928223 0.20045764 18.89961948 0.09971503 21 0 C20.01 3.3 19.02 6.6 18 10 C17.34 10 16.68 10 16 10 C15.95101562 10.66257813 15.90203125 11.32515625 15.8515625 12.0078125 C14.62046955 16.33357948 12.09887764 19.34649023 9.375 22.875 C8.86582031 23.55691406 8.35664063 24.23882812 7.83203125 24.94140625 C2.19480857 32.35880451 -3.86490069 38.30728178 -11.6875 43.375 C-12.33783203 43.81199219 -12.98816406 44.24898437 -13.65820312 44.69921875 C-16.74391774 46.731198 -19.38785612 48.24646185 -23 49 C-23.98669759 47.10807525 -24.9640602 45.21128022 -25.9375 43.3125 C-26.75541016 41.72888672 -26.75541016 41.72888672 -27.58984375 40.11328125 C-28.8470576 37.33765953 -29.56069569 34.99727874 -30 32 C-29.28714844 31.49210937 -28.57429687 30.98421875 -27.83984375 30.4609375 C-24.87550518 28.33044383 -21.93275844 26.1737383 -19 24 C-18.33742187 23.51144531 -17.67484375 23.02289063 -16.9921875 22.51953125 C-9.58355335 16.64431208 -4.40697601 8.26308002 0 0 Z " fill="#A6BECD" transform="translate(230,179)"/>
<path d="M0 0 C2.39723899 3.59585848 3.00575116 5.72722197 2.828125 10.015625 C1.05383364 16.40976935 -2.9799652 21.19083812 -8.47167969 24.85449219 C-13.72560084 27.23488983 -19.25018568 27.22495745 -24.9375 27.25 C-26.12255127 27.25918457 -27.30760254 27.26836914 -28.52856445 27.27783203 C-33.97904716 27.06019997 -38.00483644 26.83725043 -41.87890625 22.734375 C-43.67439939 20.4217105 -44.00640331 19.37729451 -43.95629883 16.42504883 C-43 14 -43 14 -40.76611328 12.57788086 C-39.79399902 12.21057861 -38.82188477 11.84327637 -37.8203125 11.46484375 C-36.74523437 11.04783203 -35.67015625 10.63082031 -34.5625 10.20117188 C-33.428125 9.78416016 -32.29375 9.36714844 -31.125 8.9375 C-29.48144531 8.30618164 -29.48144531 8.30618164 -27.8046875 7.66210938 C-24.54516382 6.41661602 -21.27447717 5.20554991 -18 4 C-16.96657471 3.60949463 -15.93314941 3.21898926 -14.8684082 2.81665039 C-13.89991943 2.45434326 -12.93143066 2.09203613 -11.93359375 1.71875 C-11.07822021 1.39712891 -10.22284668 1.07550781 -9.34155273 0.74414062 C-5.96220061 -0.3298105 -3.50939139 -0.52267531 0 0 Z " fill="#479DE7" transform="translate(385,256)"/>
<path d="M0 0 C4.06288872 0.53660794 7.547463 1.90918359 11.3125 3.4375 C12.99800557 4.04720861 14.68567149 4.65096511 16.375 5.25 C21.05039066 6.94835369 25.68783408 8.73147342 30.3125 10.5625 C30.95968994 10.81620361 31.60687988 11.06990723 32.27368164 11.33129883 C35.19967257 12.49930286 37.67785162 13.68106774 40.3125 15.4375 C39.97329172 19.28186053 38.75049079 22.1846183 36.20581055 25.11474609 C29.67801773 29.67536266 18.00832784 27.98446399 10.49755859 27.16210938 C3.95959518 25.67470516 0.07989375 21.53329735 -3.79296875 16.28125 C-6.18026344 12.22305974 -6.15390064 9.07204951 -5.6875 4.4375 C-4.22358648 1.18435885 -3.52780353 0.5742936 0 0 Z " fill="#4CA1E9" transform="translate(185.6875,255.5625)"/>
<path d="M0 0 C25.74 0 51.48 0 78 0 C79.20272819 2.40545638 79.10071472 3.94996953 79.0625 6.625 C79.05347656 7.44226563 79.04445313 8.25953125 79.03515625 9.1015625 C79.02355469 9.72804688 79.01195312 10.35453125 79 11 C77 8 77 8 76 2 C71.71 2.33 67.42 2.66 63 3 C63.804375 3.78375 64.60875 4.5675 65.4375 5.375 C69.27099782 9.30199777 69.11541229 11.22794638 69.0625 16.625 C69.05347656 17.81351563 69.04445313 19.00203125 69.03515625 20.2265625 C69.02355469 21.14179687 69.01195312 22.05703125 69 23 C68.67 23 68.34 23 68 23 C67.505 17.555 67.505 17.555 67 12 C66.0821875 12.11859375 65.164375 12.2371875 64.21875 12.359375 C52.7981697 13.55901579 52.7981697 13.55901579 46.92578125 9.9375 C42.59369933 7.82857574 37.39788505 8.2669449 32.87890625 9.6484375 C31.21438186 10.34746853 29.60118965 11.16604706 28 12 C24.9020403 13.54897985 21.73783448 12.83239539 18.375 12.5625 C17.66859375 12.51029297 16.9621875 12.45808594 16.234375 12.40429688 C14.48920013 12.27458793 12.74454275 12.13795046 11 12 C11.67915667 7.68914241 12.6777286 5.89359122 16 3 C12.37 2.67 8.74 2.34 5 2 C3.7388449 5.78346529 3.73077713 9.3406486 3.57421875 13.30859375 C2.86714717 16.62269115 1.54935352 17.84755182 -1 20 C-1.02749868 18.16675453 -1.04661673 16.3333829 -1.0625 14.5 C-1.07410156 13.4790625 -1.08570312 12.458125 -1.09765625 11.40625 C-0.98819297 7.58817095 -0.47376901 3.79015207 0 0 Z " fill="#444E55" transform="translate(117,103)"/>
<path d="M0 0 C3.9782422 2.53160867 5.59863185 4.54676342 7 9 C7.30078125 12.33984375 7.30078125 12.33984375 7.3125 15.9375 C7.32925781 17.12214844 7.34601563 18.30679688 7.36328125 19.52734375 C6.96421579 23.34206631 5.99204575 25.7424759 4 29 C1.8125 30.375 1.8125 30.375 0 31 C0 31.66 0 32.32 0 33 C-1.65 33 -3.3 33 -5 33 C-5.19335938 33.69867188 -5.38671875 34.39734375 -5.5859375 35.1171875 C-5.84632813 36.02726562 -6.10671875 36.93734375 -6.375 37.875 C-6.63023437 38.77992188 -6.88546875 39.68484375 -7.1484375 40.6171875 C-8 43 -8 43 -10 45 C-9.43393721 40.30976546 -8.81462495 35.65499974 -8 31 C-8.61875 30.731875 -9.2375 30.46375 -9.875 30.1875 C-12 29 -12 29 -14 26 C-15.84225143 19.04698653 -16.36678761 10.93606227 -13.3125 4.375 C-8.96797795 -0.08694156 -6.2031523 -1.93848509 0 0 Z " fill="#0A0A0A" transform="translate(392,110)"/>
<path d="M0 0 C0.89912109 -0.01611328 1.79824219 -0.03222656 2.72460938 -0.04882812 C8.89984757 -0.05329323 13.96643649 0.99514048 19.6875 3.3125 C19.6875 3.9725 19.6875 4.6325 19.6875 5.3125 C20.41839844 5.56 21.14929688 5.8075 21.90234375 6.0625 C28.55607679 9.04874765 33.4812228 14.91616688 36.125 21.625 C36.64583333 23.1875 37.16666667 24.75 37.6875 26.3125 C38.04199219 26.910625 38.39648438 27.50875 38.76171875 28.125 C41.22593205 33.9476137 40.5087047 43.04634495 39 49.046875 C38.05060947 51.27794274 36.97241702 53.25743086 35.6875 55.3125 C35.25179687 56.06917969 34.81609375 56.82585937 34.3671875 57.60546875 C28.04173526 67.92321462 19.21797392 73.99784288 7.6875 77.3125 C-2.86480282 78.27521009 -12.33005049 77.51799307 -21 71.125 C-28.74758759 64.57985986 -36.36640366 56.74400205 -37.55078125 46.18896484 C-38.35845209 32.58836488 -36.81371841 21.87568865 -27.57421875 11.328125 C-19.30087797 2.74292881 -11.72825373 -0.04150125 0 0 Z M-20.3125 8.3125 C-21.34117187 8.99699219 -21.34117187 8.99699219 -22.390625 9.6953125 C-28.98572213 14.71332119 -33.14524716 22.42448067 -35.3125 30.3125 C-36.83831597 42.73507252 -34.58181542 51.78566472 -27.12329102 61.92993164 C-20.73287587 69.97725909 -11.06422606 74.38384064 -0.96484375 75.59375 C8.70441219 75.99179827 18.16038213 71.207927 25.375 65 C33.91990166 55.06943861 37.75732585 47.01828741 37.2265625 33.71875 C36.47454352 25.07242124 32.15462147 17.19709569 25.875 11.25 C11.90604611 0.47317034 -5.43178436 -1.71580836 -20.3125 8.3125 Z " fill="#184F72" transform="translate(376.3125,95.6875)"/>
<path d="M0 0 C4.16636416 1.38878805 7.36027521 3.09555042 9.375 7.125 C9.50190975 10.04392436 9.53456174 12.55057774 8.75 15.375 C8.62625 15.9525 8.5025 16.53 8.375 17.125 C9.035 17.785 9.695 18.445 10.375 19.125 C11.23471396 23.73125691 10.95300884 27.1809189 8.5 31.1875 C4.09465533 33.91881369 0.43010681 33.88991748 -4.625 33.125 C-7.58716705 31.89076373 -9.0014937 30.89021228 -11 28.4375 C-12.14486868 24.20148587 -11.09990985 19.92965743 -10 15.75 C-9.41689619 14.01047307 -9.41689619 14.01047307 -10.625 12.125 C-11.125 9.375 -11.125 9.375 -10.625 6.125 C-7.65367973 2.14854468 -5.00146997 0.17246448 0 0 Z " fill="#0C0C0C" transform="translate(365.625,108.875)"/>
<path d="M0 0 C2.64 0 5.28 0 8 0 C8 7.26 8 14.52 8 22 C5.36 22 2.72 22 0 22 C0 24.31 0 26.62 0 29 C-10.56 29 -21.12 29 -32 29 C-32 25.37 -32 21.74 -32 18 C-21.44 18 -10.88 18 0 18 C0 12.06 0 6.12 0 0 Z " fill="#B8C0C5" transform="translate(86,177)"/>
<path d="M0 0 C1.92199219 0.11214844 1.92199219 0.11214844 3.8828125 0.2265625 C7.00835667 0.41316215 10.12860754 0.62972029 13.25 0.875 C11.92289485 3.92310553 10.63116583 5.65522825 7.9765625 7.64453125 C7.32187988 8.13791992 6.66719727 8.63130859 5.99267578 9.13964844 C5.29384277 9.65043945 4.59500977 10.16123047 3.875 10.6875 C3.1619873 11.21504883 2.44897461 11.74259766 1.71435547 12.28613281 C-14.16971111 23.875 -14.16971111 23.875 -18.75 23.875 C-20.08819498 21.2523768 -21.4207151 18.62713401 -22.75 16 C-23.1315625 15.25363281 -23.513125 14.50726563 -23.90625 13.73828125 C-24.2671875 13.02285156 -24.628125 12.30742187 -25 11.5703125 C-25.33515625 10.91047363 -25.6703125 10.25063477 -26.015625 9.57080078 C-26.75 7.875 -26.75 7.875 -26.75 5.875 C-17.6096317 0.16068074 -10.63089868 -0.84336983 0 0 Z " fill="#658DA5" transform="translate(236.75,238.125)"/>
<path d="M0 0 C-0.47727191 4.75504236 -2.72112021 7.75534164 -5.625 11.375 C-6.08302002 11.9522583 -6.54104004 12.5295166 -7.01293945 13.12426758 C-8.32742013 14.76211374 -9.65866254 16.38411667 -11 18 C-11.55816406 18.67675781 -12.11632812 19.35351562 -12.69140625 20.05078125 C-18.32183024 26.21043569 -25.89224606 30.72847194 -33 35 C-33.66 35 -34.32 35 -35 35 C-32.75214037 27.70205031 -29.80177278 20.94192312 -26.5 14.0625 C-26.01402344 13.02287109 -25.52804688 11.98324219 -25.02734375 10.91210938 C-24.55425781 9.92146484 -24.08117187 8.93082031 -23.59375 7.91015625 C-23.16771484 7.01433838 -22.74167969 6.11852051 -22.30273438 5.19555664 C-21 3 -21 3 -18 1 C-12.08345489 -0.11394988 -6.0006252 -0.11112269 0 0 Z " fill="#C9E5F8" transform="translate(244,192)"/>
<path d="M0 0 C1.65 0 3.3 0 5 0 C5 12.54 5 25.08 5 38 C6.32 38.66 7.64 39.32 9 40 C8 41 8 41 5.125 41.1875 C2 41 2 41 -1 39 C-1 41.97 -1 44.94 -1 48 C-4.3 48 -7.6 48 -11 48 C-11 45.03 -11 42.06 -11 39 C-12.65 39 -14.3 39 -16 39 C-16 38.67 -16 38.34 -16 38 C-36.295 37.505 -36.295 37.505 -57 37 C-57 36.34 -57 35.68 -57 35 C-55.81970215 34.97494385 -54.6394043 34.9498877 -53.42333984 34.92407227 C-49.02870525 34.82963494 -44.63421536 34.729504 -40.23974609 34.62768555 C-38.34069208 34.58447373 -36.44160266 34.5427894 -34.54248047 34.50268555 C-31.80685777 34.4446485 -29.07141106 34.38105173 -26.3359375 34.31640625 C-25.06996231 34.29133751 -25.06996231 34.29133751 -23.77841187 34.26576233 C-19.41922659 34.15713236 -15.29796375 33.80708369 -11 33 C-9.20932194 32.93694796 -7.41662421 32.91328886 -5.625 32.9375 C-4.31402344 32.95103516 -4.31402344 32.95103516 -2.9765625 32.96484375 C-2.32429688 32.97644531 -1.67203125 32.98804688 -1 33 C-1 30.03 -1 27.06 -1 24 C-4.3 24 -7.6 24 -11 24 C-11 23.01 -11 22.02 -11 21 C-7.37 21 -3.74 21 0 21 C0 14.07 0 7.14 0 0 Z " fill="#9399A1" transform="translate(151,168)"/>
<path d="M0 0 C0.33 0 0.66 0 1 0 C1 6.6 1 13.2 1 20 C4.63 20 8.26 20 12 20 C12 26.6 12 33.2 12 40 C3.50390625 40.09765625 3.50390625 40.09765625 1 40 C0.67 39.67 0.34 39.34 0 39 C-0.825 39 -1.65 39 -2.5 39 C-3.325 39 -4.15 39 -5 39 C-6 38 -6 38 -6.11352539 35.22436523 C-6.10828857 34.01466064 -6.10305176 32.80495605 -6.09765625 31.55859375 C-6.09443359 30.25341797 -6.09121094 28.94824219 -6.08789062 27.60351562 C-6.07953401 26.2148431 -6.07106905 24.82617123 -6.0625 23.4375 C-6.05748666 22.04492344 -6.05292347 20.65234519 -6.04882812 19.25976562 C-6.03699434 15.8398013 -6.0205088 12.41992156 -6 9 C-3.525 9.495 -3.525 9.495 -1 10 C-0.67 6.7 -0.34 3.4 0 0 Z " fill="#8BA8C4" transform="translate(161,168)"/>
<path d="M0 0 C1.05904289 0.00424484 1.05904289 0.00424484 2.13948059 0.00857544 C4.39133758 0.01975786 6.64279477 0.0448583 8.89453125 0.0703125 C10.42252029 0.08034483 11.95051558 0.08947024 13.47851562 0.09765625 C17.22150788 0.11969078 20.96420181 0.15420683 24.70703125 0.1953125 C24.20250906 3.94319162 23.62543892 7.52168184 22.70703125 11.1953125 C28.64703125 11.1953125 34.58703125 11.1953125 40.70703125 11.1953125 C40.70703125 11.5253125 40.70703125 11.8553125 40.70703125 12.1953125 C39.60415771 12.19007568 38.50128418 12.18483887 37.36499023 12.17944336 C33.19947143 12.16108574 29.03395606 12.14977034 24.8684082 12.14038086 C23.07933955 12.13540989 21.29027483 12.12863077 19.5012207 12.11987305 C8.51923592 12.0675339 -2.3455857 12.27025498 -13.29296875 13.1953125 C-10.0339071 -0.15132094 -10.0339071 -0.15132094 0 0 Z " fill="#618CA8" transform="translate(260.29296875,177.8046875)"/>
<path d="M0 0 C3.63379954 2.98578563 4.86626528 5.77409841 5.375 10.4375 C4.93878362 14.58155564 3.90869728 16.09130272 1 19 C-2.06429776 20.53214888 -4.6165642 20.22938548 -8 20 C-11.5386994 18.34860695 -12.81070153 17.28394771 -15 14 C-15.82418418 9.36721733 -15.59554955 5.97273093 -13.125 1.9375 C-8.86673319 -0.70262542 -4.90558148 -0.99774539 0 0 Z " fill="#181B1C" transform="translate(162,122)"/>
<path d="M0 0 C25.74 0 51.48 0 78 0 C79.20272819 2.40545638 79.10071472 3.94996953 79.0625 6.625 C79.05347656 7.44226563 79.04445313 8.25953125 79.03515625 9.1015625 C79.02355469 9.72804688 79.01195312 10.35453125 79 11 C77 8 77 8 76 2 C71.71 2.33 67.42 2.66 63 3 C63.804375 3.78375 64.60875 4.5675 65.4375 5.375 C69.27099782 9.30199777 69.11541229 11.22794638 69.0625 16.625 C69.05347656 17.81351563 69.04445313 19.00203125 69.03515625 20.2265625 C69.02355469 21.14179687 69.01195312 22.05703125 69 23 C68.67 23 68.34 23 68 23 C67.91363281 22.20335938 67.82726562 21.40671875 67.73828125 20.5859375 C66.84785502 13.87098002 66.1036103 9.6056971 61 5 C58.26893489 4.08964496 56.70106761 3.87784287 53.89575195 3.88647461 C53.07512772 3.88655014 52.25450348 3.88662567 51.40901184 3.88670349 C50.0870002 3.89444542 50.0870002 3.89444542 48.73828125 3.90234375 C47.37959175 3.90446617 47.37959175 3.90446617 45.99345398 3.90663147 C43.09976909 3.91222999 40.20616151 3.92478219 37.3125 3.9375 C35.35091258 3.94251519 33.38932394 3.94707807 31.42773438 3.95117188 C26.61845979 3.96219893 21.809243 3.97946253 17 4 C17 3.34 17 2.68 17 2 C13.04 2 9.08 2 5 2 C3.7388449 5.78346529 3.73077713 9.3406486 3.57421875 13.30859375 C2.86714717 16.62269115 1.54935352 17.84755182 -1 20 C-1.02749868 18.16675453 -1.04661673 16.3333829 -1.0625 14.5 C-1.07410156 13.4790625 -1.08570312 12.458125 -1.09765625 11.40625 C-0.98819297 7.58817095 -0.47376901 3.79015207 0 0 Z " fill="#3D403D" transform="translate(117,103)"/>
<path d="M0 0 C2.31 0 4.62 0 7 0 C7 0.66 7 1.32 7 2 C20.2 2 33.4 2 47 2 C47 2.33 47 2.66 47 3 C33.8 3 20.6 3 7 3 C7 3.66 7 4.32 7 5 C21.52 5 36.04 5 51 5 C47.93228809 7.04514127 47.34431952 7.24827274 43.89575195 7.22705078 C43.07512772 7.22689972 42.25450348 7.22674866 41.40901184 7.22659302 C40.0870002 7.21110916 40.0870002 7.21110916 38.73828125 7.1953125 C37.83248825 7.1924826 36.92669525 7.18965271 35.99345398 7.18673706 C33.09966842 7.17553964 30.20619206 7.15043589 27.3125 7.125 C25.35091593 7.11496963 23.389327 7.10584388 21.42773438 7.09765625 C16.61827454 7.07730306 11.80948349 7.03815368 7 7 C7 12.94 7 18.88 7 25 C4.69 25 2.38 25 0 25 C0 16.75 0 8.5 0 0 Z " fill="#979FA9" transform="translate(87,200)"/>
<path d="M0 0 C0.89912109 -0.01611328 1.79824219 -0.03222656 2.72460938 -0.04882812 C8.89984757 -0.05329323 13.96643649 0.99514048 19.6875 3.3125 C19.6875 3.9725 19.6875 4.6325 19.6875 5.3125 C20.41839844 5.56 21.14929688 5.8075 21.90234375 6.0625 C28.58694394 9.06260107 33.49764172 14.96778078 36.1875 21.6875 C36.7131392 23.22061433 37.21716817 24.7615248 37.6875 26.3125 C38.1825 27.7975 38.1825 27.7975 38.6875 29.3125 C38.75687062 31.54068441 38.77207084 33.77084524 38.75 36 C38.74097656 37.17949219 38.73195313 38.35898438 38.72265625 39.57421875 C38.71105469 40.47785156 38.69945312 41.38148438 38.6875 42.3125 C38.3575 42.3125 38.0275 42.3125 37.6875 42.3125 C37.62433594 41.53648437 37.56117188 40.76046875 37.49609375 39.9609375 C36.344626 29.80377988 33.14795323 18.93353498 25.375 11.75 C15.13094663 4.22375671 4.1923611 1.70279566 -8.3125 3.3125 C-12.74553587 4.75468852 -16.44049862 6.73734119 -20.3125 9.3125 C-20.92480469 9.69535156 -21.53710938 10.07820313 -22.16796875 10.47265625 C-28.40857546 14.94856697 -32.37105347 23.06268389 -34.3125 30.3125 C-34.66669421 33.26702352 -34.81659681 36.2152966 -34.9375 39.1875 C-34.97617187 39.97125 -35.01484375 40.755 -35.0546875 41.5625 C-35.14816622 43.47881367 -35.23138495 45.39562319 -35.3125 47.3125 C-35.6425 47.3125 -35.9725 47.3125 -36.3125 47.3125 C-38.34895202 38.40098597 -38.55197095 28.25325503 -34.08984375 20.0703125 C-25.7434625 6.8496446 -15.76006134 -0.05576809 0 0 Z " fill="#0F466A" transform="translate(376.3125,95.6875)"/>
<path d="M0 0 C9.9 0 19.8 0 30 0 C30 0.99 30 1.98 30 3 C27.36 3 24.72 3 22 3 C22 20.82 22 38.64 22 57 C21.67 57 21.34 57 21 57 C21 38.85 21 20.7 21 2 C16.71 2 12.42 2 8 2 C8 20.48 8 38.96 8 58 C27.8 58.495 27.8 58.495 48 59 C48 52.4 48 45.8 48 39 C47.01 38.505 47.01 38.505 46 38 C46.99 38 47.98 38 49 38 C49 45.26 49 52.52 49 60 C32.5 60 16 60 -1 60 C-1 59.01 -1 58.02 -1 57 C1.64 57 4.28 57 7 57 C7 39.51 7 22.02 7 4 C4.69 4 2.38 4 0 4 C0 2.68 0 1.36 0 0 Z " fill="#BFDBF7" transform="translate(297,354)"/>
<path d="M0 0 C1.35568336 0.00333092 1.35568336 0.00333092 2.73875427 0.00672913 C3.75973709 0.00680466 4.78071991 0.00688019 5.8326416 0.00695801 C6.94304306 0.01211929 8.05344452 0.01728058 9.19749451 0.02259827 C10.89336952 0.02472069 10.89336952 0.02472069 12.62350464 0.02688599 C16.25105891 0.03250433 19.8785525 0.04505994 23.50608826 0.05775452 C25.95856133 0.06276715 28.41103536 0.06733047 30.86351013 0.07142639 C36.89022371 0.08247971 42.91690165 0.09923568 48.94358826 0.12025452 C48.94358826 0.45025452 48.94358826 0.78025452 48.94358826 1.12025452 C37.06358826 1.45025452 25.18358826 1.78025452 12.94358826 2.12025452 C14.26358826 2.45025452 15.58358826 2.78025452 16.94358826 3.12025452 C16.94358826 20.94025452 16.94358826 38.76025452 16.94358826 57.12025452 C16.61358826 57.12025452 16.28358826 57.12025452 15.94358826 57.12025452 C15.94358826 39.63025452 15.94358826 22.14025452 15.94358826 4.12025452 C9.43687084 4.50178895 9.43687084 4.50178895 6.64671326 6.76087952 C4.53103931 9.69176728 3.66667132 12.39495787 2.69358826 15.87025452 C2.35843201 17.04072327 2.02327576 18.21119202 1.67796326 19.41712952 C1.43561951 20.30916077 1.19327576 21.20119202 0.94358826 22.12025452 C-0.37641174 22.12025452 -1.69641174 22.12025452 -3.05641174 22.12025452 C-3.08528988 18.64110511 -3.10316861 15.16198621 -3.11891174 11.68275452 C-3.12729065 10.68953186 -3.13566956 9.6963092 -3.14430237 8.67298889 C-3.14752502 7.72875061 -3.15074768 6.78451233 -3.15406799 5.81166077 C-3.15930481 4.93711243 -3.16454163 4.06256409 -3.16993713 3.16151428 C-3.01544603 0.38366465 -2.77671187 0.16237611 0 0 Z " fill="#D4E6F9" transform="translate(350.05641174316406,353.87974548339844)"/>
<path d="M0 0 C-1.33074841 5.00722282 -3.59612492 8.50619191 -6.9375 12.375 C-7.41678955 12.93791748 -7.8960791 13.50083496 -8.38989258 14.08081055 C-12.99208525 19.30741004 -18.12913277 23.2412823 -24 27 C-24.33 26.34 -24.66 25.68 -25 25 C-24.2590332 23.00048828 -24.2590332 23.00048828 -23.05078125 20.5703125 C-22.61443359 19.69246094 -22.17808594 18.81460938 -21.72851562 17.91015625 C-21.26123047 16.99105469 -20.79394531 16.07195312 -20.3125 15.125 C-19.86455078 14.21363281 -19.41660156 13.30226562 -18.95507812 12.36328125 C-18.51228516 11.48285156 -18.06949219 10.60242188 -17.61328125 9.6953125 C-17.00673706 8.4889917 -17.00673706 8.4889917 -16.38793945 7.25830078 C-14.15477326 3.62474101 -12.2495796 1.3190416 -8.0625 0.25 C-5.35312208 0.02882629 -2.71621404 -0.07988865 0 0 Z " fill="#17557B" transform="translate(228,182)"/>
<path d="M0 0 C5.61 0 11.22 0 17 0 C17 0.99 17 1.98 17 3 C15.02 3 13.04 3 11 3 C10.85087158 3.90226318 10.85087158 3.90226318 10.69873047 4.82275391 C9.52111281 11.3456222 7.58697788 17.23427652 5.125 23.375 C4.40695869 25.20889439 3.69080144 27.04352762 2.9765625 28.87890625 C2.6352832 29.75434082 2.29400391 30.62977539 1.94238281 31.53173828 C0.1228416 36.29742783 -1.46879668 41.13439997 -3 46 C-3.66 45.34 -4.32 44.68 -5 44 C-5.99 43.67 -6.98 43.34 -8 43 C-7.61521484 42.11828125 -7.61521484 42.11828125 -7.22265625 41.21875 C-4.02391649 33.7227134 -1.11736266 26.12806239 1.75 18.5 C2.15081787 17.43716797 2.55163574 16.37433594 2.96459961 15.27929688 C3.34237549 14.26931641 3.72015137 13.25933594 4.109375 12.21875 C4.44936523 11.31060547 4.78935547 10.40246094 5.13964844 9.46679688 C5.88789081 7.32143906 6.49510162 5.21328854 7 3 C4.69 3 2.38 3 0 3 C0 2.01 0 1.02 0 0 Z " fill="#E6F1FC" transform="translate(208,354)"/>
<path d="M0 0 C2.1875 2.4375 2.1875 2.4375 2.6875 6.0625 C2.1875 9.4375 2.1875 9.4375 0.1875 11.4375 C-2.25 11.875 -2.25 11.875 -4.8125 11.4375 C-6.375 9.0625 -6.375 9.0625 -7.8125 6.4375 C-11.4130749 3.84438523 -15.31411611 4.20809737 -19.5625 4.3125 C-20.60857422 4.32603516 -20.60857422 4.32603516 -21.67578125 4.33984375 C-23.38816958 4.36330112 -25.10038004 4.39916896 -26.8125 4.4375 C-20.65822898 -2.42011628 -8.5125787 -4.76541487 0 0 Z " fill="#676A7A" transform="translate(169.8125,116.5625)"/>
<path d="M0 0 C4.75 0.75 4.75 0.75 7 3 C7.265625 6.15234375 7.265625 6.15234375 7.25 9.9375 C7.25515625 11.18402344 7.2603125 12.43054688 7.265625 13.71484375 C7 17 7 17 5 20 C2.5625 20.4375 2.5625 20.4375 0 20 C-2.25973999 17.71868731 -2.95453595 16.32805434 -3.3984375 13.125 C-3.38683594 11.578125 -3.38683594 11.578125 -3.375 10 C-3.38273437 8.96875 -3.39046875 7.9375 -3.3984375 6.875 C-2.95965544 3.70888632 -2.12282349 2.33622903 0 0 Z " fill="#F2F2F2" transform="translate(386,116)"/>
<path d="M0 0 C4.62 0 9.24 0 14 0 C14.66 1.98 15.32 3.96 16 6 C16.66 5.67 17.32 5.34 18 5 C19.20568053 9.67201205 19.09382426 14.21496292 19 19 C17.62437146 17.71034824 16.29233607 16.37310707 15 15 C15 14.34 15 13.68 15 13 C14.34 13 13.68 13 13 13 C12.67 14.32 12.34 15.64 12 17 C11.67 14.69 11.34 12.38 11 10 C10.01 10 9.02 10 8 10 C8 14.29 8 18.58 8 23 C7.67 23 7.34 23 7 23 C6.94392578 21.46279297 6.94392578 21.46279297 6.88671875 19.89453125 C6.82102921 18.53381938 6.75458291 17.17314389 6.6875 15.8125 C6.66494141 15.13896484 6.64238281 14.46542969 6.61914062 13.77148438 C6.27908446 7.43407404 4.41171697 4.41171697 0 0 Z " fill="#727477" transform="translate(179,105)"/>
<path d="M0 0 C1.08667969 0.01804688 2.17335938 0.03609375 3.29296875 0.0546875 C4.54013672 0.08949219 4.54013672 0.08949219 5.8125 0.125 C5.19629922 4.43840543 4.21870186 7.90639441 2.8125 12.125 C-2.1375 12.455 -7.0875 12.785 -12.1875 13.125 C-8.93563433 -0.19216418 -8.93563433 -0.19216418 0 0 Z " fill="#16547B" transform="translate(259.1875,177.875)"/>
<path d="M0 0 C2.49967664 2.49967664 2.25984547 3.34434952 2.30859375 6.796875 C2.34629883 8.23546875 2.34629883 8.23546875 2.38476562 9.703125 C2.41965041 11.71869037 2.45095752 13.73432114 2.47851562 15.75 C2.66215085 22.45044642 3.20575307 27.10512553 8.04736328 32.12109375 C12.0905002 34.69393828 15.31877697 34.60239358 20.01953125 34.609375 C20.87810226 34.62591125 21.73667328 34.64244751 22.6212616 34.65948486 C25.35174763 34.70790033 28.081677 34.72932106 30.8125 34.75 C32.6686477 34.77816514 34.52476954 34.80809334 36.38085938 34.83984375 C40.92052707 34.91365738 45.45988693 34.96327128 50 35 C49.505 35.99 49.505 35.99 49 37 C43.57405841 37.12410662 38.14895276 37.21457684 32.72192383 37.2746582 C30.87802732 37.29971773 29.03422932 37.33377515 27.19067383 37.37719727 C24.53181594 37.43822965 21.87427719 37.4662947 19.21484375 37.48828125 C17.98942116 37.52699089 17.98942116 37.52699089 16.73924255 37.56648254 C10.89936449 37.56930904 7.20040922 36.12388448 3 32 C-0.98635032 25.78194037 -0.34696952 19.25498405 -0.1875 12.0625 C-0.17396484 10.90169922 -0.16042969 9.74089844 -0.14648438 8.54492188 C-0.1113141 5.69612948 -0.06209287 2.84831156 0 0 Z " fill="#D7D8DA" transform="translate(126,125)"/>
<path d="M0 0 C2.475 0.495 2.475 0.495 5 1 C5 10.24 5 19.48 5 29 C3.68 29.33 2.36 29.66 1 30 C0 29 0 29 -0.11352539 26.22436523 C-0.10828857 25.01466064 -0.10305176 23.80495605 -0.09765625 22.55859375 C-0.09443359 21.25341797 -0.09121094 19.94824219 -0.08789062 18.60351562 C-0.07953401 17.2148431 -0.07106905 15.82617123 -0.0625 14.4375 C-0.05748666 13.04492344 -0.05292347 11.65234519 -0.04882812 10.25976562 C-0.03699434 6.8398013 -0.0205088 3.41992156 0 0 Z " fill="#B7BFC5" transform="translate(155,177)"/>
<path d="M0 0 C2.64 0 5.28 0 8 0 C8 3.96 8 7.92 8 12 C5.69 12 3.38 12 1 12 C1 14.31 1 16.62 1 19 C-9.89 19 -20.78 19 -32 19 C-32 18.67 -32 18.34 -32 18 C-21.44 18 -10.88 18 0 18 C0 12.06 0 6.12 0 0 Z " fill="#85AED2" transform="translate(86,177)"/>
<path d="M0 0 C2.8203125 -0.29296875 2.8203125 -0.29296875 6.125 -0.1875 C7.76855469 -0.14689453 7.76855469 -0.14689453 9.4453125 -0.10546875 C10.28835937 -0.07066406 11.13140625 -0.03585938 12 0 C11.195625 0.804375 10.39125 1.60875 9.5625 2.4375 C6.31186942 6.26663263 6.11926137 10.1211256 6 15 C5.67 15 5.34 15 5 15 C5 13.35 5 11.7 5 10 C3.68 10 2.36 10 1 10 C0.95101562 10.84304687 0.90203125 11.68609375 0.8515625 12.5546875 C0.77679688 13.65039062 0.70203125 14.74609375 0.625 15.875 C0.52058594 17.51082031 0.52058594 17.51082031 0.4140625 19.1796875 C0 22 0 22 -2 24 C-2.05802698 20.56257082 -2.09360486 17.12526747 -2.125 13.6875 C-2.14175781 12.71103516 -2.15851563 11.73457031 -2.17578125 10.72851562 C-2.18222656 9.79072266 -2.18867187 8.85292969 -2.1953125 7.88671875 C-2.20578613 7.02264404 -2.21625977 6.15856934 -2.22705078 5.26831055 C-2 3 -2 3 0 0 Z " fill="#717376" transform="translate(122,105)"/>
<path d="M0 0 C1.65 0 3.3 0 5 0 C5.02689216 1.47906892 5.04634621 2.95827483 5.0625 4.4375 C5.07410156 5.26121094 5.08570313 6.08492187 5.09765625 6.93359375 C5 9 5 9 4 10 C3.84174742 11.99782126 3.74880829 14.00088834 3.68359375 16.00390625 C3.64169922 17.21884766 3.59980469 18.43378906 3.55664062 19.68554688 C3.51732422 20.96494141 3.47800781 22.24433594 3.4375 23.5625 C3.39431641 24.84576172 3.35113281 26.12902344 3.30664062 27.45117188 C3.200152 30.63399853 3.09814038 33.81690674 3 37 C2.01 36.67 1.02 36.34 0 36 C0 24.12 0 12.24 0 0 Z " fill="#60666F" transform="translate(151,168)"/>
<path d="M0 0 C12.87 0 25.74 0 39 0 C39 0.99 39 1.98 39 3 C26.13 3 13.26 3 0 3 C0 2.01 0 1.02 0 0 Z " fill="#B6BDC3" transform="translate(95,199)"/>
<path d="M0 0 C0 0.99 0 1.98 0 3 C-15.18 3 -30.36 3 -46 3 C-46 2.34 -46 1.68 -46 1 C-40.41327304 0.8566137 -34.8265218 0.71422781 -29.23974609 0.57275391 C-27.34065061 0.52452394 -25.44156195 0.47602443 -23.54248047 0.42724609 C-20.80698382 0.35703167 -18.0714638 0.28779841 -15.3359375 0.21875 C-14.49195404 0.19687622 -13.64797058 0.17500244 -12.77841187 0.15246582 C-8.51754156 0.04588375 -4.26266285 -0.0241169 0 0 Z " fill="#6A707B" transform="translate(140,202)"/>
<path d="M0 0 C3.3 0 6.6 0 10 0 C10 2.97 10 5.94 10 9 C6.7 9 3.4 9 0 9 C0 6.03 0 3.06 0 0 Z " fill="#C2CACC" transform="translate(162,192)"/>
<path d="M0 0 C3.3 0 6.6 0 10 0 C10 2.97 10 5.94 10 9 C6.7 9 3.4 9 0 9 C0 6.03 0 3.06 0 0 Z " fill="#C3CCCF" transform="translate(140,192)"/>
<path d="M0 0 C0.58265625 0.40992188 1.1653125 0.81984375 1.765625 1.2421875 C8.37340815 5.58503869 14.1645198 7.21914458 22 8 C21 11 21 11 19 12 C12.19012272 12.70447006 8.32246193 11.28244063 3 7 C0.48022027 4.32273404 0 3.70908301 0 0 Z " fill="#385053" transform="translate(142,138)"/>
<path d="M0 0 C-0.33 0.99 -0.66 1.98 -1 3 C-11.395 3.495 -11.395 3.495 -22 4 C-16.12817081 -1.87182919 -7.6443396 -5.0962264 0 0 Z " fill="#6A6D7D" transform="translate(165,117)"/>
<path d="M0 0 C1.32 0.33 2.64 0.66 4 1 C4 2.32 4 3.64 4 5 C5.65 5 7.3 5 9 5 C9 7.64 9 10.28 9 13 C8.01 13 7.02 13 6 13 C6 10.69 6 8.38 6 6 C5.34 6 4.68 6 4 6 C4 8.64 4 11.28 4 14 C2.68 14 1.36 14 0 14 C0 9.38 0 4.76 0 0 Z " fill="#616161" transform="translate(388,144)"/>
<path d="M0 0 C0.66 0.33 1.32 0.66 2 1 C4.88370333 1.07194869 7.74239664 1.09291708 10.625 1.0625 C11.42679688 1.05798828 12.22859375 1.05347656 13.0546875 1.04882812 C15.03649006 1.03703168 17.01825433 1.01909605 19 1 C18.34 1.66 17.68 2.32 17 3 C14.1796875 2.9765625 14.1796875 2.9765625 10.875 2.625 C9.77929688 2.51414062 8.68359375 2.40328125 7.5546875 2.2890625 C6.29011719 2.14597656 6.29011719 2.14597656 5 2 C3.7388449 5.78346529 3.73077713 9.3406486 3.57421875 13.30859375 C2.86714717 16.62269115 1.54935352 17.84755182 -1 20 C-1.10152799 13.2314676 -1.03026944 6.69675136 0 0 Z " fill="#515455" transform="translate(117,103)"/>
<path d="M0 0 C3.3 0 6.6 0 10 0 C10 2.64 10 5.28 10 8 C6.7 8 3.4 8 0 8 C0 5.36 0 2.72 0 0 Z " fill="#7A818A" transform="translate(140,208)"/>
<path d="M0 0 C0.33 0.99 0.66 1.98 1 3 C4.3 3 7.6 3 11 3 C11 5.31 11 7.62 11 10 C7.7 10 4.4 10 1 10 C-0.1577506 6.52674819 -0.06866652 3.63932552 0 0 Z " fill="#989FA8" transform="translate(161,198)"/>
<path d="M0 0 C1.64574566 -0.02688151 3.29161413 -0.04634123 4.9375 -0.0625 C5.85402344 -0.07410156 6.77054688 -0.08570313 7.71484375 -0.09765625 C10 0 10 0 11 1 C11.14115161 3.67058851 11.04247107 6.32432238 11 9 C9.02 9.33 7.04 9.66 5 10 C4.67 9.34 4.34 8.68 4 8 C5.98 8 7.96 8 10 8 C10 7.34 10 6.68 10 6 C6.7 6 3.4 6 0 6 C0 4.02 0 2.04 0 0 Z " fill="#5E6B79" transform="translate(162,208)"/>
<path d="M0 0 C3.0625 0.1875 3.0625 0.1875 5.0625 2.1875 C5.375 4.6875 5.375 4.6875 5.0625 7.1875 C2.0625 9.1875 2.0625 9.1875 -0.5 8.9375 C-2.9375 8.1875 -2.9375 8.1875 -4.9375 6.1875 C-4.21574268 0.26908996 -4.21574268 0.26908996 0 0 Z " fill="#EAEAEA" transform="translate(364.9375,127.8125)"/>
<path d="M0 0 C8.91 0 17.82 0 27 0 C27 0.99 27 1.98 27 3 C18.09 3 9.18 3 0 3 C0 2.01 0 1.02 0 0 Z " fill="#D9E9FA" transform="translate(165,354)"/>
<path d="M0 0 C1.98 0 3.96 0 6 0 C6 3.63 6 7.26 6 11 C4.02 11 2.04 11 0 11 C0 7.37 0 3.74 0 0 Z " fill="#9BA1A9" transform="translate(87,178)"/>
<path d="M0 0 C0 0.66 0 1.32 0 2 C-1.5159375 1.7525 -1.5159375 1.7525 -3.0625 1.5 C-9.66441708 0.65237593 -16.3568696 0.92215082 -23 1 C-23 0.34 -23 -0.32 -23 -1 C-15.02197022 -4.35917043 -7.57203354 -3.95062619 0 0 Z " fill="#222528" transform="translate(169,114)"/>
<path d="M0 0 C2.33294775 -0.04241723 4.66702567 -0.04092937 7 0 C8 1 8 1 8.09765625 2.84765625 C8.04882812 5.92382812 8.04882812 5.92382812 8 9 C5.36 8.67 2.72 8.34 0 8 C0 5.36 0 2.72 0 0 Z " fill="#5F5F5F" transform="translate(365,149)"/>
<path d="M0 0 C1.32 0 2.64 0 4 0 C4.33 2.31 4.66 4.62 5 7 C5.33 6.34 5.66 5.68 6 5 C6.66 5.33 7.32 5.66 8 6 C8 8.31 8 10.62 8 13 C7.01 12.34 6.02 11.68 5 11 C4.67 11.66 4.34 12.32 4 13 C3.01 13 2.02 13 1 13 C0.67 8.71 0.34 4.42 0 0 Z " fill="#474747" transform="translate(354,144)"/>
<path d="M0 0 C0.66 0 1.32 0 2 0 C2.66 1.98 3.32 3.96 4 6 C4.66 5.67 5.32 5.34 6 5 C7.20568053 9.67201205 7.09382426 14.21496292 7 19 C3.18907824 15.80323505 2.23073055 13.20237372 1.25 8.375 C1.00765625 7.22773437 0.7653125 6.08046875 0.515625 4.8984375 C0 2 0 2 0 0 Z " fill="#535F65" transform="translate(191,105)"/>
<path d="M0 0 C2.31 0 4.62 0 7 0 C6.01 0.495 6.01 0.495 5 1 C5 3.64 5 6.28 5 9 C5.99 9.33 6.98 9.66 8 10 C3.38 10 -1.24 10 -6 10 C-5.67 9.34 -5.34 8.68 -5 8 C-4.01 8.33 -3.02 8.66 -2 9 C-1.67 8.01 -1.34 7.02 -1 6 C-0.34 6.66 0.32 7.32 1 8 C1.20970559 3.85906302 1.20970559 3.85906302 0 0 Z " fill="#D2D2D2" transform="translate(360,148)"/>
<path d="M0 0 C1.11761719 -0.00515625 2.23523438 -0.0103125 3.38671875 -0.015625 C6.3125 0.25 6.3125 0.25 9.3125 2.25 C6.18436463 4.08198669 3.92164709 4.49801923 0.3125 4.4375 C-0.533125 4.43105469 -1.37875 4.42460937 -2.25 4.41796875 C-4.53081816 4.26079699 -6.49607582 3.87745906 -8.6875 3.25 C-9.43 3.064375 -10.1725 2.87875 -10.9375 2.6875 C-11.515 2.543125 -12.0925 2.39875 -12.6875 2.25 C-8.31563871 0.58326922 -4.6729481 -0.0217094 0 0 Z " fill="#CEE3F9" transform="translate(259.6875,352.75)"/>
<path d="M0 0 C2.97 0 5.94 0 9 0 C9 0.66 9 1.32 9 2 C16.59 1.67 24.18 1.34 32 1 C32 1.66 32 2.32 32 3 C21.44 3 10.88 3 0 3 C0 2.01 0 1.02 0 0 Z " fill="#DDECFA" transform="translate(357,411)"/>
<path d="M0 0 C1.21236328 0.12568359 1.21236328 0.12568359 2.44921875 0.25390625 C3.51785156 0.35574219 4.58648437 0.45757812 5.6875 0.5625 C6.74324219 0.66691406 7.79898437 0.77132813 8.88671875 0.87890625 C11.81426086 0.99277552 14.17131144 0.70848415 17 0 C16.67 0.66 16.34 1.32 16 2 C17.98 2 19.96 2 22 2 C18.90267129 5.09732871 16.44694906 4.9887814 12.109375 5.09765625 C10.65621776 5.09105099 9.20307644 5.07918727 7.75 5.0625 C7.00492187 5.05798828 6.25984375 5.05347656 5.4921875 5.04882812 C3.6614236 5.03709246 1.83070127 5.0191585 0 5 C1.32 4.34 2.64 3.68 4 3 C2.68 2.34 1.36 1.68 0 1 C0 0.67 0 0.34 0 0 Z " fill="#C5DFF8" transform="translate(252,410)"/>
<path d="M0 0 C0.33 0 0.66 0 1 0 C1.55353075 16.8929385 1.55353075 16.8929385 -2 24 C-4.13219999 20.80170001 -4.23105503 20.42970286 -3.828125 16.875 C-3.74046875 16.08609375 -3.6528125 15.2971875 -3.5625 14.484375 C-3.459375 13.66453125 -3.35625 12.8446875 -3.25 12 C-3.16234375 11.18015625 -3.0746875 10.3603125 -2.984375 9.515625 C-2.26450893 3.39676339 -2.26450893 3.39676339 0 0 Z " fill="#265E84" transform="translate(415,126)"/>
<path d="M0 0 C0.99 0 1.98 0 3 0 C2.68289063 1.134375 2.36578125 2.26875 2.0390625 3.4375 C0.90842964 7.96003145 0.56820384 12.35505777 0.375 17 C0.33632813 17.77472656 0.29765625 18.54945313 0.2578125 19.34765625 C0.16478643 21.23143415 0.08136825 23.11568256 0 25 C-0.33 25 -0.66 25 -1 25 C-2.92769825 16.56439245 -2.53460917 8.23747981 0 0 Z " fill="#084468" transform="translate(341,118)"/>
<path d="M0 0 C0.74056641 0.02255859 1.48113281 0.04511719 2.24414062 0.06835938 C4.05947357 0.1269185 5.87375681 0.21659114 7.6875 0.3125 C7.6875 0.6425 7.6875 0.9725 7.6875 1.3125 C6.34945312 1.47685547 6.34945312 1.47685547 4.984375 1.64453125 C3.22867188 1.88236328 3.22867188 1.88236328 1.4375 2.125 C-0.30273438 2.35123047 -0.30273438 2.35123047 -2.078125 2.58203125 C-5.29644666 3.30887443 -6.89581655 4.12911025 -9.3125 6.3125 C-8.9825 6.9725 -8.6525 7.6325 -8.3125 8.3125 C-9.9625 8.3125 -11.6125 8.3125 -13.3125 8.3125 C-13.3125 5.3125 -13.3125 5.3125 -11.33203125 2.64453125 C-7.36820167 -0.41679638 -4.83972354 -0.28112782 0 0 Z " fill="#363B41" transform="translate(153.3125,113.6875)"/>
<path d="M0 0 C1.27875 0.165 2.5575 0.33 3.875 0.5 C8.26183847 1.00751063 12.52505647 1.01232173 16.93359375 0.83984375 C19 1 19 1 21 3 C20 4 20 4 16.9453125 4.1328125 C15.68460937 4.13023437 14.42390625 4.12765625 13.125 4.125 C11.86945313 4.12757813 10.61390625 4.13015625 9.3203125 4.1328125 C6 4 6 4 3 3 C3 2.34 3 1.68 3 1 C2.01 0.67 1.02 0.34 0 0 Z " fill="#0D466B" transform="translate(364,169)"/>
<path d="M0 0 C2.625 0.375 2.625 0.375 5 1 C5.625 2.875 5.625 2.875 6 5 C5.34 5.66 4.68 6.32 4 7 C1.375 6.625 1.375 6.625 -1 6 C-1.625 4.125 -1.625 4.125 -2 2 C-1.34 1.34 -0.68 0.68 0 0 Z " fill="#D6D6D6" transform="translate(363,115)"/>
<path d="M0 0 C2.1640625 0.2421875 2.1640625 0.2421875 4.625 0.875 C5.44226563 1.07867187 6.25953125 1.28234375 7.1015625 1.4921875 C8.04128906 1.74355469 8.04128906 1.74355469 9 2 C9 2.66 9 3.32 9 4 C9.804375 4.28875 10.60875 4.5775 11.4375 4.875 C14 6 14 6 15 8 C14.01 8.33 13.02 8.66 12 9 C10.16796875 8.07421875 10.16796875 8.07421875 8.1875 6.6875 C4.88770271 4.49170143 1.85181279 3.05924852 -2 2 C-1.34 1.34 -0.68 0.68 0 0 Z " fill="#184C6D" transform="translate(387,97)"/>
<path d="M0 0 C0.671875 1.71484375 0.671875 1.71484375 1 4 C-0.109375 6.25390625 -0.109375 6.25390625 -1.75 8.5625 C-2.28109375 9.32691406 -2.8121875 10.09132812 -3.359375 10.87890625 C-4.8043344 12.74703233 -6.2843475 14.38253243 -8 16 C-8.66 15.67 -9.32 15.34 -10 15 C-7.19921875 10.79882812 -7.19921875 10.79882812 -4.3984375 6.59765625 C-3.85445313 5.78167969 -3.31046875 4.96570313 -2.75 4.125 C-2.22921875 3.34382812 -1.7084375 2.56265625 -1.171875 1.7578125 C-0.59179688 0.88769531 -0.59179688 0.88769531 0 0 Z " fill="#174D6D" transform="translate(411,147)"/>
<path d="M0 0 C2.42479736 3.63719605 2.38662577 5.85703482 2.625 10.1875 C2.69976562 11.45980469 2.77453125 12.73210937 2.8515625 14.04296875 C2.90054687 15.01878906 2.94953125 15.99460938 3 17 C2.34 17.33 1.68 17.66 1 18 C0.87625 16.88625 0.7525 15.7725 0.625 14.625 C0.3534187 10.96896323 0.3534187 10.96896323 -2 9 C-1.7578125 6.8359375 -1.7578125 6.8359375 -1.125 4.375 C-0.92132813 3.55773437 -0.71765625 2.74046875 -0.5078125 1.8984375 C-0.34023438 1.27195312 -0.17265625 0.64546875 0 0 Z " fill="#C5C5C5" transform="translate(375,117)"/>
<path d="M0 0 C2.97 0 5.94 0 9 0 C9 1.32 9 2.64 9 4 C6.03 4 3.06 4 0 4 C0 2.68 0 1.36 0 0 Z " fill="#5F656E" transform="translate(141,209)"/>
<path d="M0 0 C3.63 0 7.26 0 11 0 C11 0.99 11 1.98 11 3 C7.37 3 3.74 3 0 3 C0 2.01 0 1.02 0 0 Z " fill="#9BA2AB" transform="translate(161,189)"/>
<path d="M0 0 C2.64 0 5.28 0 8 0 C8 0.33 8 0.66 8 1 C6.35 1 4.7 1 3 1 C2.80664062 1.69867188 2.61328125 2.39734375 2.4140625 3.1171875 C2.15367187 4.02726563 1.89328125 4.93734375 1.625 5.875 C1.36976563 6.77992188 1.11453125 7.68484375 0.8515625 8.6171875 C0 11 0 11 -2 13 C-1.48041715 8.62065881 -0.94324258 4.31196609 0 0 Z " fill="#6F6F6F" transform="translate(384,142)"/>
<path d="M0 0 C3.3 0 6.6 0 10 0 C10 0.99 10 1.98 10 3 C6.7 3 3.4 3 0 3 C0 2.01 0 1.02 0 0 Z " fill="#B6BDC4" transform="translate(140,198)"/>
<path d="M0 0 C3.3 0 6.6 0 10 0 C10 0.99 10 1.98 10 3 C6.7 3 3.4 3 0 3 C0 2.01 0 1.02 0 0 Z " fill="#B7BFC5" transform="translate(162,192)"/>
<path d="M0 0 C3.3 0 6.6 0 10 0 C10 0.99 10 1.98 10 3 C6.7 3 3.4 3 0 3 C0 2.01 0 1.02 0 0 Z " fill="#9BA3AD" transform="translate(140,189)"/>
<path d="M0 0 C5.625 -0.25 5.625 -0.25 9 2 C9 2.66 9 3.32 9 4 C2.25 4.125 2.25 4.125 0 3 C0 2.01 0 1.02 0 0 Z " fill="#A7AFCD" transform="translate(156,115)"/>
<path d="M0 0 C0.99 0 1.98 0 3 0 C2.88617347 1.95901454 2.75858875 3.9172338 2.625 5.875 C2.55539063 6.96554688 2.48578125 8.05609375 2.4140625 9.1796875 C2 12 2 12 0 14 C0 9.38 0 4.76 0 0 Z " fill="#797F86" transform="translate(120,115)"/>
<path d="M0 0 C0.66 0.66 1.32 1.32 2 2 C3.31747324 2.69748583 4.64914193 3.36959957 6 4 C5 5 5 5 2.125 5.1875 C-1 5 -1 5 -4 3 C-3 1 -3 1 0 0 Z " fill="#94A1AF" transform="translate(154,204)"/>
<path d="M0 0 C1.32 0 2.64 0 4 0 C4 2.64 4 5.28 4 8 C3.01 8 2.02 8 1 8 C0.67 5.36 0.34 2.72 0 0 Z " fill="#4A4A4A" transform="translate(393,149)"/>
<path d="M0 0 C0.66 0.33 1.32 0.66 2 1 C-1.3 4.3 -4.6 7.6 -8 11 C-8 7.0234755 -6.61988497 5.9109833 -4 3 C-1.75 1.1875 -1.75 1.1875 0 0 Z " fill="#D9E0E4" transform="translate(356,104)"/>
<path d="M0 0 C3.3 0 6.6 0 10 0 C10 0.66 10 1.32 10 2 C6.7 2.33 3.4 2.66 0 3 C0 2.01 0 1.02 0 0 Z " fill="#8E9BA9" transform="translate(162,214)"/>
<path d="M0 0 C1.32 0.33 2.64 0.66 4 1 C4 3.31 4 5.62 4 8 C3.01 8 2.02 8 1 8 C0.67 5.36 0.34 2.72 0 0 Z " fill="#242424" transform="translate(374,149)"/>
<path d="M0 0 C0.66 0.33 1.32 0.66 2 1 C0.9024777 3.99324263 0.32317108 4.84610901 -2.625 6.25 C-3.40875 6.4975 -4.1925 6.745 -5 7 C-5.66 6.34 -6.32 5.68 -7 5 C-6.030625 4.360625 -5.06125 3.72125 -4.0625 3.0625 C-1.23963731 1.3034741 -1.23963731 1.3034741 0 0 Z " fill="#245674" transform="translate(401,160)"/>
<path d="M0 0 C0.33 0.66 0.66 1.32 1 2 C-1.65654657 5.73884332 -3.58110387 7.64978174 -8 9 C-8.33 8.34 -8.66 7.68 -9 7 C-8.071875 6.5875 -7.14375 6.175 -6.1875 5.75 C-3.11945319 4.06558214 -1.80959535 2.91545917 0 0 Z " fill="#C0C3C6" transform="translate(184,152)"/>
<path d="M0 0 C2.1640625 0.2421875 2.1640625 0.2421875 4.625 0.875 C5.44226563 1.07867187 6.25953125 1.28234375 7.1015625 1.4921875 C8.04128906 1.74355469 8.04128906 1.74355469 9 2 C6 4 6 4 3.95703125 3.7578125 C1.97135417 3.171875 -0.01432292 2.5859375 -2 2 C-1.34 1.34 -0.68 0.68 0 0 Z " fill="#195277" transform="translate(387,97)"/>
<path d="M0 0 C2.15377564 2.62198774 3.40072174 4.64404172 4 8 C3.01 8 2.02 8 1 8 C-0.42944945 5.64561267 -1.08661261 4.51967567 -0.625 1.75 C-0.41875 1.1725 -0.2125 0.595 0 0 Z " fill="#185077" transform="translate(409,112)"/>
<path d="M0 0 C0.6875 1.6875 0.6875 1.6875 1 4 C-0.4375 6.75 -0.4375 6.75 -2 9 C-2.6875 7.3125 -2.6875 7.3125 -3 5 C-1.5625 2.25 -1.5625 2.25 0 0 Z " fill="#0D4366" transform="translate(411,147)"/>
<path d="M0 0 C0.33 0 0.66 0 1 0 C1 2.31 1 4.62 1 7 C1.66 7 2.32 7 3 7 C2.34 8.65 1.68 10.3 1 12 C0.67 12 0.34 12 0 12 C0 8.04 0 4.08 0 0 Z " fill="#50606C" transform="translate(116,111)"/>
<path d="M0 0 C0.33 1.32 0.66 2.64 1 4 C0.01 4.33 -0.98 4.66 -2 5 C-2 4.34 -2 3.68 -2 3 C-3.65 3 -5.3 3 -7 3 C-6.67 2.34 -6.34 1.68 -6 1 C-3.03 1.495 -3.03 1.495 0 2 C0 1.34 0 0.68 0 0 Z " fill="#909090" transform="translate(381,155)"/>
</svg>
